<svg width="390" height="518" viewBox="0 0 390 518" xmlns="http://www.w3.org/2000/svg" xmlns:xlink="http://www.w3.org/1999/xlink"><title>00A039BA-A19B-41E8-8A56-6BA8356D1703</title><defs><path d="M8.642.381A8.158 8.158 0 0 0 .484 8.54v199.203a8.158 8.158 0 0 0 8.158 8.158h341.47a8.16 8.16 0 0 0 8.16-8.158V8.539a8.16 8.16 0 0 0-8.16-8.158H8.643z" id="a"/><path d="M8.642.381A8.158 8.158 0 0 0 .484 8.54v199.203a8.158 8.158 0 0 0 8.158 8.158h341.47a8.16 8.16 0 0 0 8.16-8.158V8.539a8.16 8.16 0 0 0-8.16-8.158H8.643z" id="c"/><path d="M50.718 42.617s-18.325-27.955-27.6-40.008C10.92 7.794.387 16.096.173 28.19l1.735 122.206c-.09 5.077 4.041 9.219 9.119 9.144 0 0 23.857 5.785 41.895 5.785 18.037 0 43.896-8.482 43.896-8.482 5.12-.075 9.141-4.408 8.836-9.52l-3.444-119.2C101.4 14.529 88.24 5.082 73.022.346" id="e"/><path d="M50.718 42.617s-18.325-27.955-27.6-40.008C10.92 7.794.387 16.096.173 28.19l1.735 122.206c-.09 5.077 4.041 9.219 9.119 9.144 0 0 23.857 5.785 41.895 5.785 18.037 0 43.896-8.482 43.896-8.482 5.12-.075 9.141-4.408 8.836-9.52l-3.444-119.2C101.4 14.529 88.24 5.082 73.022.346L50.718 42.617z" id="g"/><path d="M18.715 30.867C13.069 22.455 5.528 11.403.202 4.296v26.57h18.513M53.299 1.9A71.65 71.65 0 0 0 48.826.346l-16.104 30.52h20.577V1.9" id="i"/><path d="M.392 2.752L8.652.544a8.986 8.986 0 0 1 9.02 2.662l3.835 4.25v3.216H.392v-7.92" id="k"/><path d="M23.894.655L6.374 5.34C3.238 6.184 1 8.552.127 11.377h23.767V.655" id="m"/><path id="o" d="M.31 51.985h52.97V.66H.31z"/><path d="M52.145.285c-.232 0-.472.045-.709.142C37.944 5.946 2.476 23.849.617 23.959c0 0 .238 11.24 12.945 19.226 9.194 5.777 21.148 5.77 29.285 5.129a3.106 3.106 0 0 0 2.847-2.818L53.98 2.544c.258-1.22-.7-2.26-1.827-2.26" id="q"/><path d="M52.145.285c-.232 0-.472.045-.709.142C37.944 5.946 2.476 23.849.617 23.959c0 0 .238 11.24 12.945 19.226 9.194 5.777 21.148 5.77 29.285 5.129a3.106 3.106 0 0 0 2.847-2.818L53.98 2.544c.258-1.22-.7-2.26-1.827-2.26" id="s"/><path d="M52.145.285c-.232 0-.472.045-.709.142C37.944 5.946 2.476 23.849.617 23.959c0 0 .238 11.24 12.945 19.226 9.194 5.777 21.148 5.77 29.285 5.129a3.106 3.106 0 0 0 2.847-2.818L53.98 2.544c.258-1.22-.7-2.26-1.827-2.26" id="u"/><path d="M52.145.285c-.232 0-.472.045-.709.142C37.944 5.946 2.476 23.849.617 23.959c0 0 .238 11.24 12.945 19.226 9.194 5.777 21.148 5.77 29.285 5.129a3.106 3.106 0 0 0 2.847-2.818L53.98 2.544c.258-1.22-.7-2.26-1.827-2.26" id="w"/><path d="M52.145.285c-.232 0-.472.045-.709.142C37.944 5.946 2.476 23.849.617 23.959c0 0 .238 11.24 12.945 19.226 9.194 5.777 21.148 5.77 29.285 5.129a3.106 3.106 0 0 0 2.847-2.818L53.98 2.544c.258-1.22-.7-2.26-1.827-2.26" id="y"/><path d="M52.145.285c-.232 0-.472.045-.709.142C37.944 5.946 2.476 23.849.617 23.959c0 0 .238 11.24 12.945 19.226 9.194 5.777 21.148 5.77 29.285 5.129a3.106 3.106 0 0 0 2.847-2.818L53.98 2.544c.258-1.22-.7-2.26-1.827-2.26" id="A"/><path d="M52.145.285c-.232 0-.472.045-.709.142C37.944 5.946 2.476 23.849.617 23.959c0 0 .238 11.24 12.945 19.226 9.194 5.777 21.148 5.77 29.285 5.129a3.106 3.106 0 0 0 2.847-2.818L53.98 2.544c.258-1.22-.7-2.26-1.827-2.26" id="C"/><path d="M52.145.285c-.232 0-.472.045-.709.142C37.944 5.946 2.476 23.849.617 23.959c0 0 .238 11.24 12.945 19.226 9.194 5.777 21.148 5.77 29.285 5.129a3.106 3.106 0 0 0 2.847-2.818L53.98 2.544c.258-1.22-.7-2.26-1.827-2.26" id="E"/><path d="M52.145.285c-.232 0-.472.045-.709.142C37.944 5.946 2.476 23.849.617 23.959c0 0 .238 11.24 12.945 19.226 9.194 5.777 21.148 5.77 29.285 5.129a3.106 3.106 0 0 0 2.847-2.818L53.98 2.544c.258-1.22-.7-2.26-1.827-2.26" id="G"/><path id="I" d="M.304 6.563l6.741 24.024 21.422-5.76L22.478.132z"/><path d="M.623.038C.62.098.617.156.617.214c0 10.427 8.413 18.89 18.823 18.974h.31c10.41-.083 18.822-8.547 18.822-18.974 0-.058-.005-.117-.005-.176H.623z" id="K"/><path d="M3.637 30.276c-.26.762-.47 1.533-.583 2.318L.794 48.345c-2.472 17.243.827 35.205 10.966 49.368 5.932 8.287 13.561 11.289 20.824 11.289 8.735 0 16.995-4.044 25.636-11.295C70 87.823 74.285 73.068 76.467 57.85l2.005-13.953.1-.745c.112-.783.174-1.575.14-2.38C79.93 14.938 60.23.632 40.507.63 24.528.63 8.536 10.018 3.637 30.276" id="M"/><path d="M3.637 30.276c-.26.762-.47 1.533-.583 2.318L.794 48.345c-2.472 17.243.827 35.205 10.966 49.368 5.932 8.287 13.561 11.289 20.824 11.289 8.735 0 16.995-4.044 25.636-11.295C70 87.823 74.285 73.068 76.467 57.85l2.005-13.953.1-.745c.112-.783.174-1.575.14-2.38C79.93 14.938 60.23.632 40.507.63 24.528.63 8.536 10.018 3.637 30.276" id="O"/><path d="M3.637 30.276c-.26.762-.47 1.533-.583 2.318L.794 48.345c-2.472 17.243.827 35.205 10.966 49.368 5.932 8.287 13.561 11.289 20.824 11.289 8.735 0 16.995-4.044 25.636-11.295C70 87.823 74.285 73.068 76.467 57.85l2.005-13.953.1-.745c.112-.783.174-1.575.14-2.38C79.93 14.938 60.23.632 40.507.63 24.528.63 8.536 10.018 3.637 30.276" id="Q"/><path d="M6.145.46C3.924.485 1.522 1.207.332 3.929a3.115 3.115 0 0 0 2.79 4.355h.12A3.125 3.125 0 0 0 5.89 6.711c.365-.038 1.24-.04 2.953.387a3.111 3.111 0 1 0 1.51-6.037C9.536.856 8.02.478 6.38.46h-.234z" id="S"/><path id="U" d="M.065 40.815H64.27V.412H.065z"/><path d="M.77 26.028c.81 3.87 3.013 3.422 5.875 2.975 2.343-.366 5.13-.733 7.955 1.274 4.26 3.026 13.628 7.942 13.628 7.942l31.38.372s5.69-.458 10.261-3.417c2.3-1.49 4.38.83 6.37 3.15 2.094 2.444 4.086 4.887 6.118 2.876 1.415-13.729-.459-27.762-4.65-39.816L7.257.591C3.832 6.526-.118 15.063.77 26.028z" id="W"/><path d="M.77 26.028c.81 3.87 3.013 3.422 5.875 2.975 2.343-.366 5.13-.733 7.955 1.274 4.26 3.026 13.628 7.942 13.628 7.942l31.38.372s5.69-.458 10.261-3.417c2.3-1.49 4.38.83 6.37 3.15 2.094 2.444 4.086 4.887 6.118 2.876 1.415-13.729-.459-27.762-4.65-39.816L7.257.591C3.832 6.526-.118 15.063.77 26.028z" id="Y"/></defs><g fill="none" fill-rule="evenodd"><path d="M372.517 287.861H17.807c-6.71 0-12.15-5.44-12.15-12.148V68.357c0-6.71 5.44-12.149 12.15-12.149h354.71c6.71 0 12.15 5.44 12.15 12.15v207.355c0 6.709-5.44 12.148-12.15 12.148" fill="#A6A8AB"/><path d="M365.135 281.16H23.665a8.159 8.159 0 0 1-8.16-8.158V73.8a8.158 8.158 0 0 1 8.16-8.157h341.47a8.158 8.158 0 0 1 8.16 8.157v199.202a8.159 8.159 0 0 1-8.16 8.158" fill="#D0D2D3"/><path d="M222.703 185.594a.501.501 0 0 1-.907-.089l-14.974-45.074s-14.546 6.347-19.194 7.107l15.94 49.316c2.638 6.449 9.35 18.316 18.78 16.56 9.352-1.74 15.463-11.43 15.463-11.43l31.556-52.82c3.691-6.18 1.675-14.182-4.506-17.873-1.511-.904-2.938-1.304-4.281-1.304-4.15 0-7.524 3.818-10.312 8.485l-27.565 47.122z" fill="#F4D4C4"/><g transform="translate(15.784 65.261)"><mask id="b" fill="#fff"><use xlink:href="#a"/></mask><path fill="#E6E7E8" mask="url(#b)" d="M344.977 330.35l-90.624-40.417L386.471-60.255l107.156 40.418z"/></g><g transform="translate(15.784 65.261)"><mask id="d" fill="#fff"><use xlink:href="#c"/></mask><path fill="#E6E7E8" mask="url(#d)" d="M-56.916 263.057l-131.671-49.664L-56.47-136.795 75.2-87.13z"/></g><path d="M386.08 290.05H4.515a3.695 3.695 0 0 1-3.695-3.694v-4.37h388.954v4.37a3.694 3.694 0 0 1-3.694 3.694" fill="#929497"/><path d="M387.677 284.01H2.918c-2.217 0-2.914-2.993-.926-3.973l14.276-7.036h357.788l14.533 7.03c2.003.97 1.313 3.979-.912 3.979" fill="#BBBDBF"/><path d="M169.528 517.665H156.05c-1.647 0-27.942-5.724-27.942-5.724-2.63-.697-4.403-3.168-4.19-5.879.235-2.97-.38-10.873 1.75-15.96a10.024 10.024 0 0 1 9.68-6.145c1.893.084 4.034.345 6.266.929 19.746 5.162 30.639 18.165 32.321 25.14.541 2.242.54 7.393-4.407 7.639M68.789 517.665h17.875c1.647 0 3.288-.214 4.88-.636l22.074-5.856c2.629-.697 4.403-3.168 4.19-5.879-.236-2.968-3.029-10.105-5.16-15.192a10.024 10.024 0 0 0-9.68-6.145 30.117 30.117 0 0 0-6.265.929c-19.747 5.162-30.64 18.165-32.321 25.14-.541 2.242-.54 7.393 4.407 7.639" fill="#463D5D"/><path d="M60.348 317s6.454 114.451 22.191 165.913c1.914 6.257 7.705 10.517 14.25 10.517 8.206 0 12.144-7.51 11.87-14.252-1.08-26.44 2.257-89.899 4.297-120.52 1.402-21.042 4.987-52.607 4.987-52.607L60.348 317z" fill="#585380"/><path d="M161.368 309.317s6.463 121.641-8.543 173.146c-2.918 8.863-7.622 12.144-15.514 11.359-8.777-.872-11.189-10.987-11.189-10.987s-3.498-133.542-13.166-169.233c-9.667-35.691 48.412-4.285 48.412-4.285" fill="#585380"/><path d="M144.596 323.708c0 8.959-13.892 16.221-31.028 16.221-17.137 0-31.028-7.262-31.028-16.221 0-8.96 13.891-16.222 31.028-16.222 17.136 0 31.028 7.262 31.028 16.222" fill="#585380"/><path d="M132.988 165.704l-28.464-5.746-21.2 5.709c-2.145.749-4.201 1.535-6.16 2.368a36891.334 36891.334 0 0 0 29.903 38.75l25.921-41.081z" fill="#FFF"/><path d="M132.988 165.704l-25.921 41.082" fill="#7F3F97"/><path d="M98.824 205.665c0-1.772 3.478-22.928 3.478-22.928l6.194-.434 6.832 23.303-7.502 19.91-9.002-19.85z" fill="#231F1F"/><path d="M113.684 176.917a8.607 8.607 0 0 0-8.608-8.606 8.606 8.606 0 1 0 0 17.212 8.606 8.606 0 0 0 8.608-8.606" fill="#231F1F"/><path d="M107.067 206.785s-18.325-27.954-27.6-40.007c-12.198 5.185-22.732 13.487-22.947 25.58l1.735 122.205c-.09 5.077 4.042 9.219 9.119 9.144 0 0 23.858 4.405 41.895 4.405 18.038 0 43.896-7.102 43.896-7.102 5.12-.076 9.141-4.408 8.837-9.52l-3.444-119.2c-.81-13.594-13.969-23.038-29.186-27.776l-22.305 42.271z" fill="#00A27C"/><path d="M107.05 211.263a2.64 2.64 0 0 1-2.218-1.193L85.39 180.32a1.762 1.762 0 0 1 2.949-1.927l18.631 28.511 15.102-28.965a1.76 1.76 0 1 1 3.124 1.628l-15.783 30.27a2.648 2.648 0 0 1-2.364 1.426" fill="#2DB899"/><path d="M110.688 262.072l-3.656.15a7.415 7.415 0 0 1-5.327-1.951 7.448 7.448 0 0 1-2.38-5.15l-.1-2.413-.576-14.076-.099-2.415a7.448 7.448 0 0 1 1.952-5.327 7.416 7.416 0 0 1 5.148-2.38l3.657-.15a7.451 7.451 0 0 1 5.326 1.952 7.447 7.447 0 0 1 2.38 5.15l.1 2.413.576 14.077.1 2.414a7.446 7.446 0 0 1-1.952 5.326 7.445 7.445 0 0 1-5.149 2.38zm-22.743-6.484a18.717 18.717 0 0 0 6.047 13.054 18.765 18.765 0 0 0 13.506 4.959l3.656-.15a18.642 18.642 0 0 0 12.866-5.862 18.724 18.724 0 0 0 13.321 4.789l-.466-11.379a7.414 7.414 0 0 1-5.326-1.95 7.441 7.441 0 0 1-2.38-5.15l-.1-2.413-.577-14.077-.099-2.414a7.451 7.451 0 0 1 1.952-5.327 7.419 7.419 0 0 1 5.149-2.38l-.467-11.378a18.72 18.72 0 0 0-12.884 5.862 18.64 18.64 0 0 0-13.302-4.79l-3.657.15a18.765 18.765 0 0 0-13.054 6.047 18.713 18.713 0 0 0-4.96 13.504l.1 2.415.576 14.076.099 2.414z" fill="#FFF"/><g transform="translate(56.348 164.168)"><mask id="f" fill="#fff"><use xlink:href="#e"/></mask><path d="M15.283 165.323c-30.433-12.802-40.634-59.158-41.28-60.512a13.73 13.73 0 0 1-.736-9.936l15.503-50.617 26.272 8.045L1.248 97.337c4.442 7.31 11.768 22.505 26.979 28.902 0 0 15.742-6.104 15.28 19.156-3.248 22.386-28.224 19.928-28.224 19.928" fill="#078161" mask="url(#f)"/></g><g transform="translate(56.348 164.168)"><mask id="h" fill="#fff"><use xlink:href="#g"/></mask><path d="M103.565 132.065l-1.39-14.793 5.724-20.026-18.53-47.055 7.684-1.677 20.738 46.707a4.928 4.928 0 0 1 .018 3.96l-14.244 32.884z" fill="#078161" mask="url(#h)"/></g><g transform="translate(80.545 164.168)"><mask id="j" fill="#fff"><use xlink:href="#i"/></mask><path d="M53.298-2.867l-2.133 29.259c-.146 2.006-2.575 2.92-4.007 1.508L27.252 8.295 12.103 29.866c-1.137 1.618-3.641 1.204-4.195-.696L.2 2.732S8.853-6.55 26.72-7.098c17.866-.55 26.58 4.231 26.58 4.231" fill="#078161" mask="url(#j)"/></g><g><path d="M178.853 298.808c-1.487 0-2.998-.225-4.49-.7-7.786-2.478-12.09-10.798-9.612-18.583l8.182-25.712c2.477-7.786 10.799-12.09 18.584-9.612 7.786 2.478 12.09 10.797 9.613 18.582l-8.183 25.713c-2.002 6.293-7.824 10.312-14.094 10.312" fill="#00A27C"/><path fill="#00A27C" d="M175.678 264.43l-42.19-65.502 23.1-14.875 42.19 65.5z"/><path d="M188.124 304.648c-4.003 6.253-13.158 3.427-20.961-1.565-7.804-4.993-12.104-17.318-8.102-23.572 4.002-6.253 12.547-9.885 20.882-3.828 9.381 6.817 12.183 22.712 8.18 28.965" fill="#F4D4C4"/><path d="M79.456 324.113c-2.166 0-4.364-.477-6.445-1.485-21.4-10.376-37.515-28.582-47.896-54.113-3.078-7.568.564-16.198 8.133-19.275 7.568-3.078 16.2.563 19.278 8.132 7.542 18.548 18.778 31.547 33.396 38.635 7.352 3.565 10.422 12.413 6.857 19.765-2.556 5.272-7.832 8.341-13.323 8.341" fill="#00A27C"/><path d="M39.93 280.493c-4.522 0-8.949-2.23-11.574-6.318l-.999-1.558c-5.168-8.058-5.373-18.468-.577-26.716l31.902-62.782c3.437-6.765 11.705-9.461 18.47-6.025 6.765 3.436 9.463 11.705 6.026 18.468l-32.093 63.16.394.613c4.098 6.385 2.245 14.882-4.14 18.98a13.683 13.683 0 0 1-7.408 2.178" fill="#00A27C"/><path d="M88.602 332.616c-6.955 2.598-12.58-5.158-15.822-13.835-3.243-8.678.719-21.116 7.675-23.715 6.955-2.598 15.97-.372 18.998 9.476 3.409 11.082-3.895 25.475-10.85 28.074" fill="#F4D4C4"/><path d="M173.652 284.782l27.044 29.98c4.528 5.019 2.11 13.05-4.435 14.737l-90.604 23.157a8.998 8.998 0 0 1-10.334-4.772L79.745 315.91c-2.475-5.08.293-11.158 5.75-12.627l79.137-21.161a8.998 8.998 0 0 1 9.02 2.661" fill="#A6A8AB"/><path d="M196.26 326.454l-90.603 23.157a8.997 8.997 0 0 1-10.334-4.772l-15.577-31.976a8.976 8.976 0 0 1-.77-2.416 8.913 8.913 0 0 0 .77 5.46l15.577 31.977a8.997 8.997 0 0 0 10.334 4.773l90.604-23.158c4.797-1.235 7.372-5.881 6.625-10.25-.568 3.3-2.943 6.256-6.625 7.205" fill="#929497"/><path d="M95.323 344.84a8.997 8.997 0 0 0 10.334 4.771l90.603-23.157c3.683-.95 6.059-3.906 6.627-7.205a8.9 8.9 0 0 0-2.19-4.487l-27.045-29.98a8.998 8.998 0 0 0-9.02-2.662l-79.136 21.162c-3.547.954-5.945 3.857-6.52 7.165.142.816.385 1.628.77 2.416l15.577 31.976z" fill="#BBBDBF"/><path d="M130.218 162.996l-2.888 27.813c-.198 1.906-2.539 2.706-3.862 1.32l-18.392-19.262-15.064 20.11c-1.13 1.509-3.504 1.04-3.976-.785l-6.57-25.414s8.515-8.592 25.553-8.592c17.037 0 25.2 4.81 25.2 4.81" fill="#F1F1F2"/><path d="M166.654 77.78a18.92 18.92 0 0 1 .078 3.58c.06 28.641-20.674 53.464-48.67 56.702l-29.27 3.385c-28.052 3.243-53.905-16.193-60.33-44.1-.41-1.129-.655-2.279-.796-3.495l-3.705-32.033C22.81 51.861 29.78 39.9 41.994 28.675 77.448-4.131 95.75-6.36 137.88 17.587c14.399 8.146 23.917 18.203 25.069 28.16 2.438 21.079 1.266 10.955 3.705 32.033" fill="#41345B"/><path d="M150.107 99.54l-4.094.474c-4.815.557-9.396 5.067-10.11 10.027l-1.962 12.616c-.717 4.961 2.56 8.564 7.374 8.006l4.15-.48c4.813-.557 9.339-5.06 10.11-10.026l1.905-12.612c.772-4.964-2.56-8.56-7.373-8.004M48.743 111.262l4.15-.48c4.813-.557 10.247 2.795 12.131 7.454l4.735 11.843c1.885 4.66-.539 8.921-5.352 9.478l-4.094.473c-4.814.556-10.303-2.789-12.188-7.449l-4.734-11.843c-1.885-4.659.537-8.92 5.352-9.476" fill="#FAE6DD"/><path d="M142.867 91.24a14.4 14.4 0 0 0-.529-2.631c-11-51.485-89.536-42.122-88.472 10.23-.063.905-.072 1.803.03 2.688 1.838 15.879 2.766 23.9 4.595 39.723.864 7.468 7.136 15.152 16.5 21.471 27.252 18.432 38.988 17.132 61.36-7.096 7.677-8.288 11.975-17.195 11.11-24.662l-4.594-39.723" fill="#FAE6DD"/><path d="M104.678 150.822c4.98-.576 8.674-4.03 8.245-7.738-.429-3.705-4.82-6.281-9.8-5.705-4.924.57-8.612 4.08-8.184 7.786.43 3.706 4.815 6.226 9.74 5.657" fill="#F4D4C4"/><path d="M75.783 85.204c9.104 1.64 16.125 9.012 15.745 16.401-.427 7.45-8.133 12.097-17.183 10.451-9.104-1.637-16.123-9.01-15.696-16.46.38-7.388 8.076-12.092 17.134-10.392M118.551 80.259c-8.433 3.667-13.586 12.448-11.531 19.555 2.062 7.161 10.623 9.928 19.115 6.254 8.435-3.666 13.642-12.453 11.525-19.608-2.056-7.107-10.624-9.93-19.109-6.201M102.662 133.394c4.936-7.745 12.596-8.407 22.923-2.032 3.243 1.867 6.548 5.241 9.915 2.834-8.556 13.772-26.139 16.87-31.833 7.885-3.436 10.04-21.32 11.043-32.737-.419 3.827 1.575 6.274-2.464 8.952-5.016 8.653-8.57 16.207-9.667 22.78-3.252" fill="#41345B"/><path d="M70.553 96.237c15.422-1.447 24.688 3.536 23.27 15.026-1.42 11.488-7.495 18.583-19.225 19.939-11.785 1.363-20.678-6.692-22.564-17.181-1.886-10.49 3.044-16.33 18.52-17.784M124.999 89.941c-15.4 2.117-23.284 9.083-19.281 19.946 4.004 10.862 11.54 16.383 23.325 15.02 11.73-1.356 18.604-11.235 17.991-21.871-.558-10.644-6.692-15.204-22.035-13.095" fill="#FAE6DD"/><path d="M53.955 106.399c-1.332 4.47.528 10.87 2.551 14.784 7.315 13.788 27.541 10.272 32.985-2.3 2.647-6.192 3.18-14.664-3.137-18.867-5.59-3.727-29.447-3.491-32.399 6.383m-9.144.44c-1.618-8.167-2.95-7.565 6.365-9.931 11.275-2.874 23.697-4.534 35.245-2.617 6.92 1.162 9.462 1.82 11.897 1.539 2.434-.283 4.76-1.503 11.23-4.214 10.808-4.502 23.281-5.72 34.913-5.496 9.664.173 8.23-.11 8.464 8.218.058.497-.223.978-.58 1.3-.305.26-.556.513-.869.716-2.017 1.468-1.716 4.068-1.68 6.306-.004 14.522-7.557 24.364-23.006 24.582-10.02.148-18.044-6.212-23.03-16.848-.802-1.59-2.239-6.749-4.54-6.763-2.237.539-2.459 5.89-2.82 7.614-2.428 11.494-8.788 19.517-18.632 21.665-15.038 3.308-24.636-4.551-27.954-18.69-.532-2.179-.777-4.786-3.077-5.754a9.444 9.444 0 0 1-1.066-.493 1.757 1.757 0 0 1-.86-1.134m99.11-10.844c-5.126-8.939-28.353-3.73-32.946 1.174-5.245 5.54-2.792 13.667 1.255 19.085 8.113 11.003 28.61 9.811 32.583-5.282 1.13-4.277 1.427-10.928-.893-14.977" fill="#00A78C"/><path d="M79.344 115.515c2.49-.288 4.245-2.565 3.963-4.999-.282-2.434-2.51-4.25-5-3.963-2.434.282-4.245 2.565-3.963 5 .282 2.433 2.565 4.245 5 3.962M121.284 110.666c2.49-.288 4.245-2.565 3.963-4.999-.282-2.434-2.51-4.252-5-3.963-2.434.281-4.189 2.558-3.907 4.993.281 2.433 2.51 4.251 4.944 3.969" fill="#41345B"/></g><g><g transform="translate(155.98 281.576)"><mask id="l" fill="#fff"><use xlink:href="#k"/></mask><path d="M5.942 10.632a4.93 4.93 0 0 1-5.3-6.448c2.573-7.74 7.875-12.813 14.93-14.28a4.932 4.932 0 0 1 2.01 9.655c-4.447.925-6.576 4.717-7.579 7.734a4.934 4.934 0 0 1-4.06 3.339" fill="#929497" mask="url(#l)"/></g><g transform="translate(79.121 297.942)"><mask id="n" fill="#fff"><use xlink:href="#m"/></mask><path d="M18.965 11.375a4.92 4.92 0 0 1-3.87-1.872C10.743 4.006 7.16 4.731 4.23 6.167A4.932 4.932 0 1 1-.108-2.69c8.426-4.123 16.571-1.968 22.937 6.076a4.93 4.93 0 0 1-3.864 7.99" fill="#929497" mask="url(#n)"/></g></g><g><path d="M157.534 292.132a4.91 4.91 0 0 1-2.13-.488 4.93 4.93 0 0 1-2.313-6.578c3.53-7.354 9.43-11.715 16.613-12.28a4.931 4.931 0 0 1 .775 9.831c-4.529.357-7.12 3.85-8.495 6.716a4.933 4.933 0 0 1-4.45 2.799M100.698 308.402a4.92 4.92 0 0 1-3.87-1.871c-4.35-5.496-7.935-4.772-10.866-3.337a4.932 4.932 0 0 1-4.336-8.858c8.427-4.124 16.573-1.966 22.936 6.077a4.929 4.929 0 0 1-3.864 7.989" fill="#F4D4C4"/><g transform="translate(99.047 287.269)"><mask id="p" fill="#fff"><use xlink:href="#o"/></mask><path d="M53.27 2.708c.142-1.497-1.452-2.535-2.77-1.81-9.886 5.441-31.997 19.76-42.335 26.1a4.182 4.182 0 0 0-1.417-.69c-1.38-.376-2.777-.18-3.935.556C.949 28.05.465 30.117.36 30.722A3.59 3.59 0 0 0 .417 32.2c1.505 6.02 8.378 13.828 18.604 17.105 7.323 2.346 14.715 2.795 20.248 2.663 5.213-.125 8.776-.765 9.072-.82a3.587 3.587 0 0 0 2.914-3.917c-.108-.987-.386-2.496-1.07-3.835L53.27 2.708z" fill="#929497" mask="url(#p)"/></g><path d="M109.762 329.03c9.195 5.779 21.149 5.77 29.286 5.13a3.103 3.103 0 0 0 2.847-2.818l8.287-42.953c.311-1.473-1.152-2.686-2.545-2.115-13.492 5.518-48.96 23.421-50.819 23.53 0 0 .238 11.24 12.944 19.226" fill="#F8B65F"/><path d="M138.061 336.008c-4.307.08-16.137-.228-27.245-5.255-9.783-4.426-15.716-12.971-16.52-19.124a3.581 3.581 0 0 1 .113-1.474c.173-.59.89-2.587 2.878-3.551 1.235-.599 2.645-.636 3.971-.103 2.637 1.062 2.832 3.858 2.925 5.203.007.096.014.21.024.329 4.614.201 5.366 4.978 5.622 6.61l.005.032c1.299-.045 2.267.353 2.898.751 1.691 1.066 2.2 2.785 2.46 4.017 5.575-2.024 8.555.978 9.984 2.681 1.788-1.284 3.799-1.863 5.859-1.686 1.614.14 3.023.727 4.152 1.406a5.64 5.64 0 0 1 2.714-.784 4.44 4.44 0 0 1 3.246 1.289c1.7 1.666 1.938 4.5 1.929 6.039a3.589 3.589 0 0 1-3.344 3.557c-.114.009-.702.046-1.67.063" fill="#F7921E"/></g><g><g transform="translate(96.2 285.846)"><mask id="r" fill="#fff"><use xlink:href="#q"/></mask><path d="M47.544 14.568c-.16 1.678-2.766 2.803-5.822 2.512-3.057-.292-5.404-1.887-5.245-3.565.16-1.678 2.766-2.803 5.822-2.512 3.056.29 5.404 1.888 5.245 3.565" fill="#EE4036" mask="url(#r)"/></g><g transform="translate(96.2 285.846)"><mask id="t" fill="#fff"><use xlink:href="#s"/></mask><path d="M47.612 3.998C47.453 5.676 44.846 6.8 41.79 6.51c-3.056-.29-5.404-1.887-5.244-3.564.159-1.677 2.765-2.803 5.822-2.512 3.055.29 5.404 1.886 5.244 3.564" fill="#EE4036" mask="url(#t)"/></g><g transform="translate(96.2 285.846)"><mask id="v" fill="#fff"><use xlink:href="#u"/></mask><path d="M50.631 28.957c-.269 2.831-4.665 4.727-9.82 4.236-5.154-.49-9.114-3.181-8.845-6.01.268-2.83 4.664-4.728 9.819-4.237 5.154.49 9.115 3.182 8.846 6.011" fill="#EE4036" mask="url(#v)"/></g><g transform="translate(96.2 285.846)"><mask id="x" fill="#fff"><use xlink:href="#w"/></mask><path d="M26.797 18.822c-.224 2.366-3.899 3.951-8.207 3.541-4.308-.41-7.618-2.659-7.393-5.024.224-2.365 3.899-3.95 8.207-3.54 4.308.41 7.618 2.658 7.393 5.023" fill="#EE4036" mask="url(#x)"/></g><g transform="translate(96.2 285.846)"><mask id="z" fill="#fff"><use xlink:href="#y"/></mask><path d="M33.337 32.319c.024 1.269-1.496 2.328-3.394 2.362-1.898.035-3.456-.966-3.48-2.235-.023-1.27 1.496-2.328 3.395-2.362 1.898-.035 3.456.965 3.48 2.235" fill="#41345B" mask="url(#z)"/></g><g transform="translate(96.2 285.846)"><mask id="B" fill="#fff"><use xlink:href="#A"/></mask><path d="M52.884 20.115c.023 1.269-1.497 2.326-3.395 2.362-1.898.035-3.456-.966-3.48-2.236-.023-1.27 1.497-2.327 3.395-2.361 1.898-.036 3.456.965 3.48 2.235" fill="#41345B" mask="url(#B)"/></g><g transform="translate(96.2 285.846)"><mask id="D" fill="#fff"><use xlink:href="#C"/></mask><path d="M20.41 25.85c.023 1.269-1.497 2.327-3.395 2.362-1.898.034-3.456-.965-3.479-2.235-.023-1.27 1.496-2.328 3.395-2.363 1.898-.034 3.455.966 3.479 2.235" fill="#41345B" mask="url(#D)"/></g><g transform="translate(96.2 285.846)"><mask id="F" fill="#fff"><use xlink:href="#E"/></mask><path d="M32.074 15.937c.017.915-1.078 1.677-2.446 1.702-1.368.026-2.49-.696-2.507-1.61-.018-.915 1.078-1.678 2.446-1.703 1.368-.025 2.49.696 2.507 1.61" fill="#41345B" mask="url(#F)"/></g><g transform="translate(96.2 285.846)"><mask id="H" fill="#fff"><use xlink:href="#G"/></mask><path d="M49.236 6.384c.017.915-1.078 1.677-2.447 1.702-1.367.026-2.49-.696-2.507-1.61-.017-.915 1.078-1.677 2.446-1.704 1.369-.024 2.49.697 2.508 1.612" fill="#41345B" mask="url(#H)"/></g></g><g><path fill="#754C28" d="M333.531 121.603h-85.277V42.597h85.277z"/><path d="M325.959 232.625h-42.836c-10.11 0-18.305-8.195-18.305-18.303v-80.944c0-10.109 8.195-18.303 18.305-18.303h42.836c10.109 0 18.304 8.194 18.304 18.303v80.944c0 10.108-8.195 18.303-18.304 18.303" fill="#CC1F30"/><path d="M262.6 222.133c-7.224-8.625-12.049-19.382-14.341-31.971l9.802-1.784c1.98 10.869 6.076 20.074 12.177 27.36l-7.639 6.395z" fill="#EC1C24"/><path d="M209.938 149.38a3.583 3.583 0 0 1-3.713-2.495c-.594-1.886-.141-12.898 2.025-8.294 2.166 4.602 6.184 1.957 6.184 1.957a2.299 2.299 0 0 0 1.502-2.876l-1.8-5.753a3.582 3.582 0 0 1 6.836-2.139l1.8 5.754c1.555 4.97-1.221 10.283-6.188 11.846l-5.867 1.846c-.259.081-.52.133-.779.154" fill="#F4D4C4"/><path d="M220.554 125.46a4.048 4.048 0 1 1-8.068.676 4.048 4.048 0 0 1 8.068-.675" fill="#41345B"/><path d="M191.098 150.763a3.284 3.284 0 0 1-3.316-2.04c-.104-.256-.278-.684-5.845-20.438a5.558 5.558 0 0 1 3.597-6.787 3.284 3.284 0 1 1 2.943 5.79c3.058 10.845 5.173 18.274 5.436 19.09a3.283 3.283 0 0 1-2.815 4.385" fill="#FAE6DD"/><path d="M195.875 149.16a3.284 3.284 0 0 1-3.317-2.039c-.104-.257-.278-.686-5.844-20.439a5.559 5.559 0 0 1 3.596-6.787 3.283 3.283 0 0 1 2.944 5.789c3.057 10.843 5.172 18.272 5.436 19.09a3.285 3.285 0 0 1-2.815 4.386" fill="#FAE6DD"/><path d="M200.589 147.556a3.284 3.284 0 0 1-3.317-2.039c-.11-.27-.274-.677-5.845-20.438a5.558 5.558 0 0 1 3.597-6.788 3.28 3.28 0 0 1 4.154 2.075 3.283 3.283 0 0 1-1.21 3.714c3.105 11.013 5.173 18.274 5.435 19.09a3.283 3.283 0 0 1-2.814 4.386" fill="#FAE6DD"/><path d="M205.745 143.97a3.285 3.285 0 0 1-3.463-2.504 3155.146 3155.146 0 0 0-4.913-20.191c-1.876-6.133-.035-11.238 4.817-13.37 2.646-1.338 5.453-1.584 7.915-.69 1.789.65 4.249 2.207 5.815 5.946l.1.236 1.385 5.636a3.283 3.283 0 0 1-6.376 1.567l-1.258-5.116c-.37-.814-.984-1.763-1.906-2.097-.964-.351-2.036.026-2.765.404l-.222.104c-1.716.73-2.121 2.588-1.206 5.522l.052.186c1.486 5.981 3.51 14.355 4.947 20.327a3.283 3.283 0 0 1-2.922 4.04" fill="#FAE6DD"/></g><g transform="translate(182.31 124.32)"><mask id="J" fill="#fff"><use xlink:href="#I"/></mask><path mask="url(#J)" d="M.304 6.563l6.741 24.024 21.422-5.76L22.478.132z"/></g><g><path d="M193.592 142.906a3.283 3.283 0 0 1-3.43-2.375l-3.586-12.636a3.283 3.283 0 0 1-1.042-6.398 5.597 5.597 0 0 1 4.363.359 5.594 5.594 0 0 1 2.755 3.402l3.828 13.48a3.281 3.281 0 0 1-2.888 4.168" fill="#FAE6DD"/><path d="M198.369 141.303a3.284 3.284 0 0 1-3.43-2.375l-3.587-12.636a3.284 3.284 0 0 1-1.042-6.397 5.594 5.594 0 0 1 4.363.358 5.594 5.594 0 0 1 2.756 3.402l3.827 13.48a3.282 3.282 0 0 1-2.887 4.168" fill="#FAE6DD"/><path d="M203.083 139.699a3.283 3.283 0 0 1-3.43-2.375l-3.587-12.636a3.283 3.283 0 0 1-1.042-6.398 5.59 5.59 0 0 1 4.364.36 5.59 5.59 0 0 1 2.755 3.401l3.827 13.48a3.282 3.282 0 0 1-2.887 4.168" fill="#FAE6DD"/><path fill="#F4D4C4" d="M296.159 141.98h-18.425v-35.453h18.425z"/><path d="M243.044 509.961l39.182-226.935c0-7.391-15.87-21.338-23.263-21.338-7.393 0-10.107 2.32-13.211 13.184l-23.735 233.73c-7.334.562-8.413 1.187-9.445 1.861 10.145-.1 20.31-.344 30.472-.502M318.375 511.68c-1.595-1.187-3.317-2.264-11.045-4.162l20.17-224.886c.517-13.71-5.634-21.773-13.027-21.773-7.393 0-21.163 14.941-21.163 22.333l-6.831 226.711c10.658.18 21.297.685 31.896 1.777" fill="#A6A8AB"/></g><g fill="#463D5D"><path d="M254.404 167.198c0-8.849 7.962-22.844 17.033-22.844 9.071 0 15.816 13.995 15.816 22.844 0 8.851-7.353 16.024-16.425 16.024-9.07 0-16.424-7.173-16.424-16.024M285.447 145.644c10.48 0 18.977-8.495 18.977-18.976 0-.058-.004-.116-.005-.175h-37.946c0 .06-.004.117-.004.175 0 10.481 8.496 18.976 18.978 18.976"/></g><g transform="translate(268.42 126.456)"><mask id="L" fill="#fff"><use xlink:href="#K"/></mask><path d="M.623.038C.62.098.617.156.617.214c0 10.427 8.413 18.89 18.823 18.974h.31c10.41-.083 18.822-8.547 18.822-18.974 0-.058-.005-.117-.005-.176H.623z" mask="url(#L)"/></g><g><path d="M245.706 275.585c1.474 7.038 26.824 9.762 26.824 9.762l31.381.372s23.566-.59 23.594-3.342c.11-11.008-1.51-21.794-4.862-31.436l-70.45-.793c-3.425 5.933-7.375 14.47-6.487 25.437" fill="#A6A8AB"/><path d="M257.873 240.864c-.06.104-.13.21-.193.315.065-.105.133-.21.196-.315h-.003zM257.345 241.719c.119-.182.226-.361.335-.54-.112.18-.215.359-.335.54" fill="#939598"/><path d="M257.914 166.75c19.351-2.154 38.808-2.586 58.268-3.017l.024-2.122c0-5.57 20.108-20.527 20.108-20.527s-6.936-14.513-19.19-14.59H304.42c0 .058.004.116.004.174 0 10.48-6.046 18.976-16.527 18.976-10.48 0-17.897-8.496-17.897-18.976 0-.058.004-.116.004-.174h-6.91c-10.913-.308-16.415 9.906-16.415 9.906l10.943 24.394.292 5.956zM315.529 220.01l.57-49.16c-19.316.427-38.629.862-57.837 2.98l2.31 47.11c0 6.507.627 11.461-1.073 16.477-.905 2.67-5.349 9.339-7.306 12.73l70.45.794c-.903-2.6-4.85-11.102-5.497-13.05-1.829-5.507-1.617-11.692-1.617-17.881" fill="#FAAF40"/><path d="M333.793 43.372c0 23.696-19.211 42.905-42.91 42.905-23.699 0-42.91-19.209-42.91-42.905 0-23.695 19.211-42.904 42.91-42.904 23.699 0 42.91 19.209 42.91 42.904" fill="#754C28"/><path d="M258.106 71.207c.131 5.662-3.183 12.043-8.24 11.459-3.463-.4-6.35-6.356-6.481-12.016-.131-5.662 2.85-8.403 6.337-8.483 3.484-.08 8.253 3.38 8.384 9.04" fill="#E8C4B3"/><path d="M327.368 52.19c.062-.767.076-1.536-.006-2.315-.652-45.403-66.945-49.916-74.844-5.45a12.513 12.513 0 0 0-.426 2.28l-1.248 15.383c-1.367 16.838 3.304 33.71 13.556 47.138 5.451 7.14 13.802 10.12 20.832 9.688 8.456-.52 16.211-4.928 24.144-12.462 10.813-10.27 15.618-25.015 16.824-39.877l1.168-14.386z" fill="#F4D4C4"/><path d="M333.84 76.455c-2.038 6.359-7.485 12.124-11.4 10.87-3.915-1.254-4.625-9.53-2.588-15.89 2.038-6.358 6.418-8.263 10.333-7.008 3.915 1.254 5.692 5.669 3.654 12.028" fill="#F4D4C4"/></g><g><g transform="translate(249.206 11.182)"><mask id="N" fill="#fff"><use xlink:href="#M"/></mask><path d="M101.647-3.706c0 22.582-18.31 40.889-40.894 40.889-22.586 0-40.895-18.307-40.895-40.89 0-22.582 18.31-40.889 40.895-40.889 22.585 0 40.894 18.307 40.894 40.89" fill="#754C28" mask="url(#N)"/></g><g transform="translate(249.206 11.182)"><mask id="P" fill="#fff"><use xlink:href="#O"/></mask><path d="M126.938 25.404c0 17.772-14.41 32.18-32.183 32.18-17.775 0-32.183-14.408-32.183-32.18S76.98-6.775 94.755-6.775c17.774 0 32.183 14.407 32.183 32.18" fill="#754C28" mask="url(#P)"/></g><g transform="translate(249.206 11.182)"><mask id="R" fill="#fff"><use xlink:href="#Q"/></mask><path d="M37.717.567c0 20.798-16.862 37.657-37.662 37.657-20.801 0-37.663-16.86-37.663-37.657 0-20.798 16.862-37.657 37.663-37.657 20.8 0 37.662 16.859 37.662 37.657" fill="#754C28" mask="url(#R)"/></g></g><g><path d="M262.042 71.53c2.14 0 3.852-1.76 3.852-3.852 0-2.092-1.712-3.852-3.852-3.852-2.093 0-3.852 1.76-3.852 3.852 0 2.092 1.759 3.852 3.852 3.852M293.7 72.39c2.142 0 3.853-1.76 3.853-3.853 0-2.092-1.711-3.851-3.852-3.851-2.092 0-3.852 1.759-3.852 3.851s1.76 3.852 3.852 3.852" fill="#41345B"/><path d="M308.745 60.905c-.763 0-1.511-.37-1.963-1.055-4.883-7.394-14.54-7.146-14.642-7.137a2.33 2.33 0 0 1-2.431-2.265 2.35 2.35 0 0 1 2.265-2.431c.497-.02 12.408-.327 18.73 9.244a2.35 2.35 0 0 1-1.96 3.644M257.163 56.522a2.341 2.341 0 0 1-1.707-.735 2.345 2.345 0 0 1 .085-3.311c.271-.258 6.768-6.32 16.152-5.4a2.35 2.35 0 0 1-.46 4.676c-7.198-.71-12.408 4.085-12.46 4.133a2.345 2.345 0 0 1-1.61.637" fill="#8A5D3B"/><path d="M280.218 103.898c5.264.159 9.857-2.962 11.839-7.512l-23.2-.703c1.702 4.661 6.098 8.055 11.361 8.215" fill="#FFF"/><path d="M294.029 60.148a9.26 9.26 0 0 0-6.293 2.453 9.252 9.252 0 0 0-3.008 6.466c-.22 5.133 3.778 9.488 8.911 9.709 5.114.217 9.49-3.779 9.71-8.912.22-5.133-3.779-9.488-8.912-9.707a8.737 8.737 0 0 0-.408-.01m.016 22.282c-.187 0-.374-.004-.562-.012-7.141-.306-12.703-6.364-12.398-13.506a12.876 12.876 0 0 1 4.186-8.995 12.857 12.857 0 0 1 9.321-3.401c7.142.305 12.705 6.364 12.399 13.504-.297 6.954-6.05 12.41-12.946 12.41M262.496 58.798c-4.957 0-9.092 3.922-9.306 8.92-.22 5.133 3.778 9.488 8.911 9.707a9.237 9.237 0 0 0 6.7-2.445 9.256 9.256 0 0 0 3.01-6.465v-.001a9.46 9.46 0 0 0-.11-1.887c-.697-4.342-4.399-7.632-8.802-7.82a9.536 9.536 0 0 0-.403-.009m.018 22.281c-.19 0-.378-.003-.568-.011-7.142-.307-12.705-6.364-12.399-13.506.306-7.141 6.383-12.704 13.508-12.396 6.125.261 11.276 4.839 12.246 10.884.14.865.19 1.747.152 2.62a12.881 12.881 0 0 1-4.185 8.997 12.879 12.879 0 0 1-8.754 3.412" fill="#404041"/><path d="M281.632 68.85c-3.437-1.058-7.008-.207-7.043-.198l-1.469-2.404c.21-.053 5.2-1.283 10.256.274l-1.744 2.328z" fill="#404041"/><path d="M256.492 164.434c-2.655-5.66-1.51-12.745-.508-18.677.963-5.704 1.684-11.921 4.181-17.25.063-.614.2-1.214.446-1.783-5.476-.349-11.446 4.97-14.188 10.104l-9.983 16.683c6.95 5.325 13.907 10.65 20.708 16.163l2.098-3.51c-1.14-.063-2.231-.616-2.754-1.73" fill="#F7921E"/><path d="M298.262 156.171H265.394c-7.484 0-13.551 6.066-13.551 13.55 0 7.483 6.067 13.549 13.551 13.549H298.262c7.484 0 13.552-6.066 13.552-13.55 0-7.483-6.068-13.549-13.552-13.549" fill="#FAAF40"/></g><g transform="translate(274.825 189.785)"><mask id="T" fill="#fff"><use xlink:href="#S"/></mask><path d="M6.145.46C3.924.485 1.522 1.207.332 3.929a3.115 3.115 0 0 0 2.79 4.355h.12A3.125 3.125 0 0 0 5.89 6.711c.365-.038 1.24-.04 2.953.387a3.111 3.111 0 1 0 1.51-6.037C9.536.856 8.02.478 6.38.46h-.234z" mask="url(#T)"/></g><g><path d="M321.888 175.176c8.302-2.719 16.585-5.494 24.87-8.264l-10.385-25.344c-3.234-6.43-11.068-9.023-17.5-5.788-6.43 3.234-9.022 11.067-5.789 17.498l5.29 13.157 3.514 8.741z" fill="#FAAF40"/><path d="M321.39 218.907c-18.946-36.73-15.04-79.03-13.254-91.927a4.314 4.314 0 0 1 4.436-3.718l2.614.096a3.042 3.042 0 0 1 2.9 3.476l-.094.646c-1.612 12.743-4.963 53.486 12.252 86.861l-8.854 4.566z" fill="#EC1C24"/><path d="M352.602 224.41l-65.075-.622a4.37 4.37 0 0 1-4.329-4.411l.395-41.39a4.37 4.37 0 0 1 4.412-4.328l65.076.622a4.37 4.37 0 0 1 4.329 4.411l-.396 41.39a4.37 4.37 0 0 1-4.412 4.328" fill="#A6A8AB"/><g transform="translate(286.923 177.688)"><mask id="V" fill="#fff"><use xlink:href="#U"/></mask><path fill="#404041" mask="url(#V)" d="M64.27.41l-.623 38.864-63.58 1.537L.69 1.946z"/></g><path fill="#FFF" d="M348.633 180.527l-.371 38.868-61.511-.587.37-38.867z"/><path d="M290.45 184.853l-.2 20.759a1.713 1.713 0 0 1-1.729 1.697l-5.231-.05.231-24.185 5.231.05a1.713 1.713 0 0 1 1.697 1.73" fill="#D0D2D3"/><path d="M282.003 200.42a1.403 1.403 0 1 1-2.807-.027 1.403 1.403 0 0 1 2.807.027m-4.333-.082a3.136 3.136 0 0 0 3.107 3.165c.696.007 5.653.096 5.653.096l-.476-6.319-5.118-.048a3.135 3.135 0 0 0-3.166 3.106" fill="#D1D3D4"/><path d="M294.673 212.95l.26-27.232M298.759 212.99l.26-27.233M302.844 213.028l.26-27.232M306.93 213.067l.26-27.232M311.016 213.106l.26-27.232M315.101 213.145l.26-27.232M319.187 213.184l.26-27.232M323.273 213.223l.26-27.232M327.358 213.262l.26-27.232M331.444 213.301l.26-27.232M335.53 213.34l.26-27.232M339.615 213.379l.26-27.232" stroke="#262261" stroke-width="1.072"/><path d="M353.83 201.613l-15.504-37.53s-2.84 1.186-5.379 2.078c-4.229 1.656-8.47 3.278-12.702 4.928l13.765 34.24-25.782-4.938c-.749 9.375-.336 13.313-1.375 22.668 0 0 25.644 4.079 38.233 6.06 8.743 1.05 12.474-8.974 12.474-8.974s.587-9.946-3.73-18.532" fill="#F4D4C4"/><path d="M304.605 204.514c0 5.833-4.73 10.563-10.564 10.563s-10.563-4.73-10.563-10.563c0-5.834 4.73-10.563 10.563-10.563 5.834 0 10.564 4.73 10.564 10.563" fill="#E2C0B3"/><path d="M344.546 228.901a16.19 16.19 0 0 1-2.503-.195l-36.822-5.764-9.442-1.282c-8.626-2.331-12.784-5.893-11.41-12.608 1.373-6.715 8.692-11.182 16.355-9.979l44.924 8.163c7.66 1.204 12.825 6.533 11.453 13.248-1.224 5.978-5.862 8.417-12.555 8.417" fill="#F4D4C4"/><path d="M299.835 206.27c-.27 0-.547-.036-.82-.11l-20.732-5.655a3.125 3.125 0 0 1-.938-.433c-1.605-1.097-2.96-3.326-2.366-5.829a3.112 3.112 0 0 1 6.14.584l20.255 4.571c1.66.453 1.915 2.92 1.462 4.578a3.113 3.113 0 0 1-3.001 2.294" fill="#F4D4C4"/><path d="M292.307 208.987c-.196 0-.394-.019-.594-.057l-14.042-2.717a3.112 3.112 0 1 1 1.183-6.112l14.041 2.717a3.112 3.112 0 0 1-.588 6.169" fill="#F4D4C4"/><path d="M292.492 215.33c-.216 0-.435-.022-.654-.07l-13.846-2.96a3.112 3.112 0 1 1 1.303-6.088l13.845 2.961a3.112 3.112 0 0 1-.648 6.157" fill="#F4D4C4"/><path d="M295.78 221.66c-.234 0-.471-.026-.708-.082l-15.33-3.102a3.112 3.112 0 1 1 1.41-6.063l13.391 3.11a3.113 3.113 0 0 1 2.327 3.737c-.334 1.437.324 2.4-1.09 2.4" fill="#F4D4C4"/><path fill="#F4D4C4" d="M302.55 218.933h-13.62v-14.519h13.62z"/><path d="M275.951 252.524c0 .12-.122 1.156-.253 2.832" stroke="#808184" stroke-width=".9"/><path d="M275.464 259.294c-.202 4.983-.13 11.988 1.246 18.47" stroke="#808184" stroke-width=".9" stroke-dasharray="5.325600454235087,3.328800047588345"/><path d="M277.162 279.688c.24.929.512 1.841.815 2.73" stroke="#808184" stroke-width=".9"/><path d="M222.247 501.978s-24.994 10.807-26.145 12.839c-.425.75-1.076 1.991 3.467 2.559 16.279.661 38.049-2.56 38.049-2.56 2.933-.414 4.93-.939 4.93-2.099v-4.732c.01-.092.033-.18.033-.273l1.13-5.805c-9.168.5-12.316.527-21.464.07M333.098 515.01c-1.157-2.163-25.438-15.131-25.438-15.131-.31.02-.59.037-.83.054-8.613.612-11.597 1.86-20.297 1.464l-.095 6.747c0 .356.082.704.213 1.043v3.599c0 1.229 1.998 1.785 4.93 2.224 0 0 21.77 3.41 38.05 2.71 4.543-.602 3.893-1.915 3.467-2.71" fill="#A87C4F"/><path d="M248.259 190.162c-5.053-27.744 2.942-55.292 5.783-63.798a3.975 3.975 0 0 1 3.636-2.715l5.255-.187a2.28 2.28 0 0 1 1.682 3.005c-2.93 8.094-11.447 34.95-6.555 61.91l-9.801 1.785z" fill="#EC1C24"/><path d="M281.88 172.049c-.205-5.21-1.273-10.561-1.804-15.876h-14.682c-7.484 0-13.551 6.065-13.551 13.548s6.067 13.549 13.551 13.549h15.901c.386-3.73.735-7.464.586-11.221" fill="#FAAF40"/><path d="M277.097 286.168l-37.313 213.953M297.777 286.996l-6.157 211.91" stroke="#808184" stroke-width=".9" stroke-dasharray="4.800000190734863,3.00000011920929"/></g><g><g transform="translate(244.936 249.556)"><mask id="X" fill="#fff"><use xlink:href="#W"/></mask><path fill="#929497" mask="url(#X)" d="M92.827 7.781L-7.308 6.78l.122-12.243L92.95-4.462z"/></g><g transform="translate(244.936 249.556)"><mask id="Z" fill="#fff"><use xlink:href="#Y"/></mask><path fill="#D0D2D3" mask="url(#Z)" d="M44.696 7.3L26.93 7.122l.122-12.242 17.765.177z"/></g></g><g><path d="M216.02 116.835c-4.717 0-8.555 3.922-8.555 8.742s3.838 8.741 8.556 8.741c4.717 0 8.555-3.92 8.555-8.741 0-4.82-3.838-8.742-8.555-8.742m0 18.283c-5.159 0-9.356-4.28-9.356-9.541s4.197-9.542 9.356-9.542 9.356 4.281 9.356 9.542c0 5.262-4.197 9.54-9.356 9.54" fill="#FFF"/><path d="M216.02 110.616c-8.076 0-14.647 6.712-14.647 14.96 0 8.25 6.571 14.961 14.648 14.961s14.648-6.711 14.648-14.96c0-8.25-6.57-14.96-14.648-14.96m0 30.72c-8.519 0-15.449-7.07-15.449-15.76s6.93-15.76 15.449-15.76c8.518 0 15.448 7.07 15.448 15.76s-6.93 15.76-15.448 15.76" fill="#FFF"/><path d="M276.235 125.623s-2.11 33.24 9.712 33.24c11.82 0 12.202-33.489 12.202-33.489" stroke="#F1F1F2" stroke-width="3" stroke-linecap="round" stroke-dasharray="0.300000011920929,3.600000143051147"/></g></g></svg>