<?xml version="1.0" encoding="utf-8"?>
<!-- Generator: Adobe Illustrator 21.0.0, SVG Export Plug-In . SVG Version: 6.00 Build 0)  -->
<svg version="1.1" id="Layer_1" xmlns="http://www.w3.org/2000/svg" xmlns:xlink="http://www.w3.org/1999/xlink" x="0px" y="0px"
	 viewBox="0 0 141 156" style="enable-background:new 0 0 141 156;" xml:space="preserve">
<style type="text/css">
	.st0{fill:#44435D;}
	.st1{fill:#00B08D;}
	.st2{font-family:'HelveticaNeue-Medium';}
	.st3{font-size:2.6493px;}
	.st4{fill:#F4DCD1;}
	.st5{fill:#F9E5DC;}
	.st6{fill:#F5D5C5;}
	.st7{fill:#FAE6DC;}
	.st8{fill:#00A88D;}
</style>
<g>
	<g>
		<path id="Fill-1" class="st0" d="M64.8,133.5c0.5,0,1-0.2,1.3-0.5c0.3-0.3,0.5-0.8,0.5-1.3v-0.6v-3.5V127c0-0.5-0.2-1-0.5-1.3
			c-0.3-0.3-0.8-0.5-1.3-0.5h-0.9c-0.5,0-1,0.2-1.3,0.5c-0.3,0.3-0.5,0.8-0.5,1.3v3.4v1.3c0,0.5,0.2,1,0.5,1.3
			c0.3,0.3,0.8,0.5,1.3,0.5H64.8z M76,125.2h-0.9c-0.4,0-0.8,0.2-1.1,0.4c-0.3,0.3-0.4,0.7-0.4,1.1v1.3h4.2V127c0-0.5-0.2-1-0.5-1.3
			C77,125.4,76.5,125.2,76,125.2L76,125.2z M80.6,131.7c0,1.3-0.5,2.4-1.4,3.3c-0.8,0.8-2,1.4-3.3,1.4h-0.9c-1.2,0-2.3-0.5-3-1.3
			l0,0c-0.8-0.8-1.3-1.9-1.3-3v-5.3c0-1.2,0.5-2.3,1.3-3l0,0c0.8-0.8,1.9-1.3,3-1.3H76c1.3,0,2.4,0.5,3.3,1.4c0.8,0.8,1.4,2,1.4,3.3
			v3.7h-2.7h-0.1h-4.2v1.3c0,0.4,0.2,0.8,0.4,1.1c0.3,0.3,0.6,0.4,1.1,0.4H76c0.5,0,1-0.2,1.3-0.5c0.3-0.3,0.5-0.8,0.5-1.3H80.6z
			 M59.3,121.8v-2.8c1.5,0,2.8,1.3,2.8,2.8v1c0.6-0.2,1.2-0.4,1.8-0.4h0.9c1.3,0,2.4,0.5,3.3,1.4c0.8,0.8,1.3,2,1.3,3.3v0.6v3.5v0.6
			c0,1.3-0.5,2.4-1.3,3.3c-0.8,0.8-2,1.4-3.3,1.4h-0.9c-1.3,0-2.4-0.5-3.3-1.4c-0.8-0.8-1.4-2-1.4-3.3v-1.3V127v-4V121.8z M82,133.5
			v2.8c1.5,0,2.8-1.3,2.8-2.8v-7.4c0-0.3,0.1-0.5,0.3-0.7c0.2-0.2,0.4-0.3,0.6-0.3h2.1v-2.8h-2.1h0c-1,0-1.9,0.4-2.6,1.1
			c-0.7,0.7-1.1,1.6-1.1,2.6V133.5z M90.8,121.8v-2.8c1.6,0,2.8,1.3,2.8,2.8v0.6h0.8h0.9v2.8h-0.9h-0.8v7.1v1.2v0v2.8
			c-1.5,0-2.8-1.2-2.8-2.8v0v-1.2v-7.1h-0.8H89v-2.8h0.9h0.8V121.8z M54.9,123.2v-1.5c0-1.6,1.3-2.8,2.8-2.8v2.8v1.5v8.7v1.5v0
			c0,1.5-1.3,2.8-2.8,2.8v-2.8v0V132V123.2z"/>
		<path id="Fill-4" class="st1" d="M46,133.6L46,133.6h-0.9c-0.5,0-1-0.2-1.3-0.5c-0.3-0.3-0.5-0.8-0.5-1.3v-0.6v-3.4v-0.6
			c0-0.5,0.2-0.9,0.5-1.3c0.3-0.3,0.8-0.5,1.3-0.5H46c0.5,0,0.9,0.2,1.3,0.5c0.3,0.3,0.5,0.8,0.5,1.3v0.6v3.4v0.6
			c0,0.5-0.2,0.9-0.5,1.3C46.9,133.4,46.5,133.6,46,133.6L46,133.6z M40.5,131.8c0,1.3,0.5,2.4,1.3,3.2c0.8,0.8,2,1.3,3.2,1.3H46
			c1.2,0,2.4-0.5,3.2-1.3c0.8,0.8,1.9,1.3,3.2,1.3v-2.7c-0.5,0-1-0.2-1.3-0.5c-0.3-0.3-0.5-0.8-0.5-1.3v-0.6v-3.4v-0.6
			c0-0.5,0.2-0.9,0.5-1.3c0.3-0.3,0.8-0.5,1.3-0.5v-2.7c-1.2,0-2.4,0.5-3.2,1.3c-0.8-0.8-1.9-1.3-3.2-1.3h-0.9
			c-1.3,0-2.4,0.5-3.2,1.3c-0.8,0.8-1.3,2-1.3,3.2v0.6v3.4V131.8z"/>
		<text transform="matrix(1 0 0 1 96.3447 117.7647)" class="st0 st2 st3">TM</text>
	</g>
	<g>
		<path id="Fill-11" class="st0" d="M108,64.1c0,1-0.1,1.6,0,1.5C106.1,81.3,93.5,93,78.9,93H62.1C47.5,93,34.9,81.3,33,65.6
			c0.1,0.1,0-0.5,0-1.5V47.3c0-5.2,4.4-11,12.2-16.8c20.3-14.4,30.2-14.5,50.5,0c7.8,5.8,12.2,11.6,12.2,16.8V64.1z"/>
		<path id="Fill-12" class="st4" d="M96.7,74.7h-2.2c-2.6,0-5.3,2-6,4.5l-1.8,6.3C86.1,88,87.6,90,90.2,90h2.2c2.6,0,5.3-2,6-4.5
			l1.8-6.3C100.9,76.8,99.3,74.7,96.7,74.7"/>
		<path id="Fill-13" class="st4" d="M42.7,74.7H45c2.6,0,5.3,2,6,4.5l1.8,6.3c0.7,2.5-0.8,4.5-3.4,4.5h-2.2c-2.6,0-5.3-2-6-4.5
			l-1.8-6.3C38.6,76.8,40.1,74.7,42.7,74.7"/>
		<path id="Fill-14" class="st5" d="M94.2,70.2c0-0.7,0-1.2,0-1.5c-2.9-28.5-46.1-28.3-49,0c0.1,0.3,0,0.8,0,1.5v21.3
			c0,4.1,2.9,8.7,7.7,12.2c13.6,12,20.1,12.1,33.7,0c4.8-3.5,7.7-8.1,7.7-12.2V70.2z"/>
		<path id="Fill-16" class="st6" d="M69.7,99.1c2.5,0,4.6-1.7,4.6-3.8c0-2.1-2.1-3.8-4.6-3.8c-2.5,0-4.6,1.7-4.6,3.8
			C65.1,97.4,67.2,99.1,69.7,99.1"/>
		<path id="Fill-17" class="st0" d="M58.8,63c5,1.3,8.5,5.2,7.8,8.8c-0.7,3.6-5.4,5.4-10.4,4.1c-5-1.3-8.5-5.2-7.8-8.8
			C49.1,63.5,53.8,61.6,58.8,63"/>
		<path id="Fill-18" class="st0" d="M80.7,63c-5,1.3-8.5,5.2-7.8,8.8c0.7,3.6,5.4,5.4,10.4,4.1c5-1.3,8.5-5.2,7.8-8.8
			C90.4,63.5,85.7,61.6,80.7,63"/>
		<path id="Fill-19" class="st0" d="M69.7,89.7c3.3-3.7,7.6-3.6,13,0.3c1.7,1.2,3.3,3.1,5.4,2.1c-5.7,6.7-15.8,7.2-18.4,2.2
			c-2.6,5-12.7,4.5-18.4-2.2c2,1.1,3.7-0.9,5.4-2.1C62.1,86,66.4,85.9,69.7,89.7"/>
		<g id="Group-2_1_" transform="translate(6.944444, 47.194030)">
			<path id="Fill-20" class="st7" d="M47.9,21.5c8.4,0.2,13.1,3.3,11.6,9.1c-1.5,5.8-5.2,9.1-11.6,9.1c-6.4,0-10.7-4.7-11.1-10.2
				C36.4,24,39.5,21.3,47.9,21.5"/>
			<path id="Fill-21" class="st7" d="M77.7,21.5c-8.4,0.2-13.1,3.3-11.6,9.1c1.5,5.8,5.2,9.1,11.6,9.1c6.4,0,10.7-4.7,11-10.2
				C89.1,24,86.1,21.3,77.7,21.5"/>
			<path id="Fill-22" class="st8" d="M38.8,26.4c-1,2.2-0.4,5.7,0.4,7.8c3,7.6,13.8,7,17.4,0.8c1.8-3.1,2.6-7.4-0.5-10
				C53.4,22.7,40.9,21.4,38.8,26.4 M34,25.4c-0.4-4.4-1.1-4.2,4-4.9c6.1-0.8,12.7-0.9,18.7,0.8c3.6,1,4.9,1.5,6.2,1.5
				c1.3,0,2.6-0.5,6.2-1.5c6-1.7,12.6-1.6,18.7-0.8c5.1,0.7,4.3,0.4,4,4.9c0,0.3-0.2,0.5-0.4,0.7c-0.2,0.1-0.3,0.2-0.5,0.3
				c-1.1,0.7-1.1,2-1.3,3.2C88.6,37.3,84,42,75.8,41.2c-5.3-0.5-9.1-4.4-11.1-10.3c-0.3-0.9-0.8-3.7-2-3.9c-1.2,0.1-1.7,3-1.9,3.9
				c-2,5.9-5.8,9.8-11.1,10.3C41.6,42,37,37.3,36.1,29.6C36,28.4,36,27,34.9,26.3c-0.2-0.1-0.4-0.2-0.5-0.3
				C34.1,25.9,34,25.6,34,25.4 M86.8,26.4c-2.1-4.9-14.6-3.6-17.3-1.4c-3.1,2.6-2.3,6.9-0.5,10c3.6,6.2,14.4,6.8,17.4-0.8
				C87.2,32,87.7,28.6,86.8,26.4"/>
		</g>
		<path id="Fill-23" class="st0" d="M58.3,79.3c1.3,0,2.3-1,2.3-2.3c0-1.2-1-2.3-2.3-2.3c-1.2,0-2.3,1-2.3,2.3
			C56,78.3,57,79.3,58.3,79.3"/>
		<path id="Fill-24" class="st0" d="M81.2,79.3c1.3,0,2.3-1,2.3-2.3c0-1.2-1-2.3-2.3-2.3c-1.3,0-2.3,1-2.3,2.3
			C78.9,78.3,79.9,79.3,81.2,79.3"/>
	</g>
</g>
</svg>
