<?xml version="1.0" encoding="UTF-8"?>
<svg width="102px" height="34px" viewBox="0 0 102 34" version="1.1" xmlns="http://www.w3.org/2000/svg" xmlns:xlink="http://www.w3.org/1999/xlink">
    <!-- Generator: Sketch 46.2 (44496) - http://www.bohemiancoding.com/sketch -->
    <title>albert-logo-white</title>
    <desc>Created with Sketch.</desc>
    <defs>
        <polygon id="path-1" points="74.7445021 33.339039 74.7445021 0.04359843 0.00240821833 0.04359843 0.00240821833 33.339039 74.7445021 33.339039"></polygon>
        <polygon id="path-3" points="2.00845811e-21 0.0341877157 2.00845811e-21 25.7624896 21.8305955 25.7624896 21.8305955 0.0341877157 0 0.0341877157"></polygon>
    </defs>
    <g id="Page-1" stroke="none" stroke-width="1" fill="none" fill-rule="evenodd">
        <g id="hamburger-menu-1" transform="translate(-42.000000, -104.000000)">
            <g id="albert-logo-white" transform="translate(42.000000, 104.000000)">
                <g id="Page-1">
                    <g id="Group-3" transform="translate(26.453352, 0.032203)">
                        <mask id="mask-2" fill="white">
                            <use xlink:href="#path-1"></use>
                        </mask>
                        <g id="Clip-2"></g>
                        <path d="M0.00240821833,8.17825926 L0.00240821833,5.34057278 C0.00240821833,2.31376277 2.40751439,0.04359843 5.18252289,0.04359843 L5.18252289,5.34057278 L5.18252289,8.17825926 L5.18252289,24.6367802 L5.18252289,27.4744667 C5.18252289,30.3121532 2.77749082,32.7715168 0.00240821833,32.7715168 L0.00240821833,27.4744667 L0.00240821833,24.8259795 L0.00240821833,8.17825926 Z M66.4192914,5.52977208 L66.4192914,0.232797734 C69.3793251,0.232797734 71.599406,2.69208561 71.599406,5.52977208 L71.599406,6.66481637 L73.07946,6.66481637 L74.7445392,6.66481637 L74.7445392,11.9618665 L73.07946,11.9618665 L71.599406,11.9618665 L71.599406,25.3935774 L71.599406,27.663666 L71.599406,32.9607161 C68.8243975,32.9607161 66.4192914,30.6905518 66.4192914,27.663666 L66.4192914,25.3935774 L66.4192914,11.9618665 L64.9392374,11.9618665 L63.089133,11.9618665 L63.089133,6.66481637 L64.7542122,6.66481637 L66.4192914,6.66481637 L66.4192914,5.52977208 Z M50.1388463,27.663666 L50.1388463,32.9607161 C52.9139289,32.9607161 55.3189609,30.5013525 55.3189609,27.663666 L55.3189609,13.6644329 C55.3189609,13.0969108 55.5039862,12.7185122 55.8739626,12.3401893 C56.2439391,11.9618665 56.6140637,11.7726672 56.9840401,11.7726672 L60.8691262,11.7726672 L60.8691262,6.47561706 L56.9840401,6.47561706 C55.1339357,6.47561706 53.4689306,7.23241428 52.1739019,8.55665787 C50.8788732,9.88090146 50.1388463,11.5834679 50.1388463,13.4752336 L50.1388463,27.663666 Z M8.14263077,0.232797734 C10.9177134,0.232797734 13.3227454,2.69208561 13.3227454,5.52977208 L13.3227454,7.42153781 C14.4328229,7.04321498 15.5428263,6.66481637 16.6529038,6.66481637 L18.3179089,6.66481637 C20.722941,6.66481637 22.7580708,7.61073712 24.4230759,9.31330354 C25.9032039,10.8268222 26.828182,13.0969108 26.828182,15.5562744 L26.828182,16.6913187 L26.828182,23.3126124 L26.828182,24.4476567 C26.828182,26.9070203 25.9032039,28.9879854 24.4230759,30.6905518 C22.9430219,32.2039947 20.722941,33.339039 18.3179089,33.339039 L16.6529038,33.339039 C14.2477977,33.339039 12.212742,32.393194 10.5476628,30.6905518 C9.0676089,29.1771847 7.9576055,26.9070203 7.9576055,24.4476567 L7.9576055,21.9883688 L7.9576055,15.3670751 L7.9576055,7.79993642 L7.9576055,0.232797734 L8.14263077,0.232797734 Z M47.5487889,24.636856 C47.5487889,27.0961439 46.6236626,28.7987861 44.9586575,30.5013525 C43.4786036,32.0147954 41.2585227,33.1498397 38.8534906,33.1498397 L37.1884114,33.1498397 C34.9683305,33.1498397 32.9333489,32.2039189 31.6382462,30.6905518 C30.1581922,29.1771089 29.2332141,27.0961439 29.2332141,25.0151788 L29.2332141,14.9886765 C29.2332141,12.7185122 30.1581922,10.6375471 31.6382462,9.31330354 C33.1183742,7.79986065 35.1533557,6.8539399 37.1884114,6.8539399 L39.0385158,6.8539399 C41.4435479,6.8539399 43.4786036,7.79986065 45.1436828,9.50250285 C46.6237367,11.0159457 47.7337401,13.2861101 47.7337401,15.7453979 L47.7337401,22.7450145 L42.7386507,22.7450145 L42.5536254,22.7450145 L34.7833793,22.7450145 L34.7833793,25.2043781 C34.7833793,25.9610238 35.1533557,26.717821 35.5234804,27.2853432 C36.0784821,27.8528653 36.6334838,28.0420646 37.5584619,28.0420646 L39.0385158,28.0420646 C39.963494,28.0420646 40.8885462,27.663666 41.4435479,27.0961439 C41.9985496,26.5286217 42.3685261,25.582701 42.3685261,24.6367802 L47.5487889,24.6367802 L47.5487889,24.636856 Z M39.0385158,11.9618665 L37.3734366,11.9618665 C36.6334097,11.9618665 35.8934568,12.3401893 35.3384551,12.7185122 C34.7833793,13.2861101 34.598354,14.0427558 34.598354,14.799553 L34.598354,17.2588408 L42.3685261,17.2588408 L42.3685261,15.3670751 C42.3685261,14.4211544 41.9985496,13.4753094 41.4435479,12.9077115 C40.8885462,12.3401893 39.963494,11.9618665 39.0385158,11.9618665 L39.0385158,11.9618665 Z M18.3179089,27.663666 C19.2429612,27.663666 20.1680134,27.2853432 20.7230151,26.717821 C21.2780168,26.1502231 21.6479933,25.2043781 21.6479933,24.2584574 L21.6479933,23.1234131 L21.6479933,16.5021194 L21.6479933,15.3670751 C21.6479933,14.4211544 21.2780168,13.4753094 20.7230151,12.9077115 C20.1680134,12.3401893 19.2429612,11.9618665 18.3179089,11.9618665 L16.6529038,11.9618665 C15.7278516,11.9618665 14.8027994,12.3401893 14.2477977,12.9077115 C13.692796,13.4753094 13.3228195,14.4211544 13.3228195,15.3670751 L13.3228195,21.7991695 L13.3228195,24.2584574 C13.3228195,25.2043781 13.692796,26.1502231 14.2477977,26.717821 C14.8027994,27.2853432 15.7278516,27.663666 16.6529038,27.663666 L18.3179089,27.663666 Z" id="Fill-1" fill="#FFFFFF" mask="url(#mask-2)"></path>
                    </g>
                    <g id="Group-6" transform="translate(0.000000, 7.230414)">
                        <mask id="mask-4" fill="white">
                            <use xlink:href="#path-3"></use>
                        </mask>
                        <g id="Clip-5"></g>
                        <path d="M-1.48198051e-05,17.2494301 C-1.48198051e-05,19.7087938 0.740012148,21.789683 2.22006608,23.3032017 C3.70012002,24.8166446 5.92020092,25.7624896 8.14020773,25.7624896 L9.9903122,25.7624896 C12.210319,25.7624896 14.4303999,24.8166446 15.9104538,23.3032017 C17.3905078,24.8166446 19.4255634,25.7624896 21.8305955,25.7624896 L21.8305955,20.6546387 C20.9056173,20.6546387 19.9805651,20.2763159 19.4255634,19.7087938 C18.8705617,19.1411959 18.5005112,18.1953509 18.5005112,17.2494301 L18.5005112,16.1143858 L18.5005112,9.68229144 L18.5005112,8.54717138 C18.5005112,7.6013264 18.8705617,6.84460496 19.4255634,6.08788351 C19.9805651,5.52036137 20.9056173,5.14196276 21.8305955,5.14196276 L21.8305955,0.0341877157 C19.6105887,0.0341877157 17.3905078,0.980032695 15.9104538,2.49347559 C14.4303999,0.980032695 12.3953443,0.0341877157 9.9903122,0.0341877157 L8.32523299,0.0341877157 C5.92020092,0.0341877157 3.88514529,0.980032695 2.40509135,2.49347559 C0.925037415,4.00691848 -1.48198051e-05,6.27708282 -1.48198051e-05,8.54717138 L-1.48198051e-05,9.68229144 L-1.48198051e-05,16.1143858 L-1.48198051e-05,17.2494301 Z M9.9903122,20.6546387 L9.9903122,20.6546387 L8.32523299,20.6546387 C7.40018076,20.6546387 6.47520262,20.2763159 5.92020092,19.7087938 C5.36512512,19.1411959 4.99514869,18.1953509 4.99514869,17.2494301 L4.99514869,16.1143858 L4.99514869,9.68229144 L4.99514869,8.54717138 C4.99514869,7.6013264 5.36512512,6.84460496 5.92020092,6.08788351 C6.47520262,5.52036137 7.40018076,5.14196276 8.32523299,5.14196276 L9.9903122,5.14196276 C10.9152903,5.14196276 11.6553173,5.52036137 12.3953443,6.08788351 C12.950346,6.65540565 13.3203965,7.6013264 13.3203965,8.54717138 L13.3203965,9.68229144 L13.3203965,16.1143858 L13.3203965,17.2494301 C13.3203965,18.1953509 12.950346,18.9520723 12.3953443,19.7087938 C11.6553173,20.2763159 10.9152903,20.6546387 9.9903122,20.6546387 L9.9903122,20.6546387 Z" id="Fill-4" fill="#00B08D" mask="url(#mask-4)"></path>
                    </g>
                </g>
            </g>
        </g>
    </g>
</svg>