<svg width="628" height="617" viewBox="0 0 628 617" xmlns="http://www.w3.org/2000/svg"><title>EB073749-7A1F-412A-95B6-C4241369B633</title><g fill="none" fill-rule="evenodd"><path d="M483.281 449.739h122.847c12.08 0 21.872 9.786 21.872 21.863 0 12.076-9.795 21.864-21.872 21.864h-471.01c-12.08 0-21.872-9.786-21.872-21.864 0-12.075 9.795-21.863 21.871-21.863h164.977c9.944 0 18.015-8.062 18.015-18.006 0-9.946-8.066-18.005-18.015-18.005H238.068c-12.079 0-21.871-9.786-21.871-21.864 0-12.075 9.796-21.864 21.871-21.864h265.11c12.079 0 21.871 9.786 21.871 21.864 0 12.075-9.796 21.864-21.872 21.864H399.57c-9.944 0-18.015 8.061-18.015 18.005 0 9.947 8.066 18.006 18.015 18.006h83.712zM184.964 575.98c.95-.134 1.922-.204 2.91-.204h113.259-25.747c-11.37 0-20.583 9.213-20.583 20.578 0 11.367 9.215 20.578 20.583 20.578h25.747-113.259c-.987 0-1.96-.07-2.91-.204 9.992-1.414 17.671-9.997 17.671-20.374 0-10.38-7.682-18.96-17.67-20.374zM54.05 553.913c0-12.075 9.796-21.863 21.862-21.863h445.292c12.075 0 21.863 9.786 21.863 21.863 0 12.075-9.796 21.864-21.863 21.864H75.911c-12.074 0-21.862-9.786-21.862-21.864zm499.312-162.05c0-12.074 9.792-21.863 21.86-21.863h.033c12.073 0 21.86 9.786 21.86 21.864 0 12.075-9.791 21.864-21.86 21.864h-.032c-12.074 0-21.861-9.786-21.861-21.864zM0 471.604c0-12.076 9.792-21.864 21.855-21.864h38.65c12.07 0 21.856 9.786 21.856 21.863 0 12.076-9.792 21.864-21.855 21.864H21.855C9.785 493.466 0 483.68 0 471.602zm446.543 21.863H173.284h2.131c10.657 0 19.295 8.635 19.295 19.292 0 10.654-8.64 19.292-19.295 19.292h-2.13 273.258-25.746c-10.653 0-19.289-8.635-19.289-19.292 0-10.655 8.642-19.292 19.289-19.292h25.746z" fill="#E1E6EA"/><path d="M308.08 528.575c-1.823-13.719-10.715-23.43-19.84-21.629-9.183 1.804-15.128 14.42-13.304 28.2 1.826 13.775 10.715 23.486 19.84 21.625 9.183-1.802 15.131-14.417 13.305-28.196M347.245 501.266c-15.369-6.658-30.012-4.801-32.746 4.198-2.735 8.94 7.532 21.66 22.904 28.324 15.372 6.714 30.012 4.858 32.746-4.144 2.735-9-7.534-21.658-22.904-28.378" fill="#453D5C"/><path d="M311.678 389.578c-3.983 1.491-6.388 8.48-9.804 22.538-2.662 32.895-3.206 59.17 0 96.59.166 15.62-13.435 22.308-22.875 9.658-14.15-26.225-22.875-78.535-22.875-148.104 0-4.805.06-8.843 0-12.878h107.84v12.878c0 69.57-8.665 112.056-22.875 138.445-9.44 12.485-22.981 5.797-22.875-9.659 3.203-37.583 2.662-54.035 0-86.93-3.418-14.058-5.764-21.047-6.536-22.538" fill="#44435D"/><path d="M310.066 173.741c36.845 0 66.97 29.749 66.97 66.136v114.285H243.093V239.877c0-36.387 30.125-66.136 66.972-66.136" fill="#00B08D"/><path fill="#00B08D" d="M279.14 199.541h64.581v-45.298h-64.58z"/><path d="M386.839 90.175c0 1.306-.118 2.557-.358 3.802-3.471 30.361-28.666 54.127-58.946 54.127H295.88c-30.34 0-55.534-23.766-58.946-54.127-.299-1.245-.417-2.496-.417-3.802v-34.4c0-10.695 8.915-22.519 23.338-32.917 41.888-30.417 61.696-30.538 103.705 0 14.362 10.398 23.279 22.222 23.279 32.916v34.401z" fill="#44435D"/><path d="M367.05 110.565h-4.496c-5.286 0-10.813 4.26-12.211 9.477l-3.705 13.262c-1.398 5.22 1.7 9.48 6.986 9.48h4.556c5.286 0 10.753-4.26 12.212-9.48l3.644-13.262c1.459-5.217-1.7-9.477-6.985-9.477M255.75 110.565h4.556c5.286 0 10.752 4.26 12.211 9.477l3.647 13.262c1.456 5.22-1.702 9.48-6.988 9.48h-4.496c-5.287 0-10.813-4.26-12.272-9.48l-3.644-13.262c-1.46-5.217 1.699-9.477 6.985-9.477" fill="#FAE6DC"/><path d="M360.347 100.17c0-.967-.06-1.935-.243-2.902-5.475-56.863-91.833-56.56-97.247 0-.18.967-.304 1.935-.304 2.902v43.388c0 8.157 5.839 17.221 15.205 25.199 27.245 23.264 40.14 23.327 67.445 0 9.366-7.978 15.144-17.042 15.144-25.2V100.17z" fill="#FAE6DC"/><path fill="#AF6828" d="M256.07 88.726v28.44-.06z"/><path d="M311.4 159.822c5.466 0 9.903-3.24 9.903-7.26s-4.437-7.319-9.903-7.319c-5.407 0-9.843 3.3-9.843 7.32 0 4.02 4.436 7.26 9.843 7.26" fill="#F5D5C5"/><path d="M289.253 87.969c10.113 2.69 17.108 10.873 15.71 18.214-1.462 7.399-10.813 11.154-20.863 8.462-10.112-2.689-17.107-10.871-15.646-18.27 1.401-7.34 10.75-11.153 20.8-8.406M334.333 87.969c-10.047 2.69-17.046 10.873-15.647 18.214 1.399 7.399 10.748 11.154 20.863 8.462 10.05-2.689 17.108-10.871 15.647-18.27-1.401-7.34-10.75-11.153-20.863-8.406M311.4 140.922c6.319-7.678 14.703-7.437 25.092.661 3.278 2.401 6.439 6.42 10.39 4.26-11 13.68-30.44 14.819-35.482 4.5-4.98 10.319-24.486 9.18-35.419-4.5 3.948 2.16 7.106-1.859 10.327-4.26 10.45-8.098 18.773-8.339 25.092-.66" fill="#40335A"/><path d="M281.265 97.185c16.891.36 26.308 6.84 23.33 18.96-2.978 12.118-10.45 18.96-23.33 18.96-12.94 0-21.565-9.723-22.295-21.18-.729-11.46 5.347-17.098 22.295-16.74M341.048 97.185c-16.951.36-26.368 6.84-23.39 18.96 2.975 12.118 10.45 18.96 23.39 18.96 12.88 0 21.565-9.723 22.235-21.18.729-11.46-5.347-17.098-22.235-16.74" fill="#FAE6DC"/><path d="M263.158 106.222c-1.97 4.587-.776 11.62.896 16.027 6.084 15.553 28.037 14.302 35.376 1.608 3.579-6.256 5.189-15.194-1.016-20.437-5.489-4.646-30.9-7.328-35.256 2.802m-9.783-.656c-.717-8.88-2.208-8.402 7.993-9.771 12.35-1.67 25.771-1.908 37.824 1.548 7.218 2.087 9.842 3.097 12.468 3.097 2.624 0 5.25-1.01 12.468-3.097 12.05-3.456 25.473-3.217 37.821-1.548 10.263 1.369 8.77.892 7.994 9.77 0 .537-.357 1.013-.775 1.31-.357.242-.655.478-1.014.657-2.326 1.313-2.326 4.113-2.565 6.495-1.789 15.432-11.036 24.965-27.5 23.298-10.68-1.074-18.435-8.82-22.432-20.734-.657-1.79-1.55-7.449-3.997-7.746-2.446.297-3.342 5.956-3.938 7.746-3.997 11.914-11.752 19.66-22.49 20.734-16.406 1.667-25.653-7.866-27.442-23.298-.3-2.382-.239-5.182-2.567-6.495-.357-.18-.716-.415-1.073-.656a1.883 1.883 0 0 1-.775-1.31m106.785.656c-4.354-10.13-29.709-7.448-35.197-2.802-6.264 5.243-4.654 14.18-1.014 20.437 7.277 12.694 29.231 13.945 35.318-1.608 1.727-4.407 2.862-11.44.893-16.027" fill="#00B08D"/><path d="M287.182 119.127c2.717 0 4.889-2.206 4.889-4.828 0-2.624-2.172-4.83-4.89-4.83-2.657 0-4.889 2.206-4.889 4.83 0 2.622 2.232 4.828 4.89 4.828M336.003 118.904c2.655 0 4.776-2.155 4.776-4.717 0-2.564-2.121-4.719-4.776-4.719-2.596 0-4.718 2.155-4.718 4.72 0 2.56 2.122 4.716 4.718 4.716" fill="#40335A"/><path d="M234.488 217.405c3.256-6.46 10.809-14.92 16.862-18.892l16.442-10.785c11.263-7.388 19.13-2.538 17.57 10.85l-.11.94c-1.558 13.38-9.577 32.807-17.91 43.391l-11.076 14.07-37.77 77.283c-5.911 12.098-19.745 15.777-30.885 8.226l8.135 5.514c-11.145-7.555-15.269-23.425-9.203-35.46l47.945-95.137z" fill="#00B08D"/><path d="M185.182 314.008c5.267-9.44 17.213-12.656 26.65-7.271 9.415 5.465 12.782 17.475 7.486 26.864l-5.344 9.548c-5.297 9.389-17.264 12.687-26.65 7.274-9.467-5.439-12.782-17.477-7.484-26.863l5.342-9.552z" fill="#FAE6DC"/><path d="M333.15 223.48c-7.898-7.44-8.14-19.799-.546-27.598 7.532-7.74 20.049-7.983 27.947-.542l40.644 38.699 21.59-31.2c5.653-9.181 16.686-13.98 26.04-8.338 9.296 5.64 10.715 16.865 5.005 26.045 0 0-32.678 51.515-35.946 56.344-4.902 6.44-18.511 9.587-26.349 2.088L333.15 223.48z" fill="#00B08D"/><path d="M451.496 227.951c-5.009 10.152-18.165 13.221-28.01 6.869-10.347-5.612-13.505-18.407-7.003-27.474l7.003-10.303c4.98-10.122 18.2-13.257 28.01-6.869 10.318 5.576 13.542 18.434 7.003 27.475l-7.003 10.302z" fill="#FAE6DC"/><path fill="#41345A" opacity=".2" d="M377.035 284.977v-19.318l-13.071-14.488zM257.214 264.385c-4.515 10.928-14.161 33.116-14.161 33.116v-13.742s9.798-19.934 14.16-27.517c5.079-8.828 14.161-21.716 14.161-21.716s-9.235 17.937-14.16 29.859z"/><path d="M310.066 373.738c36.906 0 66.97-9.057 66.97-20.222 0-11.17-30.064-20.326-66.97-20.326s-66.972 9.157-66.972 20.326c0 11.165 30.066 20.222 66.972 20.222" fill="#00B08D"/><path d="M309.26 294.923h-4.445a9.06 9.06 0 0 1-6.364-2.6c-1.618-1.619-2.633-3.835-2.633-6.288V263.342c0-2.45 1.015-4.667 2.633-6.287a9.06 9.06 0 0 1 6.364-2.6h4.446a9.106 9.106 0 0 1 6.366 2.6c1.619 1.62 2.63 3.837 2.63 6.287V286.035c0 2.453-1.011 4.67-2.63 6.287a9.106 9.106 0 0 1-6.366 2.6zm-27.273-8.888c0 6.223 2.547 11.85 6.69 15.94a22.919 22.919 0 0 0 16.138 6.606h4.446c6.192 0 11.804-2.43 15.901-6.394a22.887 22.887 0 0 0 15.927 6.394v-13.658a9.065 9.065 0 0 1-6.367-2.6c-1.618-1.619-2.633-3.835-2.633-6.288V263.342c0-2.45 1.015-4.667 2.633-6.287a9.065 9.065 0 0 1 6.367-2.6v-13.656a22.885 22.885 0 0 0-15.927 6.392c-4.097-3.964-9.709-6.392-15.901-6.392h-4.446a22.927 22.927 0 0 0-16.139 6.603c-4.142 4.091-6.69 9.718-6.69 15.94V286.035z" fill="#FEFEFE"/></g></svg>