<?xml version="1.0" encoding="UTF-8"?>
<svg width="15px" height="21px" viewBox="0 0 15 21" version="1.1" xmlns="http://www.w3.org/2000/svg" xmlns:xlink="http://www.w3.org/1999/xlink">
    <!-- Generator: Sketch 46.2 (44496) - http://www.bohemiancoding.com/sketch -->
    <title>lock</title>
    <desc>Created with Sketch.</desc>
    <defs></defs>
    <g id="Page-1" stroke="none" stroke-width="1" fill="none" fill-rule="evenodd">
        <g id="hamburger-menu-1" transform="translate(-46.000000, -429.000000)" fill-rule="nonzero" fill="#FFFFFF">
            <g id="lock" transform="translate(46.000000, 429.000000)">
                <path d="M14.1666667,7 L12.5,7 L12.5,5.25 C12.5,2.354625 10.2575,0 7.5,0 C4.7425,0 2.5,2.354625 2.5,5.25 L2.5,7 L0.833333333,7 C0.373333333,7 0,7.392 0,7.875 L0,20.125 C0,20.608 0.373333333,21 0.833333333,21 L14.1666667,21 C14.6266667,21 15,20.608 15,20.125 L15,7.875 C15,7.392 14.6266667,7 14.1666667,7 Z M8.33333333,15.589 L8.33333333,17.5 L6.66666667,17.5 L6.66666667,15.589 C5.69916667,15.22675 5,14.26425 5,13.125 C5,11.67775 6.12166667,10.5 7.5,10.5 C8.87833333,10.5 10,11.67775 10,13.125 C10,14.26425 9.30166667,15.22675 8.33333333,15.589 Z M10.8333333,7 L4.16666667,7 L4.16666667,5.25 C4.16666667,3.31975 5.66166667,1.75 7.5,1.75 C9.33833333,1.75 10.8333333,3.31975 10.8333333,5.25 L10.8333333,7 Z" id="Shape"></path>
            </g>
        </g>
    </g>
</svg>