<svg width="304" height="64" viewBox="0 0 304 64" xmlns="http://www.w3.org/2000/svg" xmlns:xlink="http://www.w3.org/1999/xlink"><title>6F59CA56-0262-4E0E-9E50-CD5B0D5FD815</title><defs><rect id="a" y="9" width="304" height="60" rx="5"/><mask id="b" x="0" y="0" width="304" height="60" fill="#fff"><use xlink:href="#a"/></mask><rect id="c" width="184" height="68" rx="3"/><path d="M8.165 1.981l-.046.01c-.456.096-.912.193-1.364.292l-.007.034C6.095 5.491 5.637 9.291 5.23 12.5a42.68 42.68 0 0 0-.287 2.925c-.087 1.54-.038 3.08.32 4.579.54 2.26 1.753 4.316 2.444 6.538.611 1.963.797 3.995.685 6.035-.157 2.873-.905 5.76-1.891 8.486-.114.313-.23.625-.35.936-1.651 4.321-3.798 8.472-5.084 12.907-2.009 6.929-.383 22.617.94 29.737l31.59-.48c.87-7.421 2.06-27.583-2.458-37.496-1.022-2.244-3.142-10.352-3.43-12.034-2.116-12.39 2.781-12.897 1.062-21.305-.672-3.287-2.7-9.407-3.59-13.217-.338-.006-.675-.009-1.012-.009-5.553 0-10.9.814-16.005 1.88z" id="e"/><path d="M.14 4.076v6.447c0 2.156 1.804 3.904 4.03 3.904s4.031-1.748 4.031-3.904V4.076c0-2.156-1.805-3.904-4.03-3.904C1.943.172.138 1.92.138 4.076" id="g"/><path d="M0 11.063v17.286c0 6.006 5.214 11.063 11.999 11.063 6.079 0 11.293-5.057 11.293-11.063V11.063C23.292 5.056 18.078 0 12 0 5.214 0 0 5.056 0 11.063" id="i"/><path d="M.011 11.063v17.286c0 6.006 5.212 11.063 11.993 11.063 6.076 0 11.288-5.057 11.288-11.063V11.063C23.292 5.056 18.08 0 12.004 0 5.224 0 .011 5.056.011 11.063" id="k"/><path d="M.011 11.063v17.286c0 6.006 5.21 11.063 11.988 11.063 6.073 0 11.282-5.057 11.282-11.063V11.063C23.281 5.056 18.071 0 12 0 5.22 0 .01 5.056.01 11.063" id="m"/><path id="o" d="M.14 18.007h11.007V.194H.14v17.813"/><path id="q" d="M.154 1.973h5.938V.053H.154z"/><path d="M.118 64.753l9.293.049c1.84 0 3.333-1.446 3.333-3.228V3.422c0-1.783-1.492-3.228-3.333-3.228H.118v64.559" id="s"/><path d="M10.447 64.681L3.4 64.644c-1.84 0-3.333-3.483-3.333-5.265V3.422C.067 1.64 1.559.194 3.4.194h7.047v64.487" id="u"/><path d="M3.4.194C1.56.194.067 1.64.067 3.422V59.38c0 1.782 1.492 5.265 3.333 5.265l29.952.158c1.841 0 3.333-1.446 3.333-3.228V3.422c0-1.783-1.492-3.228-3.333-3.228" id="w"/><path d="M3.4.194C1.56.194.067 1.64.067 3.422V59.38c0 1.782 1.492 5.265 3.333 5.265l29.952.158c1.841 0 3.333-1.446 3.333-3.228V3.422c0-1.783-1.492-3.228-3.333-3.228" id="y"/><path d="M5.23.009C2.35.009.015 2.269.015 5.059v7.973c0 2.789 2.335 5.05 5.215 5.05h1.374c2.88 0 5.214-2.261 5.214-5.05V5.059c0-2.79-2.334-5.05-5.214-5.05" id="A"/><path d="M11.694.132C5.357.132.22 5.107.22 11.243v18.61c0 6.137 5.136 11.112 11.473 11.112h4.102c6.336 0 11.473-4.975 11.473-11.112v-18.61c0-6.136-5.137-11.11-11.473-11.11" id="C"/><path d="M11.694.132C5.357.132.22 5.107.22 11.243v18.61c0 6.137 5.136 11.112 11.473 11.112h4.102c6.336 0 11.473-4.975 11.473-11.112v-18.61c0-6.136-5.137-11.11-11.473-11.11" id="E"/><path d="M11.084 0C4.887 0 .502 5.099.502 11.16v19.53c0 6.062 5.09 11.161 11.288 11.161h4.232c6.197 0 11.288-5.1 11.288-11.16l.353-19.53C27.663 5.098 22.219 0 16.023 0" id="G"/><path d="M11.796 0C5.32 0 0 5.016 0 10.978V30.19C0 36.153 5.32 41.17 11.796 41.17h4.424c6.475 0 11.796-5.016 11.796-10.979V10.978C28.016 5.016 22.696 0 16.22 0" id="I"/></defs><g transform="translate(0 -5)" fill="none" fill-rule="evenodd"><use stroke="#00B08D" mask="url(#b)" stroke-width="2" fill="#FFF" xlink:href="#a"/><path d="M128.56 30.952c0 .645-.079 1.225-.236 1.74a3.565 3.565 0 0 1-.704 1.312 3.11 3.11 0 0 1-1.16.832c-.461.195-.996.292-1.604.292a6.511 6.511 0 0 1-1.672-.216l.096-1.12a.431.431 0 0 1 .124-.256c.067-.064.164-.096.292-.096.096 0 .22.02.372.06.152.04.35.06.596.06.325 0 .615-.048.868-.144.253-.096.467-.247.64-.452.173-.205.304-.47.392-.792.088-.323.132-.713.132-1.172v-7.52h1.864v7.472zm8.952-.272l-1.584-4.208a11.65 11.65 0 0 1-.392-1.24 8.19 8.19 0 0 1-.192.692c-.07.21-.133.396-.192.556l-1.584 4.2h3.944zm3.544 4.32h-1.448a.613.613 0 0 1-.4-.124.806.806 0 0 1-.232-.308l-.96-2.544h-4.96l-.96 2.544a.766.766 0 0 1-.224.296.596.596 0 0 1-.4.136h-1.448l4.568-11.52h1.896L141.056 35zm10.856-5.672v4.56c-1.147.827-2.48 1.24-4 1.24-.933 0-1.777-.145-2.532-.436a5.624 5.624 0 0 1-1.932-1.216 5.326 5.326 0 0 1-1.232-1.86c-.288-.72-.432-1.512-.432-2.376 0-.87.139-1.665.416-2.388a5.298 5.298 0 0 1 1.192-1.864 5.346 5.346 0 0 1 1.872-1.208c.73-.285 1.552-.428 2.464-.428.464 0 .895.036 1.292.108.397.072.767.172 1.108.3a5.178 5.178 0 0 1 1.736 1.072l-.536.856a.533.533 0 0 1-.328.248c-.133.032-.277 0-.432-.096l-.492-.288a4.292 4.292 0 0 0-1.372-.5 5.616 5.616 0 0 0-1.04-.084 4.3 4.3 0 0 0-1.644.3c-.488.2-.905.485-1.252.856-.347.37-.613.82-.8 1.348a5.278 5.278 0 0 0-.28 1.768c0 .688.099 1.303.296 1.844.197.541.477 1 .84 1.376.363.376.801.663 1.316.86.515.197 1.09.296 1.724.296.475 0 .897-.05 1.268-.152.37-.101.735-.243 1.092-.424v-2.288h-1.608a.398.398 0 0 1-.288-.1.344.344 0 0 1-.104-.26v-1.064h3.688zm16.048-5.848L163.288 35H161.6l-4.672-11.52h1.496c.165 0 .299.041.4.124a.806.806 0 0 1 .232.308l2.968 7.512c.16.421.307.907.44 1.456.059-.272.121-.53.188-.776a7.04 7.04 0 0 1 .22-.68l2.96-7.512a.766.766 0 0 1 .224-.296.596.596 0 0 1 .4-.136h1.504zM171.584 35h-1.88V23.48h1.88V35zm9.792-1.568V35h-6.656V23.48h1.872v9.952h4.784zm8.664 0V35h-6.656V23.48h1.872v9.952h4.784zm10.104.088c.421 0 .777-.05 1.068-.148.29-.099.528-.233.712-.404a1.5 1.5 0 0 0 .4-.604c.083-.232.124-.481.124-.748 0-.544-.185-.972-.556-1.284-.37-.312-.956-.468-1.756-.468h-2.312v3.656h2.32zm-2.32-8.576v3.6h1.872c.8 0 1.397-.155 1.792-.464.395-.31.592-.755.592-1.336 0-.635-.185-1.093-.556-1.376-.37-.283-.95-.424-1.74-.424h-1.96zm1.96-1.464c.736 0 1.365.07 1.888.212.523.141.952.343 1.288.604.336.261.583.58.74.956.157.376.236.799.236 1.268 0 .272-.041.535-.124.788-.083.253-.21.49-.384.712-.173.221-.39.42-.652.596-.261.176-.57.323-.928.44 1.632.347 2.448 1.213 2.448 2.6 0 .49-.092.94-.276 1.348-.184.408-.45.76-.8 1.056a3.76 3.76 0 0 1-1.292.692c-.512.165-1.096.248-1.752.248h-4.224V23.48h3.832zm11.112 7.472c0 .645-.079 1.225-.236 1.74a3.565 3.565 0 0 1-.704 1.312 3.11 3.11 0 0 1-1.16.832c-.461.195-.996.292-1.604.292a6.511 6.511 0 0 1-1.672-.216l.096-1.12a.431.431 0 0 1 .124-.256c.067-.064.164-.096.292-.096.096 0 .22.02.372.06.152.04.35.06.596.06.325 0 .615-.048.868-.144.253-.096.467-.247.64-.452.173-.205.304-.47.392-.792.088-.323.132-.713.132-1.172v-7.52h1.864v7.472zm7.568 2.536c.443 0 .839-.075 1.188-.224.35-.15.645-.357.888-.624s.428-.588.556-.964c.128-.376.192-.793.192-1.252V23.48h1.864v6.944c0 .677-.108 1.304-.324 1.88a4.274 4.274 0 0 1-.932 1.492 4.291 4.291 0 0 1-1.476.984c-.579.237-1.23.356-1.956.356-.725 0-1.377-.119-1.956-.356a4.291 4.291 0 0 1-1.476-.984 4.274 4.274 0 0 1-.932-1.492 5.313 5.313 0 0 1-.324-1.88V23.48h1.872v6.936c0 .459.064.876.192 1.252s.312.699.552.968c.24.27.535.479.884.628.35.15.745.224 1.188.224zm17.8-4.248c0 .853-.139 1.633-.416 2.34a5.281 5.281 0 0 1-1.172 1.82c-.504.507-1.11.9-1.816 1.18-.707.28-1.492.42-2.356.42h-4.352V23.48h4.352c.864 0 1.65.14 2.356.42.707.28 1.312.673 1.816 1.18a5.281 5.281 0 0 1 1.172 1.82c.277.707.416 1.487.416 2.34zm-1.912 0c0-.661-.09-1.256-.268-1.784a3.693 3.693 0 0 0-.768-1.336 3.347 3.347 0 0 0-1.212-.836 4.182 4.182 0 0 0-1.6-.292h-2.472v8.496h2.472c.592 0 1.125-.096 1.6-.288.475-.192.879-.47 1.212-.836.333-.365.59-.81.768-1.336.179-.525.268-1.121.268-1.788zm10.128 1.44l-1.584-4.208a11.65 11.65 0 0 1-.392-1.24 8.19 8.19 0 0 1-.192.692c-.07.21-.133.396-.192.556l-1.584 4.2h3.944zm3.544 4.32h-1.448a.613.613 0 0 1-.4-.124.806.806 0 0 1-.232-.308l-.96-2.544h-4.96l-.96 2.544a.766.766 0 0 1-.224.296.596.596 0 0 1-.4.136h-1.448l4.568-11.52h1.896L248.024 35zm17.848-11.52V35h-1.648v-7.896a8.035 8.035 0 0 1 .048-.88l-3.704 6.84c-.144.283-.365.424-.664.424h-.264c-.304 0-.525-.141-.664-.424l-3.76-6.856a9.053 9.053 0 0 1 .048.896V35h-1.648V23.48h1.4c.165 0 .293.015.384.044.09.03.173.119.248.268l3.696 6.696c.08.155.156.313.228.476.072.163.137.33.196.5.064-.17.132-.34.204-.508.072-.168.148-.33.228-.484l3.64-6.68c.075-.15.157-.239.248-.268.09-.03.219-.044.384-.044h1.4zM270.888 35h-1.88V23.48h1.88V35zm11.064-9.96h-3.592V35h-1.864v-9.96h-3.6v-1.56h9.056v1.56zm9.928 0h-3.592V35h-1.864v-9.96h-3.6v-1.56h9.056v1.56zM128.56 53.52c.421 0 .777-.05 1.068-.148.29-.099.528-.233.712-.404a1.5 1.5 0 0 0 .4-.604c.083-.232.124-.481.124-.748 0-.544-.185-.972-.556-1.284-.37-.312-.956-.468-1.756-.468h-2.312v3.656h2.32zm-2.32-8.576v3.6h1.872c.8 0 1.397-.155 1.792-.464.395-.31.592-.755.592-1.336 0-.635-.185-1.093-.556-1.376-.37-.283-.95-.424-1.74-.424h-1.96zm1.96-1.464c.736 0 1.365.07 1.888.212.523.141.952.343 1.288.604.336.261.583.58.74.956.157.376.236.799.236 1.268 0 .272-.041.535-.124.788-.083.253-.21.49-.384.712-.173.221-.39.42-.652.596-.261.176-.57.323-.928.44 1.632.347 2.448 1.213 2.448 2.6 0 .49-.092.94-.276 1.348-.184.408-.45.76-.8 1.056a3.76 3.76 0 0 1-1.292.692c-.512.165-1.096.248-1.752.248h-4.224V43.48h3.832zm12.936 7.2l-1.584-4.208a11.65 11.65 0 0 1-.392-1.24 8.19 8.19 0 0 1-.192.692c-.07.21-.133.396-.192.556l-1.584 4.2h3.944zM144.68 55h-1.448a.613.613 0 0 1-.4-.124.806.806 0 0 1-.232-.308l-.96-2.544h-4.96l-.96 2.544a.766.766 0 0 1-.224.296.596.596 0 0 1-.4.136h-1.448l4.568-11.52h1.896L144.68 55zm5.088-6c.427 0 .8-.052 1.12-.156.32-.104.587-.25.8-.436.213-.187.373-.41.48-.668.107-.259.16-.545.16-.86 0-.63-.208-1.11-.624-1.44-.416-.33-1.045-.496-1.888-.496h-1.52V49h1.472zm5.424 6h-1.672c-.33 0-.57-.128-.72-.384l-2.688-3.88a.887.887 0 0 0-.296-.288c-.107-.059-.267-.088-.48-.088h-1.04V55h-1.872V43.48h3.392c.757 0 1.41.077 1.956.232.547.155.996.375 1.348.66.352.285.612.628.78 1.028.168.4.252.845.252 1.336 0 .4-.06.773-.18 1.12-.12.347-.293.661-.52.944a3.337 3.337 0 0 1-.836.736c-.33.208-.707.37-1.128.488.23.139.427.333.592.584L155.192 55zm11.328-11.52V55h-.952a.816.816 0 0 1-.368-.076.86.86 0 0 1-.288-.252l-6.328-8.128a9.137 9.137 0 0 1 .048.88V55h-1.648V43.48h.976c.08 0 .148.004.204.012a.586.586 0 0 1 .156.044.454.454 0 0 1 .136.096c.043.043.088.096.136.16l6.336 8.136a10.522 10.522 0 0 1-.048-.936V43.48h1.64zm11.112 5.872c.416 0 .783-.053 1.1-.16.317-.107.581-.257.792-.452.21-.195.37-.43.476-.708.107-.277.16-.587.16-.928 0-.336-.052-.637-.156-.904a1.758 1.758 0 0 0-.468-.68 2.09 2.09 0 0 0-.788-.428 3.772 3.772 0 0 0-1.116-.148h-1.712v4.408h1.712zm0-5.872c.752 0 1.404.088 1.956.264.552.176 1.008.423 1.368.74.36.317.628.699.804 1.144.176.445.264.937.264 1.476 0 .55-.093 1.052-.28 1.508a3.158 3.158 0 0 1-.832 1.176c-.368.328-.825.584-1.372.768-.547.184-1.183.276-1.908.276h-1.712V55h-1.872V43.48h3.584zm11.88 7.2l-1.584-4.208a11.65 11.65 0 0 1-.392-1.24 8.19 8.19 0 0 1-.192.692c-.07.21-.133.396-.192.556l-1.584 4.2h3.944zm3.544 4.32h-1.448a.613.613 0 0 1-.4-.124.806.806 0 0 1-.232-.308l-.96-2.544h-4.96l-.96 2.544a.766.766 0 0 1-.224.296.596.596 0 0 1-.4.136h-1.448l4.568-11.52h1.896L193.056 55zm-7.104-13.616c0-.219.043-.42.128-.604s.2-.341.344-.472c.144-.13.312-.232.504-.304a1.773 1.773 0 0 1 1.22 0c.195.072.365.173.512.304a1.43 1.43 0 0 1 .348 1.664 1.41 1.41 0 0 1-.348.46 1.572 1.572 0 0 1-.512.296 1.834 1.834 0 0 1-1.22 0 1.534 1.534 0 0 1-.504-.296 1.437 1.437 0 0 1-.344-.46 1.347 1.347 0 0 1-.128-.588zm.832 0c0 .219.068.399.204.54.136.141.324.212.564.212.224 0 .405-.07.544-.212a.739.739 0 0 0 .208-.54c0-.23-.07-.413-.208-.552a.736.736 0 0 0-.544-.208c-.24 0-.428.07-.564.208-.136.139-.204.323-.204.552zm18.52 12.048V55h-6.656V43.48h1.872v9.952h4.784zm8.104-2.752l-1.584-4.208a11.65 11.65 0 0 1-.392-1.24 8.19 8.19 0 0 1-.192.692c-.07.21-.133.396-.192.556l-1.584 4.2h3.944zm3.544 4.32h-1.448a.613.613 0 0 1-.4-.124.806.806 0 0 1-.232-.308l-.96-2.544h-4.96l-.96 2.544a.766.766 0 0 1-.224.296.596.596 0 0 1-.4.136h-1.448l4.568-11.52h1.896L216.952 55zm-6.256-13.336a.898.898 0 0 1-.08.376 1.004 1.004 0 0 1-.92.592.919.919 0 0 1-.368-.076.981.981 0 0 1-.516-.516.967.967 0 0 1 0-.756 1.017 1.017 0 0 1 .516-.532.88.88 0 0 1 .368-.08c.133 0 .261.027.384.08a1.026 1.026 0 0 1 .536.532c.053.12.08.247.08.38zm3.432 0a.898.898 0 0 1-.08.376 1.04 1.04 0 0 1-.212.308.981.981 0 0 1-.308.208.938.938 0 0 1-.376.076.958.958 0 0 1-.384-.076 1.03 1.03 0 0 1-.312-.208.95.95 0 0 1-.288-.684.967.967 0 0 1 .288-.696c.09-.09.195-.163.312-.216a.917.917 0 0 1 .384-.08c.133 0 .259.027.376.08.117.053.22.125.308.216.088.09.159.196.212.316.053.12.08.247.08.38zM227.792 55h-1.864a.46.46 0 0 1-.312-.104.874.874 0 0 1-.192-.232l-2.864-4.616a2.948 2.948 0 0 1-.068.184 1.234 1.234 0 0 1-.084.168l-2.768 4.264a1.503 1.503 0 0 1-.196.232.392.392 0 0 1-.284.104h-1.744l3.888-5.92-3.728-5.6h1.856c.133 0 .23.02.292.06.061.04.116.1.164.18l2.8 4.4.08-.192c.027-.064.061-.13.104-.2l2.608-3.976a.645.645 0 0 1 .176-.204.391.391 0 0 1 .232-.068h1.784l-3.76 5.52 3.88 6zm11.4-11.52V55h-1.872v-5.128h-5.784V55h-1.88V43.48h1.88v5.04h5.784v-5.04h1.872zm7.336 7.472c0 .645-.079 1.225-.236 1.74a3.565 3.565 0 0 1-.704 1.312 3.11 3.11 0 0 1-1.16.832c-.461.195-.996.292-1.604.292a6.511 6.511 0 0 1-1.672-.216l.096-1.12a.431.431 0 0 1 .124-.256c.067-.064.164-.096.292-.096.096 0 .22.02.372.06.152.04.35.06.596.06.325 0 .615-.048.868-.144.253-.096.467-.247.64-.452.173-.205.304-.47.392-.792.088-.323.132-.713.132-1.172v-7.52h1.864v7.472zm8.952-.272l-1.584-4.208a11.65 11.65 0 0 1-.392-1.24 8.19 8.19 0 0 1-.192.692c-.07.21-.133.396-.192.556l-1.584 4.2h3.944zm3.544 4.32h-1.448a.613.613 0 0 1-.4-.124.806.806 0 0 1-.232-.308l-.96-2.544h-4.96l-.96 2.544a.766.766 0 0 1-.224.296.596.596 0 0 1-.4.136h-1.448l4.568-11.52h1.896L259.024 55zm-6.256-13.336a.898.898 0 0 1-.08.376 1.004 1.004 0 0 1-.92.592.919.919 0 0 1-.368-.076.981.981 0 0 1-.516-.516.967.967 0 0 1 0-.756 1.017 1.017 0 0 1 .516-.532.88.88 0 0 1 .368-.08c.133 0 .261.027.384.08a1.026 1.026 0 0 1 .536.532c.053.12.08.247.08.38zm3.432 0a.898.898 0 0 1-.08.376 1.04 1.04 0 0 1-.212.308.981.981 0 0 1-.308.208.938.938 0 0 1-.376.076.958.958 0 0 1-.384-.076 1.03 1.03 0 0 1-.312-.208.95.95 0 0 1-.288-.684.967.967 0 0 1 .288-.696c.09-.09.195-.163.312-.216a.917.917 0 0 1 .384-.08c.133 0 .259.027.376.08.117.053.22.125.308.216.088.09.159.196.212.316.053.12.08.247.08.38zm11.224 11.768V55h-6.656V43.48h1.872v9.952h4.784zm5.592-4.08c.416 0 .783-.053 1.1-.16.317-.107.581-.257.792-.452.21-.195.37-.43.476-.708.107-.277.16-.587.16-.928 0-.336-.052-.637-.156-.904a1.758 1.758 0 0 0-.468-.68 2.09 2.09 0 0 0-.788-.428 3.772 3.772 0 0 0-1.116-.148h-1.712v4.408h1.712zm0-5.872c.752 0 1.404.088 1.956.264.552.176 1.008.423 1.368.74.36.317.628.699.804 1.144.176.445.264.937.264 1.476 0 .55-.093 1.052-.28 1.508a3.158 3.158 0 0 1-.832 1.176c-.368.328-.825.584-1.372.768-.547.184-1.183.276-1.908.276h-1.712V55h-1.872V43.48h3.584z" fill="#00B08D"/><g transform="translate(2)"><mask id="d" fill="#fff"><use xlink:href="#c"/></mask><g mask="url(#d)"><path d="M106.022 107.086c-3.272 1.077-6.825-.618-7.937-3.786L93.659 90.69c-1.112-3.168.638-6.61 3.91-7.686l1.674-.606c3.271-1.077 8.069.263 9.18 3.431l4.427 12.609c1.112 3.168-.638 6.609-3.91 7.686l-2.918.96z" fill="#028766"/><path d="M86.568 48.18c-6.959 0-12.6-5.463-12.6-12.202V17.801c0-6.74 5.641-12.203 12.6-12.203s12.6 5.464 12.6 12.203v18.177c0 6.74-5.641 12.203-12.6 12.203" fill="#FAAF40"/><path d="M105.392 29.122c0-5.8-4.855-10.502-10.843-10.502-5.989 0-10.844 4.702-10.844 10.502 0 5.8 4.855 10.501 10.844 10.501 5.988 0 10.843-4.701 10.843-10.501" fill="#FAAF40"/><path d="M91.01 31.053c0-5.8-4.855-10.502-10.844-10.502-5.988 0-10.843 4.702-10.843 10.502 0 5.8 4.855 10.5 10.843 10.5 5.989 0 10.844-4.7 10.844-10.5" fill="#FAAF40"/><path d="M85.483 41.554c0-5.8-4.855-10.502-10.844-10.502-5.988 0-10.843 4.702-10.843 10.502 0 5.8 4.855 10.501 10.843 10.501 5.989 0 10.844-4.702 10.844-10.501" fill="#FAAF40"/><path d="M112.238 48.164c0-7.833-6.557-14.183-14.645-14.183s-14.646 6.35-14.646 14.183 6.558 14.183 14.646 14.183c8.088 0 14.645-6.35 14.645-14.183" fill="#FAAF40"/><path d="M86.979 55.976c0-5.695-4.768-10.312-10.648-10.312S65.683 50.28 65.683 55.976c0 5.694 4.767 10.311 10.648 10.311 5.88 0 10.648-4.617 10.648-10.311M109.148 61.4c0-5.45-4.561-9.867-10.188-9.867-5.627 0-10.189 4.417-10.189 9.867 0 5.45 4.562 9.867 10.189 9.867s10.188-4.418 10.188-9.867" fill="#FAAF40"/><path d="M94.287 203.016l-6.098-54.347-2.28-28.118-15.262 1.744 14.775 79.35-5.825.36c-3.432.858-5.38 1.54-5.38 4.503 0 .488.409.883.912.883h17.318c.887 0 1.165-.736 1.485-1.66l-.232-2.715h.587z" fill="#E7C3B2"/><path d="M90.643 170.229H79.66l5.762 31.416-5.825.36c-3.432.858-5.38 1.54-5.38 4.503 0 .488.409.883.912.883h17.318c.887 0 1.164-.736 1.485-1.66l-.232-2.715h.587l-3.644-32.787z" fill="#028766"/><path d="M104.962 202.005l-4.483-.302 4.888-77.683-15.369-.913 2.115 82.625c.32.923.598 1.659 1.485 1.659h15.832c.503 0 .912-.395.912-.883 0-2.963-1.948-3.645-5.38-4.503" fill="#F3D3C3"/><path d="M104.962 202.005l-4.483-.302 1.965-31.687H91.21l-.47 35.716c.321.923.599 1.659 1.486 1.659h17.204c.503 0 .912-.395.912-.883 0-2.963-1.948-3.645-5.38-4.503" fill="#00A27C"/><path d="M62.969 89.444c.427-.412.858-.821 1.295-1.224 1.892-1.742 3.807-3.462 5.684-5.218a1.284 1.284 0 0 1-.04-.016c-.213-3.79 2.87-10.844 6.19-16.784.055-.977.164-1.956.287-2.925.405-3.207.864-7.008 1.517-10.182-3.343.872-6.164 2.2-7.415 4.08-.122.185-2.201 3.281-4.977 8.828-4.038 8.069-5.668 14.22-4.981 18.806.269 1.796 1.105 3.374 2.44 4.635M79.242 52.757l-.042.01.043-.01" fill="#D33530"/><path d="M102.222 97.442c-1.023-2.244-3.142-10.353-3.43-12.034-2.117-12.39 2.781-12.897 1.062-21.305-.672-3.287-2.7-9.407-3.59-13.217-5.915-.107-11.603.74-17.017 1.871l-.047.01c-.456.095-.911.192-1.364.291l-.006.035c-.653 3.173-1.112 6.974-1.517 10.181-.122.97-.232 1.948-.288 2.925-.087 1.541-.037 3.08.32 4.58.54 2.26 1.754 4.316 2.445 6.537.611 1.963.797 3.996.685 6.035-.157 2.874-.905 5.76-1.892 8.487-.113.313-.23.625-.349.936-1.652 4.32-3.798 8.471-5.084 12.907-2.01 6.929-.383 22.616.94 29.737l31.59-.481c.87-7.42 2.059-27.582-2.458-37.495" fill="#EC1C24"/><path d="M78.035 72.73c0 .01-.002.02-.001.031.068 1.886 1.7 3.36 3.648 3.295L95.27 75.6c1.947-.066 3.47-1.648 3.403-3.533a3.138 3.138 0 0 0-.057-.483c-2.557.151-16.304.668-20.581 1.146" fill="#D33530"/><g transform="translate(71.082 50.776)"><mask id="f" fill="#fff"><use xlink:href="#e"/></mask><path d="M22.84.757c0-3.714-3.108-6.725-6.943-6.725-3.835 0-6.944 3.011-6.944 6.725 0 3.714 3.109 6.724 6.944 6.724S22.84 4.471 22.84.757z" stroke="#CC1F30" stroke-width="2.426" mask="url(#f)"/></g><path d="M86.979 55.976c-2.227 0-4.031-1.748-4.031-3.904v-6.447c0-2.157 1.804-3.904 4.03-3.904 2.227 0 4.032 1.747 4.032 3.904v6.447c0 2.156-1.805 3.904-4.031 3.904" fill="#E8C4B3"/><g transform="translate(82.808 41.548)"><mask id="h" fill="#fff"><use xlink:href="#g"/></mask><path d="M3.76 6.25c-6.35 0-11.499-4.985-11.499-11.136v-16.588c0-6.15 5.148-11.136 11.5-11.136 6.35 0 11.498 4.985 11.498 11.136v16.588c0 6.15-5.148 11.136-11.499 11.136" fill="#D8B3A4" mask="url(#h)"/></g><path d="M76.294 33.055h-.505c-1.886 0-3.414-1.48-3.414-3.306v-.765c0-2.097 1.755-3.796 3.919-3.796 1.012 0 1.833.795 1.833 1.776v4.316c0 .98-.82 1.775-1.833 1.775M96.35 33.055h.505c1.886 0 3.414-1.48 3.414-3.306v-.765c0-2.097-1.755-3.796-3.919-3.796-1.012 0-1.833.795-1.833 1.776v4.316c0 .98.82 1.775 1.833 1.775" fill="#E8C4B3"/><path d="M86.568 46.32c-6.35 0-11.499-4.986-11.499-11.136V18.595c0-6.15 5.149-11.136 11.5-11.136 6.35 0 11.498 4.986 11.498 11.136v16.589c0 6.15-5.148 11.136-11.499 11.136" fill="#F3D3C3"/><g transform="translate(74.99 7.242)"><mask id="j" fill="#fff"><use xlink:href="#i"/></mask><path d="M27.93 5.106c0-5.407-4.526-9.79-10.109-9.79-5.582 0-10.108 4.383-10.108 9.79 0 5.407 4.526 9.79 10.108 9.79 5.583 0 10.11-4.383 10.11-9.79" fill="#FAAF40" mask="url(#j)"/></g><g transform="translate(74.99 7.242)"><mask id="l" fill="#fff"><use xlink:href="#k"/></mask><path d="M25.897 14.75c0-1.763-1.475-3.191-3.295-3.191-1.82 0-3.295 1.428-3.295 3.19s1.476 3.191 3.295 3.191c1.82 0 3.295-1.429 3.295-3.19" fill="#FAAF40" mask="url(#l)"/></g><g transform="translate(74.99 7.242)"><mask id="n" fill="#fff"><use xlink:href="#m"/></mask><path d="M12.747 4.896c0-5.406-4.526-9.79-10.11-9.79-5.582 0-10.108 4.384-10.108 9.79 0 5.407 4.526 9.79 10.109 9.79s10.109-4.383 10.109-9.79" fill="#FAAF40" mask="url(#n)"/></g><g><path d="M91.49 30.333c-.122.722-.826 1.212-1.572 1.093-.746-.118-1.25-.8-1.129-1.523.123-.722.827-1.211 1.573-1.093.746.119 1.251.8 1.129 1.523M81.176 30.46c-.123.723-.827 1.213-1.573 1.094-.746-.118-1.25-.8-1.128-1.522.122-.723.826-1.212 1.572-1.094.746.119 1.251.8 1.129 1.523" fill="#41345B"/><path d="M85.869 80.731c2.352.314 4.194 2.239 4.265 4.614.073 2.47-1.795 4.557-4.265 4.89l-4.923.069v-7.768c0-1.006.845-1.82 1.884-1.817l3.039.012z" fill="#E7C3B2"/><path d="M103.176 90.511a1.486 1.486 0 0 1-2.072.286c-5.211-3.96-14.147-12.552-19.394-24.828-2.45-5.73-3.702-10.587-4.22-12.907-.175-.788.362-1.559 1.183-1.693l.986-.16c.767-.125 1.499.353 1.666 1.088.727 3.192 3.59 12.502 9.27 21.432 3.32 5.218 7.753 10.164 12.879 14.058.62.471.75 1.33.287 1.946l-.585.778z" fill="#00A27C"/><path d="M82.473 40.194c.606.877 2.267 1.423 3.623 1.512 1.495.098 3.297-.27 4.923-1.929.228-.232.392-.576.484-.953-2.984.583-6.027.87-9.03 1.37" fill="#FFF"/><path d="M90.928 93.494l-6.553.228c-.613.02-1.127-.443-1.15-1.036l-.55-13.815c-.021-.593.457-1.091 1.07-1.113l6.554-.227c.613-.022 1.127.442 1.149 1.036l.55 13.814c.022.593-.457 1.092-1.07 1.113" fill="#F1F1F2"/><path d="M84.548 79.306a.516.516 0 0 1-.507.528.52.52 0 0 1-.544-.491.516.516 0 0 1 .507-.527.52.52 0 0 1 .544.49" fill="#404041"/><path d="M83.127 83.166c-1.32.203-2.921.415-4.611.558-5.226.444-7.811-.08-8.713-.454-.127-2.271.93-5.715 2.512-9.39-3.396.03-6.793-.008-10.19-.031-1.596 4.5-2.154 8.214-1.7 11.244.344 2.3 1.615 4.244 3.676 5.62 2.416 1.613 5.943 2.41 10.71 2.41a54.32 54.32 0 0 0 4.763-.226 76.184 76.184 0 0 0 3.553-.402v-9.33z" fill="#D33530"/><path d="M94.225 85.578c-.573-2.487-3.12-4.053-5.687-3.497l-7.388 1.24-.204 9.376c1.768-.293 9.578-1.592 9.668-1.611 2.568-.555 4.184-3.021 3.611-5.508" fill="#F3D3C3"/><path d="M79.121 51.296l1.927-.315-1.927.315z" fill="#00A27C"/><path d="M103.078 96.418a1.212 1.212 0 0 0-1.586-.563 34.917 34.917 0 0 1-14.324 3.05c-4.147 0-8.123-.721-11.804-2.037a1.206 1.206 0 0 0-1.454.53l-.005.009a1.107 1.107 0 0 0-.048.096c-.365.814-.73 1.628-1.092 2.444-.268.605.042 1.307.68 1.538a40.235 40.235 0 0 0 13.723 2.4c5.928 0 11.176-1.125 16.222-3.41.624-.282.787-.984.535-1.605-.325-.8-.468-1.674-.847-2.452" fill="#BE1E2D"/><path d="M92.068 48.205c-.052-.662-.628-1.17-1.314-1.16l-2.051.248c-1.231.149-2.474.178-3.71.089l-2.307-.168c-.637.012-1.134.539-1.085 1.155l.333 4.206c.217 2.741 2.603 4.92 5.44 4.8 2.967-.124 5.214-2.598 4.99-5.442l-.296-3.728z" fill="#EC1C24"/></g><g><path d="M109.798 86.347c-1.892-1.743-3.807-3.463-5.685-5.22.254-3.805-1.211-9.773-4.531-15.713-.055-.978-.993-5.664-1.24-6.52-.905-3.112-1.409-4.84-2.061-8.014 3.343.871 6.042 2.54 7.293 4.421.123.185 2.202 3.281 4.977 8.828 4.039 8.069 5.668 14.22 4.982 18.806-.27 1.797-1.106 3.374-2.44 4.635a75.953 75.953 0 0 0-1.295-1.223z" fill="#D33530"/><path d="M88.839 78.858c-2.353.313-4.194 2.238-4.265 4.613-.074 2.47 1.794 4.557 4.265 4.89l4.922.069v-7.768c0-1.006-.844-1.82-1.883-1.817l-3.04.013z" fill="#E7C3B2"/><path d="M90.935 81.292c1.32.203 2.92.415 4.61.559 5.226.443 7.913-.239 8.587-.76.128-2.27.346-5.443-1.235-9.116 3.396.03 5.643.023 9.04 0 1.595 4.5 2.154 8.214 1.7 11.244-.344 2.3-1.616 4.244-3.677 5.62-2.416 1.613-5.942 2.41-10.709 2.41a54.32 54.32 0 0 1-4.763-.226c-1.254-.11-2.456-1.033-3.553-1.183v-8.548z" fill="#D33530"/><path d="M80.482 83.704c.574-2.487 3.12-4.053 5.688-3.497l7.387 1.24.204 9.376c-1.767-.292-9.578-1.592-9.667-1.611-2.568-.555-4.185-3.02-3.612-5.508" fill="#F3D3C3"/></g><g><path d="M36.454 55.012h-14.8c-1.842 0-3.334 1.445-3.334 3.228v55.956c0 1.783 1.492 5.266 3.333 5.266l14.948.067a5.731 5.731 0 0 1-.147-1.196V55.012z" fill="#5EC5EB"/><path d="M54.939 116.391V58.24c0-1.783-1.493-3.228-3.333-3.228H36.454v63.321c0 .352.052.761.147 1.197l15.005.089c1.84 0 3.333-1.445 3.333-3.228" fill="#56BDD8"/><path fill="#403F63" d="M38.315 107.096h-3.163V60.469h3.163z"/><path d="M58.164 156.45c-1.863-14.558-2.495-28.505-3.225-34.435v-3.572l-36.402-.537c.374 6.08 1.234 18.68 2.608 30.786 2.532 22.313 5.887 39.023 9.752 52.167l12.577-.107c-6.866-23.347-9.164-62.263-9.711-77.38h5.94c.737 6.71 2.584 21.256 4.975 34.155 6.055 32.67 6.808 39.509 8.05 42.554H66.09c-.684-1.678-3.561-9.523-7.925-43.632" fill="#939598"/><path d="M54.939 114.196H18.32c.008.14.08 1.492.217 3.71l36.402.537v-4.247z" fill="#58595B"/><path d="M43.8 207.884H22.92c-.629 0-1.138-.494-1.138-1.103 0-3.7 3.097-6.7 6.918-6.7h14.58l2.044 5.73c.362 1.015-.416 2.073-1.524 2.073" fill="#262261"/><g transform="translate(29.491 84.628)"><mask id="p" fill="#fff"><use xlink:href="#o"/></mask><path d="M9.755 18.007H1.532c-.769 0-1.392-.604-1.392-1.348V1.543C.14.798.763.195 1.532.195h8.223c.77 0 1.392.603 1.392 1.348v15.116c0 .744-.623 1.348-1.392 1.348" fill="#403F63" mask="url(#p)"/></g><g transform="translate(40.485 99.297)"><mask id="r" fill="#fff"><use xlink:href="#q"/></mask><path fill="#403F63" mask="url(#r)" d="M6.092 1.972H.154V.052h5.938z"/></g><path d="M56.036 207.884h18.26c.628 0 1.138-.494 1.138-1.103 0-3.7-3.098-6.7-6.919-6.7H52.73l1.452 5.73c.4 1.154.747 2.073 1.855 2.073" fill="#262261"/><g transform="translate(42.195 54.817)"><mask id="t" fill="#fff"><use xlink:href="#s"/></mask><path d="M79.74 28.874c0 24.712-17.807 44.744-39.772 44.744S.198 53.586.198 28.874c0-24.71-2.423-44.743 19.542-44.743 21.965 0 60 20.032 60 44.743" fill="#403F63" mask="url(#t)"/></g><g transform="translate(18.253 54.817)"><mask id="v" fill="#fff"><use xlink:href="#u"/></mask><path d="M10.446 22.455c0 23.853-17.187 43.19-38.39 43.19-21.202 0-38.39-19.337-38.39-43.19 0-23.853 34.692-43.19 55.895-43.19 21.202 0 20.885 19.337 20.885 43.19" fill="#403F63" mask="url(#v)"/></g><g transform="translate(18.253 54.817)"><mask id="x" fill="#fff"><use xlink:href="#w"/></mask><path d="M101.62 23.906c0 24.71-17.805 44.744-39.77 44.744-21.965 0-39.772-20.033-39.772-44.744 0-24.712-2.422-44.744 19.543-44.744s60 20.032 60 44.744" fill="#585380" mask="url(#x)"/></g><g transform="translate(18.253 54.817)"><mask id="z" fill="#fff"><use xlink:href="#y"/></mask><path d="M11.667 18.312c0 23.853-17.188 43.19-38.39 43.19s-38.39-19.337-38.39-43.19c0-23.853 34.692-43.19 55.894-43.19 21.202 0 20.886 19.337 20.886 43.19" fill="#585380" mask="url(#z)"/></g><path d="M40.082 85.551c-2.352.314-4.194 2.239-4.265 4.614-.073 2.47 1.794 4.557 4.265 4.889l4.923.07v-7.768c0-1.006-.845-1.82-1.884-1.817l-3.04.012z" fill="#E7C3B2"/><path d="M40.533 100.786H32.31c-.768 0-1.391-.603-1.391-1.348V84.322c0-.744.623-1.348 1.391-1.348h8.224c.769 0 1.392.604 1.392 1.348v15.116c0 .745-.623 1.348-1.392 1.348" fill="#F8DB66"/><path d="M33.318 85.269a.643.643 0 0 1-.653.632.643.643 0 0 1-.652-.632c0-.35.292-.632.652-.632.36 0 .653.283.653.632" fill="#414042"/><path d="M18.052 121.751c1.49 1.933 3.951 2.669 5.819 1.631 1.943-1.078 2.56-3.695 1.505-6.031l-3.351-5.698-7.392 4.441 3.419 5.657zM36.94 87.3c-2.959.395-5.275 2.815-5.363 5.802-.093 3.106 2.256 5.73 5.362 6.15l8.066.086V87.276l-8.066.025z" fill="#F4D4C4"/><path d="M49.46 87.275c-1.469.024-2.966.026-4.456.001v12.062c.536.006 1.174.01 1.897.01 2.108 0 4.915-.037 7.851-.183l.227-.014c-1.995-3.9-4.046-7.776-5.52-11.876" fill="#B8E3F2"/><path d="M72.33 86.183c-.135-2.166 1.502-3.073-7.021-16.139a418.437 418.437 0 0 0-8.484-12.464c-1.93-2.714-5.747-3.42-8.572-1.606-2.902 1.866-3.588 5.779-1.612 8.557 4.95 6.962 9.853 14.305 12.902 19.592.355.616.754 1.943.064 2.166-2.282.74-7.102.716-11.097.752.346 4.017.697 8.033 1.151 12.04 1.588-.025 3.362-.073 5.187-.164 7.213-.36 11.447-3.288 14.85-6.69 1.562-1.561 2.764-3.948 2.633-6.044M2.115 83.138c1.064-2.76 13.14-25.316 13.312-25.558 1.931-2.714 5.748-3.42 8.572-1.606 2.903 1.866 3.589 5.779 1.613 8.557-4.95 6.962-10.293 18.247-13.343 23.534-.355.615-1.21 2.217-.71 3.414 1.794 4.284 9.19 17.472 11.423 20.6 1.998 3.019 2.63 5.184 0 7.773-1.306 1.507-4.73 4.35-6.338 2.207C9.064 111.958-.649 92.22-.518 90.125c.08-1.271 1.124-3.072 2.633-6.987z" fill="#585380"/><path d="M52.115 33.007v-13.38c0-6.799-5.692-12.311-12.713-12.311h-4.547c-7.021 0-12.713 5.512-12.713 12.312v13.38h29.973z" fill="#754C28"/><path d="M46.003 37.11H51.2c1.087 0 1.969-.853 1.969-1.906v-5.378c0-1.39-1.163-2.516-2.598-2.516h-4.568v9.8zM27.38 37.11h-5.198c-1.087 0-1.969-.853-1.969-1.906v-5.378c0-1.39 1.163-2.516 2.598-2.516h4.568v9.8z" fill="#E8C4B3"/><path fill="#26A9E0" d="M44.354 57.144H28.7V53.14h15.654z"/><path d="M37.316 59.65h-1.373c-2.88 0-5.215-2.261-5.215-5.05v-7.973c0-2.789 2.335-5.05 5.215-5.05h1.373c2.88 0 5.215 2.261 5.215 5.05V54.6c0 2.789-2.335 5.05-5.215 5.05" fill="#E8C4B3"/><path d="M39.666 58.87v1.589c0 1.568-1.313 2.84-2.933 2.84-1.62 0-2.933-1.272-2.933-2.84v-1.59h5.866z" fill="#403F63"/><path d="M26.929 55.012L28.7 53.14l6.435 5.666-1.194 4.255c-.184.659-1.087.796-1.471.223l-5.541-8.273zM46.142 55.012l-1.771-1.871-6.435 5.666 1.194 4.255c.185.659 1.087.796 1.471.223l5.541-8.273z" fill="#B8E3F2"/><g transform="translate(30.713 41.568)"><mask id="B" fill="#fff"><use xlink:href="#A"/></mask><path d="M8.467 10.815H4.364c-6.336 0-11.472-4.974-11.472-11.11v-18.611c0-6.136 5.136-11.11 11.472-11.11h4.103c6.337 0 11.473 4.974 11.473 11.11v18.61c0 6.137-5.136 11.11-11.473 11.11" fill="#DDB6A8" mask="url(#B)"/></g><g><path d="M39.18 50.355h-4.103c-6.336 0-11.472-4.974-11.472-11.11v-18.61c0-6.137 5.136-11.111 11.472-11.111h4.103c6.336 0 11.473 4.974 11.473 11.11v18.61c0 6.137-5.137 11.111-11.473 11.111" fill="#F4D4C4"/><path d="M37.99 46.908c-1.372-.09-3.056-.647-3.645-1.541-.343-.521.066-1.192.704-1.16 1.587.077 4.148-.158 5.599-2.178.68-.594 1.741-.615 2.386.014.682.664.538 2.263-.122 2.936-1.626 1.66-3.427 2.027-4.923 1.929" fill="#FFF"/><path d="M44.317 33.247c-.135.798-.913 1.338-1.737 1.208-.824-.131-1.382-.884-1.247-1.682.136-.798.913-1.339 1.737-1.208.824.13 1.382.884 1.247 1.682M32.924 33.388c-.135.798-.913 1.339-1.737 1.208-.824-.13-1.382-.884-1.246-1.682.135-.798.912-1.339 1.736-1.207.824.13 1.382.883 1.247 1.681" fill="#41345B"/></g><g><g transform="translate(23.384 8.709)"><mask id="D" fill="#fff"><use xlink:href="#C"/></mask><path d="M37.327-.135c0-9.354-7.83-16.938-17.49-16.938-9.66 0-17.49 7.584-17.49 16.938 0 9.355 7.83 16.939 17.49 16.939 9.66 0 17.49-7.584 17.49-16.939" fill="#754C28" mask="url(#D)"/></g><g transform="translate(23.384 9.391)"><mask id="F" fill="#fff"><use xlink:href="#E"/></mask><path d="M41.931.132c0-9.354-7.83-16.938-17.49-16.938-9.66 0-17.49 7.584-17.49 16.938 0 9.355 7.83 16.939 17.49 16.939 9.66 0 17.49-7.584 17.49-16.939" fill="#F4D4C4" mask="url(#F)"/></g><g transform="translate(23.384 8.709)"><mask id="H" fill="#fff"><use xlink:href="#G"/></mask><path d="M40.248-2.15c0-9.354-7.83-16.938-17.49-16.938-9.659 0-17.49 7.584-17.49 16.938 0 9.355 7.831 16.939 17.49 16.939 9.66 0 17.49-7.584 17.49-16.939" fill="#754C28" mask="url(#H)"/></g><g transform="translate(22.678 9.391)"><mask id="J" fill="#fff"><use xlink:href="#I"/></mask><path d="M4.027 5.88c0-9.354-7.83-16.938-17.49-16.938-9.66 0-17.49 7.584-17.49 16.939 0 9.354 7.83 16.938 17.49 16.938 9.66 0 17.49-7.584 17.49-16.938" fill="#754C28" mask="url(#J)"/></g></g><g><path fill="#403F63" d="M54.637 80.626l-2.788-7.713 2.788 4.366zM18.9 78.752l2.788-7.713-2.788 4.367zM44.794 99.335l10.185-.184-.04 1.868-9.196.25-.83-1.677zM24.768 55.012l5.104 7.93-.096-3.68-2.847-4.25z"/><path fill="#D1D3D4" d="M32.665 114.196v3.919l3.756.055v-3.974z"/><path fill="#A6A8AB" d="M40.177 114.196h-3.756v3.974l3.756.055z"/><path d="M47.87 120.306s-.245 5.51 5.448 4.921M27.155 118.676s1.218 6.35-5.829 7.078" stroke="#808184" stroke-width="2.426"/><path d="M27.047 28.891L25.978 27.6c.117-.091 2.922-2.234 6.966-1.817l-.181 1.647c-3.32-.343-5.692 1.444-5.716 1.462M40.902 27.672l-.017-1.656c.15-.002 3.723-.01 6.638 2.736L46.33 29.94c-2.392-2.255-5.398-2.268-5.428-2.268" fill="#754C28"/></g></g></g></g></g></svg>