<svg width="379" height="303" viewBox="0 0 379 303" xmlns="http://www.w3.org/2000/svg" xmlns:xlink="http://www.w3.org/1999/xlink"><title>D5E05469-285D-4352-B938-FE59796A471D</title><defs><path id="a" d="M0 0h383v303H0z"/></defs><g transform="translate(-4)" fill="none" fill-rule="evenodd"><mask id="b" fill="#fff"><use xlink:href="#a"/></mask><path d="M507.272 83.156h127.93c12.59 0 22.798 10.206 22.798 22.801 0 12.593-10.2 22.801-22.798 22.801h-490.47c-12.59 0-22.798-10.205-22.798-22.8 0-12.593 10.2-22.802 22.799-22.802H321.5c10.374 0 18.779-8.407 18.779-18.777 0-10.373-8.408-18.777-18.78-18.777h-69.542c-12.597 0-22.81-10.206-22.81-22.801C229.148 10.208 239.35 0 251.958 0h276.02c12.598 0 22.81 10.206 22.81 22.8 0 12.594-10.202 22.802-22.81 22.802H420.13c-10.374 0-18.779 8.407-18.779 18.777 0 10.373 8.408 18.777 18.779 18.777h87.142zM196.624 214.812a21.616 21.616 0 0 1 3.051-.215h117.923-26.792c-11.845 0-21.454 9.608-21.454 21.46 0 11.854 9.606 21.46 21.454 21.46h26.792-117.923c-1.036 0-2.055-.074-3.053-.216 10.403-1.483 18.403-10.43 18.403-21.245 0-10.817-7.999-19.761-18.401-21.244zm-163.14-23.016c0-12.593 10.2-22.801 22.798-22.801h490.469c12.591 0 22.798 10.206 22.798 22.8 0 12.593-10.2 22.802-22.798 22.802H56.282c-12.591 0-22.798-10.206-22.798-22.801zm85.77 88.521c0-12.593 10.215-22.8 22.796-22.8h174.195c12.59 0 22.796 10.205 22.796 22.8 0 12.593-10.215 22.801-22.796 22.801H142.05c-12.59 0-22.796-10.206-22.796-22.8zM580.27 22.784C580.27 10.201 590.468 0 603.053 0c12.583 0 22.783 10.206 22.783 22.784v.034c0 12.583-10.197 22.784-22.783 22.784-12.582 0-22.783-10.206-22.783-22.784v-.034zM4 105.957c0-12.592 10.218-22.8 22.802-22.8h40.167c12.593 0 22.801 10.205 22.801 22.8 0 12.593-10.218 22.801-22.801 22.801H26.802C14.209 128.758 4 118.553 4 105.958zm465.042 22.801H184.45h2.195c11.116 0 20.126 9.005 20.126 20.119 0 11.11-8.998 20.118-20.126 20.118h-2.195 284.592-26.786c-11.115 0-20.125-9.005-20.125-20.118 0-11.112 9-20.119 20.125-20.119h26.786z" fill="#EFF3F6" mask="url(#b)"/></g></svg>