<svg width="304" height="66" viewBox="0 0 304 66" xmlns="http://www.w3.org/2000/svg" xmlns:xlink="http://www.w3.org/1999/xlink"><title>72CD19CB-BC9A-4105-B683-E54F4CDDAC56</title><defs><rect id="a" y="9" width="304" height="60" rx="5"/><mask id="b" x="0" y="0" width="304" height="60" fill="#fff"><use xlink:href="#a"/></mask><rect id="c" width="184" height="68" rx="3"/><path d="M10.616.269C3.868 1.122.745 6.199.236 10.776c-.05.243-.086.487-.089.73L.083 16.4c-.07 5.356 1.706 10.702 5.478 14.617 2.206 2.291 4.73 2.903 7.014 2.614 2.748-.348 5.18-1.91 7.6-4.465 3.3-3.483 4.042-8.153 4.104-12.88l.057-4.334.001-.232a3.859 3.859 0 0 0-.054-.731C23.666 3.775 17.991.163 12.3.163c-.563 0-1.125.035-1.683.106" id="e"/><path d="M10.616.269C3.868 1.122.745 6.199.236 10.776c-.05.243-.086.487-.089.73L.083 16.4c-.07 5.356 1.706 10.702 5.478 14.617 2.206 2.291 4.73 2.903 7.014 2.614 2.748-.348 5.18-1.91 7.6-4.465 3.3-3.483 4.042-8.153 4.104-12.88l.057-4.334.001-.232a3.859 3.859 0 0 0-.054-.731C23.666 3.775 17.991.163 12.3.163c-.563 0-1.125.035-1.683.106" id="g"/><path d="M10.616.269C3.868 1.122.745 6.199.236 10.776c-.05.243-.086.487-.089.73L.083 16.4c-.07 5.356 1.706 10.702 5.478 14.617 2.206 2.291 4.73 2.903 7.014 2.614 2.748-.348 5.18-1.91 7.6-4.465 3.3-3.483 4.042-8.153 4.104-12.88l.057-4.334.001-.232a3.859 3.859 0 0 0-.054-.731C23.666 3.775 17.991.163 12.3.163c-.563 0-1.125.035-1.683.106" id="i"/><path d="M2.386 1.345C1.262 3.485-.187 6.562.138 10.514c.297 1.394 1.106 1.233 2.156 1.072.86-.132 1.883-.264 2.92.459 1.564 1.09 5.002 2.862 5.002 2.862l11.517.134s2.088-.166 3.766-1.232c.844-.536 1.608.3 2.337 1.136.769.88 1.5 1.76 2.246 1.036.519-4.947-1.275-11.606-2.947-15.951" id="k"/><path d="M2.386 1.345C1.262 3.485-.187 6.562.138 10.514c.297 1.394 1.106 1.233 2.156 1.072.86-.132 1.883-.264 2.92.459 1.564 1.09 5.002 2.862 5.002 2.862l11.517.134s2.088-.166 3.766-1.232c.844-.536 1.608.3 2.337 1.136.769.88 1.5 1.76 2.246 1.036.519-4.947-1.275-11.606-2.947-15.951" id="m"/><path d="M2.386 1.345C1.262 3.485-.187 6.562.138 10.514c.297 1.394 1.106 1.233 2.156 1.072.86-.132 1.883-.264 2.92.459 1.564 1.09 5.002 2.862 5.002 2.862l11.517.134s2.088-.166 3.766-1.232c.844-.536 1.608.3 2.337 1.136.769.88 1.5 1.76 2.246 1.036.519-4.947-1.275-11.606-2.947-15.951L2.385 1.345z" id="o"/><path d="M2.386 1.345C1.262 3.485-.187 6.562.138 10.514c.297 1.394 1.106 1.233 2.156 1.072.86-.132 1.883-.264 2.92.459 1.564 1.09 5.002 2.862 5.002 2.862l11.517.134s2.088-.166 3.766-1.232c.844-.536 1.608.3 2.337 1.136.769.88 1.5 1.76 2.246 1.036.519-4.947-1.275-11.606-2.947-15.951L2.385 1.345z" id="q"/><path d="M.013 1.197s.34 2.26.537 2.707l.537 1.603 7.214-.789-.65-4.704L.012 1.197z" id="s"/><path d="M4.085.306C2.628.661-.043 5.748.177 6.539c.759 2.731 3.74 4.369 6.658 3.658 2.918-.71 4.668-3.501 3.909-6.233-.64-2.3-2.855-3.824-5.28-3.824-.455 0-.918.054-1.38.166z" id="u"/><path d="M.114 1.183C2.203.536 4.044.246 7.814.138l.153-.009h.008c.195 0 .184.179.382.179 3.228 0 5.948.798 8.057 1.762v6.848H.114V1.183z" id="w"/><path d="M.114 1.183C2.203.536 4.044.246 7.814.138l.153-.009h.008c.195 0 .184.179.382.179 3.228 0 5.948.798 8.057 1.762v6.848H.114V1.183" id="y"/><path d="M18.424.13l-.153.008C12.98.29 11.488.798 7.779 2.153 4.153 3.476 1.291 7.794 1.291 7.794s-.014 6.645-.297 7.032l-.99 9.646 32.15 8.653V16.158L31.895 5.41S26.977.308 18.815.308c-.2 0-.188-.179-.383-.179h-.008" id="A"/><path d="M18.424.13l-.153.008C12.98.29 11.488.798 7.779 2.153 4.153 3.476 1.291 7.794 1.291 7.794s-.014 6.645-.297 7.032l-.99 9.646 32.15 8.653V16.158L31.895 5.41S26.977.308 18.815.308c-.2 0-.188-.179-.383-.179h-.008" id="C"/><path d="M12.42.1l-.106.001C5.51.157.04 5.518.098 12.075l.103 11.713c.057 6.558 5.619 11.83 12.423 11.774 6.804-.055 12.274-5.416 12.216-11.974l-.025-2.885.892-2.686-.969-6.142C24.681 5.352 19.176.101 12.421.101" id="E"/><path d="M12.42.1l-.106.001C5.51.157.04 5.518.098 12.075l.103 11.713c.057 6.558 5.619 11.83 12.423 11.774 6.804-.055 12.274-5.416 12.216-11.974l-.025-2.885.892-2.686-.969-6.142C24.681 5.352 19.176.101 12.421.101" id="G"/><path d="M12.42.1l-.106.001C5.51.157.04 5.518.098 12.075l.103 11.713c.057 6.558 5.619 11.83 12.423 11.774 6.804-.055 12.274-5.416 12.216-11.974l-.025-2.885.892-2.686-.969-6.142C24.681 5.352 19.176.101 12.421.101" id="I"/><path d="M12.42.1l-.106.001C5.51.157.04 5.518.098 12.075l.103 11.713c.057 6.558 5.619 11.83 12.423 11.774 6.804-.055 12.274-5.416 12.216-11.974l-.025-2.885.892-2.686-.969-6.142C24.681 5.352 19.176.101 12.421.101" id="K"/><path d="M12.42.1l-.106.001C5.51.157.04 5.518.098 12.075l.103 11.713c.057 6.558 5.619 11.83 12.423 11.774 6.804-.055 12.274-5.416 12.216-11.974l-.025-2.885.892-2.686-.969-6.142C24.681 5.352 19.176.101 12.421.101" id="M"/><path d="M12.42.1l-.106.001C5.51.157.04 5.518.098 12.075l.103 11.713c.057 6.558 5.619 11.83 12.423 11.774 6.804-.055 12.274-5.416 12.216-11.974l-.025-2.885.892-2.686-.969-6.142C24.681 5.352 19.176.101 12.421.101" id="O"/><path d="M15.737.165L1.892.353.046.37c.14 19.879 2.222 69.262 2.327 71.606l11.314-.613c-.023-.501-1.68-39.744-2.18-62.613h4.173s9.724 62.454 9.722 62.964l11.327.067c.003-.583-9.803-51.98-9.664-71.723 0 0-11.327.04-11.328.108z" id="Q"/><path d="M15.737.165L1.892.353.046.37c.14 19.879 2.222 69.262 2.327 71.606l11.314-.613c-.023-.501-1.68-39.744-2.18-62.613h4.173s9.724 62.454 9.722 62.964l11.327.067c.003-.583-9.803-51.98-9.664-71.723 0 0-11.327.04-11.328.108z" id="S"/><path d="M11.354 8.662c-.249-3.247-.383-6.167-.366-8.605 0 0-8.625.03-10.823.083v8.522h11.189" id="U"/><path d="M3.011.032c-.301.062-.86.178-1.404.432L1.535.5C.81.857.134 1.472.174 2.55c.023.624.55 1.108 1.178 1.085.158-.007.308-.044.442-.108l.016-.008c.355-.174.604-.527.632-.936.114-.07.4-.209 1.032-.34a1.13 1.13 0 0 0 .88-1.335A1.135 1.135 0 0 0 3.012.032" id="W"/></defs><g transform="translate(0 -3)" fill="none" fill-rule="evenodd"><use stroke="#00B08D" mask="url(#b)" stroke-width="2" fill="#FFF" xlink:href="#a"/><path d="M136.56 30.952c0 .645-.079 1.225-.236 1.74a3.565 3.565 0 0 1-.704 1.312 3.11 3.11 0 0 1-1.16.832c-.461.195-.996.292-1.604.292a6.511 6.511 0 0 1-1.672-.216l.096-1.12a.431.431 0 0 1 .124-.256c.067-.064.164-.096.292-.096.096 0 .22.02.372.06.152.04.35.06.596.06.325 0 .615-.048.868-.144.253-.096.467-.247.64-.452.173-.205.304-.47.392-.792.088-.323.132-.713.132-1.172v-7.52h1.864v7.472zm9.052-.272l-1.584-4.208a11.65 11.65 0 0 1-.392-1.24 8.19 8.19 0 0 1-.192.692c-.07.21-.133.396-.192.556l-1.584 4.2h3.944zm3.544 4.32h-1.448a.613.613 0 0 1-.4-.124.806.806 0 0 1-.232-.308l-.96-2.544h-4.96l-.96 2.544a.766.766 0 0 1-.224.296.596.596 0 0 1-.4.136h-1.448l4.568-11.52h1.896L149.156 35zm10.956-5.672v4.56c-1.147.827-2.48 1.24-4 1.24-.933 0-1.777-.145-2.532-.436a5.624 5.624 0 0 1-1.932-1.216 5.326 5.326 0 0 1-1.232-1.86c-.288-.72-.432-1.512-.432-2.376 0-.87.139-1.665.416-2.388a5.298 5.298 0 0 1 1.192-1.864 5.346 5.346 0 0 1 1.872-1.208c.73-.285 1.552-.428 2.464-.428.464 0 .895.036 1.292.108.397.072.767.172 1.108.3a5.178 5.178 0 0 1 1.736 1.072l-.536.856a.533.533 0 0 1-.328.248c-.133.032-.277 0-.432-.096l-.492-.288a4.292 4.292 0 0 0-1.372-.5 5.616 5.616 0 0 0-1.04-.084 4.3 4.3 0 0 0-1.644.3c-.488.2-.905.485-1.252.856-.347.37-.613.82-.8 1.348a5.278 5.278 0 0 0-.28 1.768c0 .688.099 1.303.296 1.844.197.541.477 1 .84 1.376.363.376.801.663 1.316.86.515.197 1.09.296 1.724.296.475 0 .897-.05 1.268-.152.37-.101.735-.243 1.092-.424v-2.288h-1.608a.398.398 0 0 1-.288-.1.344.344 0 0 1-.104-.26v-1.064h3.688zm12.76 1.352l-1.584-4.208a11.65 11.65 0 0 1-.392-1.24 8.19 8.19 0 0 1-.192.692c-.07.21-.133.396-.192.556l-1.584 4.2h3.944zm3.544 4.32h-1.448a.613.613 0 0 1-.4-.124.806.806 0 0 1-.232-.308l-.96-2.544h-4.96l-.96 2.544a.766.766 0 0 1-.224.296.596.596 0 0 1-.4.136h-1.448l4.568-11.52h1.896L176.416 35zm-6.256-13.336a.898.898 0 0 1-.08.376 1.004 1.004 0 0 1-.92.592.919.919 0 0 1-.368-.076.981.981 0 0 1-.516-.516.967.967 0 0 1 0-.756 1.017 1.017 0 0 1 .516-.532.88.88 0 0 1 .368-.08c.133 0 .261.027.384.08a1.026 1.026 0 0 1 .536.532c.053.12.08.247.08.38zm3.432 0a.898.898 0 0 1-.08.376 1.04 1.04 0 0 1-.212.308.981.981 0 0 1-.308.208.938.938 0 0 1-.376.076.958.958 0 0 1-.384-.076 1.03 1.03 0 0 1-.312-.208.95.95 0 0 1-.288-.684.967.967 0 0 1 .288-.696c.09-.09.195-.163.312-.216a.917.917 0 0 1 .384-.08c.133 0 .259.027.376.08.117.053.22.125.308.216.088.09.159.196.212.316.053.12.08.247.08.38zM181.604 29c.427 0 .8-.052 1.12-.156.32-.104.587-.25.8-.436.213-.187.373-.41.48-.668.107-.259.16-.545.16-.86 0-.63-.208-1.11-.624-1.44-.416-.33-1.045-.496-1.888-.496h-1.52V29h1.472zm5.424 6h-1.672c-.33 0-.57-.128-.72-.384l-2.688-3.88a.887.887 0 0 0-.296-.288c-.107-.059-.267-.088-.48-.088h-1.04V35h-1.872V23.48h3.392c.757 0 1.41.077 1.956.232.547.155.996.375 1.348.66.352.285.612.628.78 1.028.168.4.252.845.252 1.336 0 .4-.06.773-.18 1.12-.12.347-.293.661-.52.944a3.337 3.337 0 0 1-.836.736c-.33.208-.707.37-1.128.488.23.139.427.333.592.584L187.028 35zm13.568-1.512L200.588 35h-7.184V23.48h7.184v1.512h-5.304v3.472h4.24v1.464h-4.24v3.56h5.312zm9.18-.056V35h-6.656V23.48h1.872v9.952h4.784zm9.3.056L219.068 35h-7.184V23.48h7.184v1.512h-5.304v3.472h4.24v1.464h-4.24v3.56h5.312zM231.24 23.48L226.568 35h-1.688l-4.672-11.52h1.496c.165 0 .299.041.4.124a.806.806 0 0 1 .232.308l2.968 7.512c.16.421.307.907.44 1.456.059-.272.121-.53.188-.776a7.04 7.04 0 0 1 .22-.68l2.96-7.512a.766.766 0 0 1 .224-.296.596.596 0 0 1 .4-.136h1.504zm16.568 5.76c0 .853-.139 1.64-.416 2.36a5.454 5.454 0 0 1-1.172 1.86c-.504.52-1.11.927-1.816 1.22-.707.293-1.492.44-2.356.44-.859 0-1.641-.147-2.348-.44a5.396 5.396 0 0 1-1.82-1.22 5.423 5.423 0 0 1-1.176-1.86 6.512 6.512 0 0 1-.416-2.36c0-.853.139-1.64.416-2.36.277-.72.67-1.341 1.176-1.864a5.367 5.367 0 0 1 1.82-1.224c.707-.293 1.49-.44 2.348-.44.864 0 1.65.147 2.356.44a5.324 5.324 0 0 1 1.816 1.224 5.497 5.497 0 0 1 1.172 1.864c.277.72.416 1.507.416 2.36zm-1.912 0c0-.661-.09-1.256-.268-1.784a3.775 3.775 0 0 0-.768-1.344 3.343 3.343 0 0 0-1.212-.848 4.132 4.132 0 0 0-1.6-.296 4.11 4.11 0 0 0-1.592.296c-.475.197-.88.48-1.216.848a3.79 3.79 0 0 0-.776 1.344c-.181.528-.272 1.123-.272 1.784 0 .667.09 1.264.272 1.792.181.528.44.975.776 1.34.336.365.741.645 1.216.84a4.16 4.16 0 0 0 1.592.292c.592 0 1.125-.097 1.6-.292a3.324 3.324 0 0 0 1.212-.84c.333-.365.59-.812.768-1.34.179-.528.268-1.125.268-1.792zm12.46 3.192c.101 0 .19.04.264.12l.744.808a4.736 4.736 0 0 1-1.728 1.308c-.683.307-1.499.46-2.448.46-.843 0-1.604-.145-2.284-.436a5.02 5.02 0 0 1-1.74-1.216c-.48-.52-.85-1.14-1.108-1.86-.259-.72-.388-1.512-.388-2.376 0-.864.137-1.657.412-2.38a5.459 5.459 0 0 1 1.16-1.864 5.21 5.21 0 0 1 1.792-1.212c.696-.288 1.463-.432 2.3-.432.832 0 1.567.135 2.204.404a5.45 5.45 0 0 1 1.66 1.076l-.616.872a.685.685 0 0 1-.152.152.4.4 0 0 1-.24.064c-.107 0-.228-.05-.364-.148a5.738 5.738 0 0 0-.52-.328c-.21-.12-.475-.23-.792-.328-.317-.099-.713-.148-1.188-.148-.55 0-1.053.096-1.512.288a3.269 3.269 0 0 0-1.184.84c-.33.368-.588.816-.772 1.344-.184.528-.276 1.128-.276 1.8 0 .677.096 1.281.288 1.812.192.53.456.979.792 1.344.336.365.73.644 1.184.836.453.192.941.288 1.464.288.32 0 .607-.017.86-.052a3.238 3.238 0 0 0 1.304-.46c.19-.117.377-.261.564-.432a.482.482 0 0 1 .32-.144zm12.668-8.952V35h-1.872v-5.128h-5.784V35h-1.88V23.48h1.88v5.04h5.784v-5.04h1.872zm-129.016 20L137.336 55h-1.688l-4.672-11.52h1.496c.165 0 .299.041.4.124a.806.806 0 0 1 .232.308l2.968 7.512c.16.421.307.907.44 1.456.059-.272.121-.53.188-.776a7.04 7.04 0 0 1 .22-.68l2.96-7.512a.766.766 0 0 1 .224-.296.596.596 0 0 1 .4-.136h1.504zM145.732 55h-1.88V43.48h1.88V55zm9.892-1.568V55h-6.656V43.48h1.872v9.952h4.784zm8.764 0V55h-6.656V43.48h1.872v9.952h4.784zm12.136-7.984a.706.706 0 0 1-.184.212.405.405 0 0 1-.24.068.623.623 0 0 1-.34-.128 6.666 6.666 0 0 0-.464-.284 4.068 4.068 0 0 0-.652-.288 2.712 2.712 0 0 0-.896-.132c-.32 0-.601.04-.844.12-.243.08-.447.192-.612.336-.165.144-.29.313-.372.508a1.61 1.61 0 0 0-.124.636c0 .293.077.537.232.732.155.195.359.361.612.5s.543.26.868.364c.325.104.657.215.996.332.339.117.67.25.996.4.325.15.615.339.868.568.253.23.457.51.612.84.155.33.232.733.232 1.208 0 .512-.088.992-.264 1.44-.176.448-.43.839-.764 1.172a3.558 3.558 0 0 1-1.232.788c-.488.192-1.044.288-1.668.288-.368 0-.727-.036-1.076-.108a5.576 5.576 0 0 1-1-.304 5.006 5.006 0 0 1-.892-.476 4.477 4.477 0 0 1-.744-.624l.544-.896a.528.528 0 0 1 .184-.176.491.491 0 0 1 .248-.064c.123 0 .259.057.408.172.15.115.33.24.54.376.21.136.465.261.764.376.299.115.656.172 1.072.172.677 0 1.201-.165 1.572-.496.37-.33.556-.787.556-1.368 0-.325-.077-.59-.232-.796a1.884 1.884 0 0 0-.612-.516 4.397 4.397 0 0 0-.868-.352 37.575 37.575 0 0 1-.992-.308 9.762 9.762 0 0 1-.992-.384 3.157 3.157 0 0 1-.868-.576 2.668 2.668 0 0 1-.612-.88c-.155-.35-.232-.785-.232-1.308a3.104 3.104 0 0 1 .956-2.244 3.484 3.484 0 0 1 1.156-.724c.459-.181.981-.272 1.568-.272.661 0 1.268.104 1.82.312a4.145 4.145 0 0 1 1.428.888l-.456.896zm5.076 2.96h.536c.203 0 .368-.028.496-.084a.93.93 0 0 0 .344-.268l3.488-4.16c.123-.155.25-.263.38-.324s.295-.092.492-.092h1.6l-4.12 4.864c-.112.139-.22.255-.324.348-.104.093-.217.17-.34.228.16.059.304.14.432.244.128.104.253.241.376.412L189.232 55H187.6c-.117 0-.217-.008-.3-.024a.79.79 0 0 1-.216-.072.6.6 0 0 1-.16-.12 1.065 1.065 0 0 1-.124-.16l-3.6-4.4a1.314 1.314 0 0 0-.16-.176.709.709 0 0 0-.188-.12.933.933 0 0 0-.244-.068 2.23 2.23 0 0 0-.32-.02h-.688V55h-1.872V43.48h1.872v4.928zm15.516 2.272l-1.584-4.208a11.65 11.65 0 0 1-.392-1.24 8.19 8.19 0 0 1-.192.692c-.07.21-.133.396-.192.556l-1.584 4.2h3.944zM200.66 55h-1.448a.613.613 0 0 1-.4-.124.806.806 0 0 1-.232-.308l-.96-2.544h-4.96l-.96 2.544a.766.766 0 0 1-.224.296.596.596 0 0 1-.4.136h-1.448l4.568-11.52h1.896L200.66 55zm5.428-5.648c.416 0 .783-.053 1.1-.16.317-.107.581-.257.792-.452.21-.195.37-.43.476-.708.107-.277.16-.587.16-.928 0-.336-.052-.637-.156-.904a1.758 1.758 0 0 0-.468-.68 2.09 2.09 0 0 0-.788-.428 3.772 3.772 0 0 0-1.116-.148h-1.712v4.408h1.712zm0-5.872c.752 0 1.404.088 1.956.264.552.176 1.008.423 1.368.74.36.317.628.699.804 1.144.176.445.264.937.264 1.476 0 .55-.093 1.052-.28 1.508a3.158 3.158 0 0 1-.832 1.176c-.368.328-.825.584-1.372.768-.547.184-1.183.276-1.908.276h-1.712V55h-1.872V43.48h3.584zm11.98 7.2l-1.584-4.208a11.65 11.65 0 0 1-.392-1.24 8.19 8.19 0 0 1-.192.692c-.07.21-.133.396-.192.556l-1.584 4.2h3.944zm3.544 4.32h-1.448a.613.613 0 0 1-.4-.124.806.806 0 0 1-.232-.308l-.96-2.544h-4.96l-.96 2.544a.766.766 0 0 1-.224.296.596.596 0 0 1-.4.136h-1.448l4.568-11.52h1.896L221.612 55zm7.664-6.592h.536c.203 0 .368-.028.496-.084a.93.93 0 0 0 .344-.268l3.488-4.16c.123-.155.25-.263.38-.324s.295-.092.492-.092h1.6l-4.12 4.864c-.112.139-.22.255-.324.348-.104.093-.217.17-.34.228.16.059.304.14.432.244.128.104.253.241.376.412L236.908 55h-1.632c-.117 0-.217-.008-.3-.024a.79.79 0 0 1-.216-.072.6.6 0 0 1-.16-.12 1.065 1.065 0 0 1-.124-.16l-3.6-4.4a1.314 1.314 0 0 0-.16-.176.709.709 0 0 0-.188-.12.933.933 0 0 0-.244-.068 2.23 2.23 0 0 0-.32-.02h-.688V55h-1.872V43.48h1.872v4.928zm19.604.832c0 .853-.139 1.64-.416 2.36a5.454 5.454 0 0 1-1.172 1.86c-.504.52-1.11.927-1.816 1.22-.707.293-1.492.44-2.356.44-.859 0-1.641-.147-2.348-.44a5.396 5.396 0 0 1-1.82-1.22 5.423 5.423 0 0 1-1.176-1.86 6.512 6.512 0 0 1-.416-2.36c0-.853.139-1.64.416-2.36.277-.72.67-1.341 1.176-1.864a5.367 5.367 0 0 1 1.82-1.224c.707-.293 1.49-.44 2.348-.44.864 0 1.65.147 2.356.44a5.324 5.324 0 0 1 1.816 1.224 5.497 5.497 0 0 1 1.172 1.864c.277.72.416 1.507.416 2.36zm-1.912 0c0-.661-.09-1.256-.268-1.784a3.775 3.775 0 0 0-.768-1.344 3.343 3.343 0 0 0-1.212-.848 4.132 4.132 0 0 0-1.6-.296 4.11 4.11 0 0 0-1.592.296c-.475.197-.88.48-1.216.848a3.79 3.79 0 0 0-.776 1.344c-.181.528-.272 1.123-.272 1.784 0 .667.09 1.264.272 1.792.181.528.44.975.776 1.34.336.365.741.645 1.216.84a4.16 4.16 0 0 0 1.592.292c.592 0 1.125-.097 1.6-.292a3.324 3.324 0 0 0 1.212-.84c.333-.365.59-.812.768-1.34.179-.528.268-1.125.268-1.792zm13.996-5.76V55h-.952a.816.816 0 0 1-.368-.076.86.86 0 0 1-.288-.252l-6.328-8.128a9.137 9.137 0 0 1 .048.88V55h-1.648V43.48h.976c.08 0 .148.004.204.012a.586.586 0 0 1 .156.044.454.454 0 0 1 .136.096c.043.043.088.096.136.16l6.336 8.136a10.522 10.522 0 0 1-.048-.936V43.48h1.64zm11.172 1.56h-3.592V55h-1.864v-9.96h-3.6v-1.56h9.056v1.56zm12.924 4.2c0 .853-.139 1.64-.416 2.36a5.454 5.454 0 0 1-1.172 1.86c-.504.52-1.11.927-1.816 1.22-.707.293-1.492.44-2.356.44-.859 0-1.641-.147-2.348-.44a5.396 5.396 0 0 1-1.82-1.22 5.423 5.423 0 0 1-1.176-1.86 6.512 6.512 0 0 1-.416-2.36c0-.853.139-1.64.416-2.36.277-.72.67-1.341 1.176-1.864a5.367 5.367 0 0 1 1.82-1.224c.707-.293 1.49-.44 2.348-.44.864 0 1.65.147 2.356.44a5.324 5.324 0 0 1 1.816 1.224 5.497 5.497 0 0 1 1.172 1.864c.277.72.416 1.507.416 2.36zm-1.912 0c0-.661-.09-1.256-.268-1.784a3.775 3.775 0 0 0-.768-1.344 3.343 3.343 0 0 0-1.212-.848 4.132 4.132 0 0 0-1.6-.296 4.11 4.11 0 0 0-1.592.296c-.475.197-.88.48-1.216.848a3.79 3.79 0 0 0-.776 1.344c-.181.528-.272 1.123-.272 1.784 0 .667.09 1.264.272 1.792.181.528.44.975.776 1.34.336.365.741.645 1.216.84a4.16 4.16 0 0 0 1.592.292c.592 0 1.125-.097 1.6-.292a3.324 3.324 0 0 0 1.212-.84c.333-.365.59-.812.768-1.34.179-.528.268-1.125.268-1.792z" fill="#00B08D"/><g transform="translate(2)"><mask id="d" fill="#fff"><use xlink:href="#c"/></mask><g mask="url(#d)"><path d="M72 69.233l9.23-14.684 3.052-6.148-9.383-1.65c-.186.097-8.813 16.806-8.813 16.806l-3.799-3.718-6.415 4.609s6.498 7.79 10.065 8.507C69.503 73.67 72 69.233 72 69.233" fill="#F7921E"/><path fill="#754C28" d="M107.648 59.054l-25.732 2.651-7.45-44.056 26.871-1.597z"/><path d="M114.055 49.481c0 4.523-3.784 8.19-8.451 8.19-4.667 0-8.451-3.667-8.451-8.19s3.784-8.19 8.451-8.19c4.667 0 8.45 3.667 8.45 8.19" fill="#754C28"/><path d="M119.197 60.589c0 4.474-3.743 8.102-8.36 8.102-4.619 0-8.362-3.628-8.362-8.102 0-4.475 3.743-8.103 8.361-8.103s8.361 3.628 8.361 8.103" fill="#754C28"/><path d="M102.31 74.437H89.168c-3.1 0-5.615-2.436-5.615-5.442V44.93c0-3.005 2.514-5.442 5.615-5.442h13.142c3.101 0 5.615 2.437 5.615 5.442v24.066c0 3.006-2.514 5.442-5.615 5.442" fill="#CC1F30"/><path fill="#E7C3B2" d="M93.335 47.931l-6.711.993-1.97-12.515 6.71-.992z"/><path d="M96.425 181.768c3.633-.849 7.262-1.75 10.897-2.62l-12.836-82.1c-.612-2.572-7.465-6.15-10.119-5.556-1.01.226-1.749.515-2.289 1.008a29.6 29.6 0 0 0-.505 2.93c-.3 2.631.03 5.216.527 7.784l17.56 77.148c-2.585.785-2.92 1.09-3.235 1.406M123.438 110.191l-9.115 13.196c-.493.774-.703.793-.793-.112l-2.878-28.818c-.378-3.38-5.15-4.136-7.796-3.51-4.003.947-6.28 4.517-5.269 8.659l8.696 31.201c2.78 7.12 9.599 4.324 12.71.065l10.073-15.93-5.628-4.75z" fill="#A6A8AB"/><path d="M95.675 42.926l-5.104.12c-1.554.152-3.11.286-4.672.379-1.09.065-2.232.122-3.31-.09a5.961 5.961 0 0 1-.398-.093h-.012l.685 6.529h13.984l-1.173-6.845z" fill="#E7C3B2"/><path d="M110.83 97.47c-.245-1.92-.368-3.89-.824-5.776-.357-1.48-.912-2.895-1.51-4.295l-25.155-.274c-.58 2.767-1.446 5.49-1.768 8.305a18.007 18.007 0 0 0-.112 1.778c2.327 1.773 9.174 3.715 9.174 3.715l11.526-1.1s8.682-.21 8.692-1.193c.004-.34.001-.678-.005-1.015a39.15 39.15 0 0 1-.019-.144" fill="#A6A8AB"/><path d="M84.252 83.913c-.024.04-.05.08-.076.12l.077-.12zM84.053 84.23c.047-.068.09-.136.132-.205-.044.069-.085.137-.132.206" fill="#939598"/><path d="M101.42 16.289c0 7.237-6.054 13.103-13.522 13.103s-13.521-5.866-13.521-13.103S80.43 3.186 87.897 3.186c7.469 0 13.523 5.866 13.523 13.103" fill="#754C28"/><path d="M77.985 25.208c.04 1.729-1.003 3.678-2.597 3.5-1.091-.123-2.001-1.942-2.042-3.67-.042-1.73.898-2.566 1.996-2.59 1.098-.026 2.601 1.03 2.643 2.76" fill="#E8C4B3"/><path d="M98.784 17.611a3.724 3.724 0 0 0-.089-.701c-1.909-13.743-22.82-12.7-23.621 1.07a3.71 3.71 0 0 0-.048.707l.187 4.71c.204 5.155 2.3 10.1 6.011 13.8 1.973 1.966 4.698 2.566 6.881 2.18 2.626-.466 4.887-2.085 7.086-4.657 2.998-3.508 3.948-8.154 3.767-12.704l-.174-4.405z" fill="#F4D4C4"/><path d="M101.434 25.008c-.642 1.942-2.358 3.703-3.592 3.32-1.234-.384-1.457-2.911-.815-4.853.642-1.942 2.022-2.524 3.255-2.14 1.234.383 1.794 1.73 1.152 3.673" fill="#F4D4C4"/><g transform="translate(74.882 6.755)"><mask id="f" fill="#fff"><use xlink:href="#e"/></mask><path d="M30.025-4.267C30.953 2.619 25.945 8.93 18.84 9.83c-7.105.899-13.616-3.955-14.544-10.841-.927-6.887 4.08-13.198 11.185-14.097 7.105-.9 13.616 3.955 14.544 10.84" fill="#754C28" mask="url(#f)"/></g><g transform="translate(74.882 6.755)"><mask id="h" fill="#fff"><use xlink:href="#g"/></mask><path d="M38.73 4.614c.73 5.42-3.21 10.386-8.802 11.094-5.59.708-10.715-3.112-11.445-8.532-.73-5.419 3.21-10.386 8.802-11.093 5.591-.708 10.716 3.112 11.446 8.531" fill="#754C28" mask="url(#h)"/></g><g transform="translate(74.882 6.755)"><mask id="j" fill="#fff"><use xlink:href="#i"/></mask><path d="M9.354-.081C10.21 6.26 5.597 12.073-.946 12.9c-6.544.828-12.54-3.642-13.395-9.984-.854-6.342 3.758-12.154 10.301-12.982C2.503-10.893 8.5-6.423 9.354-.081" fill="#754C28" mask="url(#j)"/></g><path d="M80.023 26.146c.669-.05 1.16-.623 1.11-1.257-.051-.633-.629-1.125-1.297-1.075-.654.05-1.161.624-1.11 1.257.05.634.643 1.124 1.297 1.075M89.6 25.423c.67-.05 1.161-.624 1.11-1.257-.05-.633-.628-1.125-1.297-1.075-.654.05-1.161.623-1.11 1.257.051.633.644 1.124 1.297 1.075" fill="#41345B"/><path d="M91.345 20.881a.638.638 0 0 1-.557-.203c-1.555-1.727-4.101-1.331-4.128-1.326a.62.62 0 0 1-.724-.497.61.61 0 0 1 .514-.701c.13-.022 3.271-.51 5.283 1.726.228.253.2.636-.06.857a.63.63 0 0 1-.328.144M76.43 21.676a.64.64 0 0 1-.477-.13.594.594 0 0 1-.095-.851c.062-.076 1.566-1.854 4.081-1.94a.62.62 0 0 1 .65.585.616.616 0 0 1-.605.63c-1.93.065-3.138 1.473-3.15 1.487a.631.631 0 0 1-.404.219" fill="#8A5D3B"/><path d="M87 35.656c2.035-.5 3.454-2.15 3.714-4.05l-8.974 2.207c1.165 1.55 3.223 2.344 5.26 1.843" fill="#FFF"/><path d="M91.303 88.109c0 .042-.047.41-.099 1.005" stroke="#808184" stroke-width=".867"/><path d="M91.119 90.512c-.075 1.77-.048 4.256.456 6.557" stroke="#808184" stroke-width=".867" stroke-dasharray="5.129599837684623,3.206399726486211"/><path d="M91.74 97.752c.095.33.201.654.32.97" stroke="#808184" stroke-width=".867"/><path d="M98.233 176.45s-9.285 3.536-9.732 4.244c-.165.261-.418.693 1.238.949 5.953.429 15.857.242 15.857.242 1.079-.112 1.63-.65 1.63-1.443l-.981-4.424c-3.364.068-4.668.703-8.012.432M136.418 119.115c-.836.32-8.565-3.31-8.565-3.31a35.554 35.554 0 0 1-.22-.206c-2.26-2.144-2.798-3.167-5.322-5.058l1.573-1.848a1.06 1.06 0 0 1 .307-.234l.853-.974c.292-.332 1.747.236 2.67.79 0 0 4.853 4.676 8.378 9.31 1.126 1.207.633 1.413.326 1.53" fill="#A87C4F"/><path d="M92.604 102.127l12.361 73.491M108.404 96.293l3.788 29.003c.11.848 1.247 1.107 1.737.397l8.382-12.155" stroke="#808184" stroke-width=".867" stroke-dasharray="4.62359973051548,2.889599818611146"/><g><g transform="translate(80.706 85.615)"><mask id="l" fill="#fff"><use xlink:href="#k"/></mask><path d="M1.315-.795l-4.097-.04-.045 4.412 3.248.032c.355-1.46.693-2.922.894-4.404" fill="#929497" mask="url(#l)"/></g><g transform="translate(80.706 85.615)"><mask id="n" fill="#fff"><use xlink:href="#m"/></mask><path d="M25.928-2.005L2.823.721c-.003 1.496-.63 3.045-.787 4.536L28.05 2.203c-.722-1.422-1.31-2.828-2.123-4.208" fill="#929497" mask="url(#n)"/></g><g transform="translate(80.706 85.615)"><mask id="p" fill="#fff"><use xlink:href="#o"/></mask><path d="M29.457-.518c.677 1.296 1.258 2.632 1.557 4.085a.92.92 0 0 1 .007.342l2.903.029.045-4.412-4.512-.044z" fill="#929497" mask="url(#p)"/></g><g transform="translate(80.706 85.615)"><mask id="r" fill="#fff"><use xlink:href="#q"/></mask><path fill="#D0D2D3" mask="url(#r)" d="M15.962 3.615l-6.474.763-.536-4.38 6.473-.764z"/></g></g><g><path d="M46.06 168.426l-18.269 8.354c-1.413.384-2.667 2.067-3.102 3.726h21.976l-.605-12.08zM76.66 176.78L57.984 168.2l-.242 12.307h22.02c-.436-1.659-1.689-3.342-3.102-3.726" fill="#6D6E70"/><path d="M51.217 47.002c0 .771-3.093 1.396-7.041 1.396-3.948 0-7.149-.625-7.149-1.396 0-.771 3.201-1.396 7.149-1.396s7.04.625 7.04 1.396" fill="#D0D2D3"/><path fill="#E7C3B2" d="M48.846 48.33h-8.913v-6.298h8.913z"/></g><g transform="translate(10.824 64.962)"><mask id="t" fill="#fff"><use xlink:href="#s"/></mask><path fill="#E7C3B2" mask="url(#t)" d="M.013.014H8.3v5.493H.013z"/></g><g transform="translate(7.588 56.825)"><mask id="v" fill="#fff"><use xlink:href="#u"/></mask><path fill="#E7C3B2" mask="url(#v)" d="M-2.847.823L10.77-2.495l3.537 12.72L.689 13.542z"/></g><path d="M12.706 58.563a1.611 1.611 0 0 1-1.279-.206c-.566-.363-1.728-.827-2.197-.797-.253.37-.66.634-1.142.69a1.604 1.604 0 0 1-1.782-1.398c-.076-.642.176-2.105 2.296-2.516.942-.182 2.615 1.356 5.36 2.72.793.394.955 1.467.472 2.207-.227.347-1.354-.797-1.728-.7" fill="#E7C3B2"/><g><path d="M14.944 56.585c-.757.197-2.273 1.548-2.614 4.59-.315 2.818.153 5.932 3.644 5.538.293-.033 1.95-.652 1.95-.652l-.128-.997c.852-1.734 1.084-4.437.353-6.142-.82-1.912-1.03-2.569-1.912-2.569-.321 0-.731.087-1.293.232" fill="#E7C3B2"/></g><g><path d="M10.745 62.792a1.72 1.72 0 0 1-1.431-.282c-1.882-1.396-3.506-2.602-3.753-4.575-.106-.844.537-1.61 1.437-1.71.9-.098 1.714.506 1.82 1.351.08.636.87 1.286 2.53 2.518.71.527.83 1.496.269 2.163-.23.273-.539.454-.872.535" fill="#F3D3C3"/><path d="M9.374 64.798a1.72 1.72 0 0 1-1.431-.282c-2.238-1.66-2.564-2.563-2.772-4.225-.105-.844.538-1.61 1.437-1.71.9-.098 1.715.506 1.82 1.35.125.996.141 1.124 1.548 2.169.71.527.831 1.496.27 2.163-.23.273-.539.454-.872.535" fill="#F3D3C3"/><path d="M17.835 51.237c-1.332.854-2.184 5.119-1.512 7.806" stroke="#E7C3B2" stroke-width="3.2" stroke-linecap="round"/></g><g><path d="M7.83 54.491c-.855.098-1.466.846-1.366 1.67.165 1.354 1.424 2.817 4.347 5.049.398.305.903.39 1.36.276.316-.08.61-.256.828-.524a1.47 1.47 0 0 0-.257-2.114c-2.774-2.119-3.14-2.904-3.186-3.058-.103-.755-.77-1.31-1.543-1.31-.06 0-.122.004-.183.011" fill="#F3D3C3"/></g><g><path d="M24.56 87.36c-1.826 0-3.31-.32-5.078-1.409-.848-.522-2.181-2.004-3.37-3.806-1.863-2.824-4.389-7.697-5.848-14.874l7.444-1.413c.628-.119 1.234.27 1.373.873 1.92 8.356 5.536 12.756 6.7 13.664-.7-.546-2.469-1.109-4.234-.294-1.504.695-2.477 2.184-2.477 3.795l7.911-.357c0 2.196.288 3.588-1.974 3.8a4.787 4.787 0 0 1-.447.021" fill="#EF5A28"/><path d="M25.007 87.34c-2.717 0-6.374-1.72-6.374-4.345 0-.836.173-3.95 3.185-8.723.15-2.177 1.41-9.421 1.487-9.734.6-2.55 3.22-4.152 5.864-3.585 2.652.57 4.324 3.109 3.734 5.671-.062.269-.316 1.206-1.262 4.79-.922 3.496-2.15 7.438-2.972 10.592-.58 2.228-1.209 5.333-3.662 5.333M68.5 62.057c-.626-.954-1.207-1.943-1.87-2.876l-.8-.924c-1.498-1.732-2.978-3.48-4.55-5.152-1.342-1.428-2.825-2.722-4.36-3.955-.751-.479-2.364-1.342-3.156-1.756-.982.13-1.043.846-1.871 1.492-2.432 1.893-.138 8.682 1.821 11.03 3.172 3.805 8.818 6.834 9.022 15.495.005.226-.865 3.184-.865 3.184s6.97 3.52 7.446 3.408c2.418-.573 4.654-3.06 5.203-5.525.753-3.38-1.324-7.177-4.283-12.05-.596-.778-1.2-1.552-1.737-2.37" fill="#EF5A28"/><path d="M26.688 55.255c-.87 1.482-1.458 3.092-2.101 4.676-1.157 3.607-2.174 7.296-1.495 7.282l3.667 2.715 5.168.409-1.253-20.084c-1.555 1.496-2.917 3.182-3.986 5.002" fill="#EF5A28"/><path d="M59.248 51.122a36.252 36.252 0 0 0-2.263-1.99c-.804-.513-3.139-1.81-4.486-2.26-1.667-.558-3.407-.822-5.157-.983-1.72-.157-3.431-.234-5.157-.179-1.64.053-3.129.46-4.723.773-1.074.348-2.179.728-3.186 1.224-.837.412-1.568.989-2.374 1.445-.44.37-.87.754-1.284 1.155 0 0 1.695 25.374 1.74 30.96.11 13.55-.215 20.024 1.383 20.047l22.912.329c1.459.02 2.653-1.118 2.651-2.528l-.056-47.993z" fill="#F6911E"/></g><g><g transform="translate(37.457 45.56)"><mask id="x" fill="#fff"><use xlink:href="#w"/></mask><path d="M.114 1.775l2.11 6.509c.203.625.999.842 1.505.409L7.755 5.25S4.917 4.973 4.1 4.006c-.816-.968-2.784-2.701-2.784-2.701l-1.2.47z" fill="#EF5A28" mask="url(#x)"/></g><g transform="translate(37.457 45.56)"><mask id="z" fill="#fff"><use xlink:href="#y"/></mask><path d="M13.74.766c-.055.73-.231 1.556-.675 2.248-1.062 1.655-3.013 2.585-3.013 2.585l3.615 2.328c.505.325 1.18-.011 1.207-.6l.416-5.722c-.506-.297-1.03-.566-1.55-.839" fill="#EF5A28" mask="url(#z)"/></g><g transform="translate(27 45.56)"><mask id="B" fill="#fff"><use xlink:href="#A"/></mask><path d="M24.678.148c-.606 3.785-4.249 6.376-8.137 5.786-3.888-.59-6.55-4.137-5.943-7.922.606-3.785 4.249-6.376 8.137-5.786 3.888.59 6.549 4.137 5.943 7.922" fill="#E5E6E7" mask="url(#B)"/></g><g transform="translate(27 45.56)"><mask id="D" fill="#fff"><use xlink:href="#C"/></mask><path d="M22.836-.514c-.452 2.823-3.169 4.755-6.07 4.315-2.9-.44-4.884-3.085-4.432-5.909.452-2.823 3.17-4.755 6.07-4.315 2.9.44 4.884 3.085 4.432 5.909" fill="#E7C3B2" mask="url(#D)"/></g></g><g><path d="M37.68 45.223a.5.5 0 0 0-.373.625l1.832 6.19c.194.622.988.847 1.5.424l4.075-3.36s-2.837-.31-3.641-1.28c-.805-.968-1.442-3.07-1.442-3.07l-1.95.471zM49.572 44.828c.07.581-.002 1.204-1.026 2.623-1.145 1.588-2.3 2.685-2.3 2.685l3.496 2.476c.488.345 1.181.045 1.237-.537l.59-6.128a.708.708 0 0 0-.496-.744c-.38-.122-1.241-.307-1.501-.375" fill="#E5E6E7"/><path d="M41.322 6.416s-1.938-.963-2.71-1.08c-.772-.115 3.413-.966 5.548.207-.365-.907-1.706-1.243-1.706-1.243s4.228.321 6.293 1.931c2.066 1.61-1.136 1.847-1.136 1.847l-4.796-.54-1.493-1.122z" fill="#A77C4F"/><path d="M58.932 21.34c-.113-7.331-4.324-14.085-12.273-15.28-7.949-1.193-15.343 3.712-16.514 10.956-1.17 7.244.066 12.024.066 12.024l28.567 1.126s.23-3.906.154-8.826" fill="#A77C4F"/><path d="M32.895 33.49l-.5.093c-1.343.253-2.643-.592-2.905-1.885l-.474-2.344c-.262-1.293.614-2.547 1.956-2.8l.5-.093c1.343-.253 2.644.592 2.906 1.886l.474 2.343c.261 1.294-.615 2.547-1.957 2.8" fill="#E7C3B2"/><path d="M44.136 42.896c-6.828.055-12.41-5.235-12.467-11.816l-.103-11.754c-.058-6.58 5.43-11.96 12.258-12.016 6.827-.055 12.409 5.234 12.467 11.815l.103 11.754c.057 6.581-5.43 11.961-12.258 12.017" fill="#F3D3C3"/><path d="M56.497 33.474l-.562-.111c-1.509-.3-2.48-1.72-2.17-3.174l.561-2.633c.31-1.454 1.784-2.39 3.293-2.091l.562.111c1.508.3 2.48 1.72 2.17 3.174l-.562 2.633c-.31 1.454-1.784 2.39-3.292 2.091" fill="#F3D3C3"/><path d="M49.429 29.529c-.087.536-.608.903-1.164.82-.557-.084-.938-.586-.851-1.123.087-.536.608-.903 1.164-.82.557.084.938.586.85 1.123M39.526 29.684c-.087.536-.608.903-1.165.82-.556-.084-.937-.586-.85-1.123.087-.536.608-.904 1.164-.82.557.084.938.586.851 1.123" fill="#41345B"/><path d="M44.478 39.746c-1.048-.19-2.296-.766-2.665-1.505 2.786-.515 5.433-1.19 7.016-1.784.463.57.2 1.785-.372 2.243-1.411 1.13-2.835 1.253-3.979 1.046" fill="#FFF"/></g><g><g transform="translate(30.882 8.007)"><mask id="F" fill="#fff"><use xlink:href="#E"/></mask><path d="M34.636 8.326c.84-5.189-2.845-10.051-8.23-10.86C21.023-3.342 15.978.21 15.14 5.398c-.84 5.19 2.845 10.052 8.23 10.86 5.383.809 10.428-2.742 11.267-7.932" fill="#A77C4F" mask="url(#F)"/></g><g transform="translate(30.882 8.007)"><mask id="H" fill="#fff"><use xlink:href="#G"/></mask><path d="M31.772 17.384c.37-2.289-1.255-4.433-3.63-4.79-2.373-.356-4.598 1.21-4.968 3.498-.37 2.289 1.255 4.433 3.629 4.79 2.374.356 4.6-1.21 4.97-3.498" fill="#A77C4F" mask="url(#H)"/></g><g transform="translate(30.882 8.007)"><mask id="J" fill="#fff"><use xlink:href="#I"/></mask><path d="M11.988 6.664C13.054.07 8.372-6.109 1.53-7.136-5.311-8.165-11.722-3.653-12.788 2.942c-1.066 6.594 3.616 12.773 10.458 13.8 6.841 1.028 13.252-3.485 14.318-10.079" fill="#A77C4F" mask="url(#J)"/></g><g transform="translate(30.882 8.007)"><mask id="L" fill="#fff"><use xlink:href="#K"/></mask><path d="M18.398 5.763C19.464-.831 14.783-7.01 7.941-8.037 1.099-9.066-5.311-4.554-6.377 2.041c-1.067 6.594 3.615 12.773 10.457 13.8 6.842 1.028 13.252-3.485 14.318-10.079" fill="#A77C4F" mask="url(#L)"/></g><g transform="translate(30.882 8.007)"><mask id="N" fill="#fff"><use xlink:href="#M"/></mask><path d="M11.957 10.41C13.023 3.817 8.34-2.361 1.499-3.39-5.342-4.418-11.753.095-12.819 6.69c-1.066 6.594 3.616 12.773 10.457 13.8 6.842 1.028 13.252-3.485 14.319-10.08" fill="#F3D3C3" mask="url(#N)"/></g><g transform="translate(30.882 8.007)"><mask id="P" fill="#fff"><use xlink:href="#O"/></mask><path d="M15.02 4.33C16.204-2.99 11.007-9.848 3.413-10.99-4.181-12.129-11.297-7.12-12.48.2-13.664 7.52-8.467 14.377-.873 15.517 6.722 16.658 13.837 11.65 15.02 4.33" fill="#A77C4F" mask="url(#P)"/></g></g><g><path d="M29.926 23.98c-.029-.14-.61-2.297.268-6.092.833-3.596 3.239-8.309 9.972-10.338 5.083-1.532 9.58-.572 13.006 2.777 2.642 2.584 3.901 5.878 4.315 6.96.041.107.071.188.093.24.131.266.495 1.14.688 8.22l-2.851.072c-.08-2.953-.276-6.505-.452-7.195a7.92 7.92 0 0 1-.153-.384c-1.912-4.999-5.857-10.456-13.796-8.063-4.361 1.314-7.066 4.11-8.038 8.31-.748 3.231-.262 4.92-.256 4.948l-2.796.544z" fill="#A77C4F"/><path d="M50.647 27.978c-.443-1.087-1.284-1.755-2.498-1.986-.932-.177-1.751-.025-1.76-.024l-.245-1.155c1.449-.287 4.492-.084 5.64 2.734l-1.137.431zM35.507 28.179l-1.045-.612c.668-1.06 2.587-2.68 4.892-2.515l-.09 1.176c-1.829-.13-3.32 1.257-3.757 1.95" fill="#A77C4F"/><path d="M48.529 101.158l-13.783.19-1.838.015c.14 19.952 2.213 69.517 2.316 71.87l11.264-.615c-.023-.503-1.672-39.891-2.17-62.844h4.154s9.681 62.684 9.678 63.196l11.277.067c.003-.585-9.76-52.172-9.62-71.987 0 0-11.277.04-11.278.108" fill="#585380"/></g><g><g transform="translate(32.824 100.636)"><mask id="R" fill="#fff"><use xlink:href="#Q"/></mask><path fill="#41345B" mask="url(#R)" d="M28.238 2.039l-29.127.677-.076-3.007 29.127-.677z"/></g><g transform="translate(32.824 100.636)"><mask id="T" fill="#fff"><use xlink:href="#S"/></mask><path fill="#919396" mask="url(#T)" d="M15.808 2.34l-5.291.123-.076-3.007 5.29-.123z"/></g><g transform="translate(48.9 100.636)"><mask id="V" fill="#fff"><use xlink:href="#U"/></mask><path d="M22.362 8.66l-21.16-.546C.613 8.099.149 7.63.165 7.067l.938-33.232c.016-.563.506-1.007 1.094-.992l21.16.547c.588.015 1.053.484 1.037 1.047l-.938 33.232c-.016.563-.506 1.007-1.094.992" fill="#2E3190" mask="url(#V)"/></g></g><g><path d="M60.032 72.042l2.264.045c-.013-1.062 1.41-2.023.483-2.29-1.495-.43-5.484-.269-7.01 1.7-1.41 1.817-1.807 4.275-.322 5.134 1.374.795 3.342.098 4.585-1.553v-3.036z" fill="#E7C3B2"/><path d="M71.985 108.044l-21.024-.549c-.585-.015-1.046-.486-1.03-1.051l.931-33.358c.016-.565.503-1.01 1.087-.995l21.025.548c.585.016 1.046.486 1.03 1.051l-.932 33.358c-.016.565-.502 1.011-1.087.996" fill="#E6E7E8"/><path stroke="#D0D2D3" stroke-width="1.2" d="M55.032 79.102l-1.75-.03.03-1.693 1.751.03zM54.941 84.157l-1.75-.03.03-1.693 1.75.03zM54.85 89.211l-1.75-.029.03-1.693 1.75.03zM54.759 94.266l-1.751-.03.03-1.692 1.751.03zM54.667 99.321l-1.75-.03.03-1.692 1.751.03z"/><path d="M54.175 79.493a.742.742 0 0 1-.437-.319l-1.16-1.84a.45.45 0 0 1 .158-.63.485.485 0 0 1 .653.153l.97 1.538 1.001-1.86a.483.483 0 0 1 .641-.194.452.452 0 0 1 .201.62l-1.17 2.17a.747.747 0 0 1-.857.362M53.997 84.816a.738.738 0 0 1-.412-.35l-1.016-1.917a.452.452 0 0 1 .206-.617.483.483 0 0 1 .64.199l.849 1.603 1.141-1.782a.484.484 0 0 1 .654-.149.45.45 0 0 1 .154.632l-1.334 2.082a.751.751 0 0 1-.882.299M53.56 95.2a.736.736 0 0 1-.413-.349l-1.016-1.917a.452.452 0 0 1 .207-.618.483.483 0 0 1 .638.2l.85 1.603 1.142-1.782a.484.484 0 0 1 .653-.148.45.45 0 0 1 .154.631l-1.334 2.082a.75.75 0 0 1-.882.299M53.48 100.432a.738.738 0 0 1-.412-.35l-1.016-1.917a.452.452 0 0 1 .206-.618.483.483 0 0 1 .64.2l.849 1.603 1.141-1.782a.484.484 0 0 1 .654-.149.45.45 0 0 1 .153.632l-1.333 2.082a.751.751 0 0 1-.882.299M53.6 89.739a.737.737 0 0 1-.413-.35l-1.016-1.916a.452.452 0 0 1 .206-.618.483.483 0 0 1 .64.2l.849 1.602 1.142-1.782a.484.484 0 0 1 .653-.148.45.45 0 0 1 .154.632L54.48 89.44a.751.751 0 0 1-.882.299" fill="#37B24A"/><path d="M64.002 72.59l.09-.135 2.9.058c-.015-1.35-1.889-2.856-3.077-3.195-1.915-.547-5.754-.256-7.299 2.218-.15.24-.015.721-.124.933 2.273-.024 5.24.013 7.51.122" fill="#F3D3C3"/><path d="M61.508 70.316s-2.934-.328-4.214 2.28c-.425.868-.532 2.026-.473 3.682M61.824 71.153c-1.375-.03-2.93.069-2.81 5.395M64.044 70.942c-1.322.358-2.965-.03-2.845 5.297M65.277 71.536c-1.138.985-1.868-.793-1.748 4.534" stroke="#F3D3C3" stroke-width="5.2" stroke-linecap="round"/><path d="M63.208 102.338l.765-2.361c.032-.1.171-.116.226-.026l1.325 2.154a.135.135 0 0 1-.102.204l-2.026.246c-.126.016-.226-.1-.188-.217m.205-4.373l-2.44 7.352c-.106.317.164.632.506.59l.31-.038a.466.466 0 0 0 .39-.314l.486-1.494a.467.467 0 0 1 .39-.315l2.927-.355a.475.475 0 0 1 .464.22l.804 1.317a.476.476 0 0 0 .464.22l.335-.04a.453.453 0 0 0 .343-.688l-4.13-6.552c-.21-.333-.726-.274-.85.097M68.426 101.74a.438.438 0 0 1 .336-.53l2.43-.562a.455.455 0 0 1 .547.325.438.438 0 0 1-.335.529l-2.43.563a.455.455 0 0 1-.548-.325" fill="#EC1C24"/><path d="M69.933 102.633l-.583-2.35a.438.438 0 0 1 .336-.528.455.455 0 0 1 .547.324l.582 2.35a.439.439 0 0 1-.335.529.455.455 0 0 1-.547-.325" fill="#EC1C24"/><path d="M41.516 113.83l2.316 54.59" stroke="#41345B" stroke-width="1.2" stroke-dasharray="4.883199782180782,4.883199782180782"/><path d="M50.853 110.637l9.164 59.906" stroke="#41345B" stroke-width="1.2" stroke-dasharray="4.799999713897705,4.799999713897705"/><path fill="#585380" d="M35.374 104.09h-.832v-2.664h.832zM39.964 104.02h-.832v-2.664h.832z"/><path d="M33.013 109.557l-.022-1.23c.01 0 1.123.052 1.906-.665.557-.509.839-1.304.839-2.363h1.27c0 1.418-.42 2.518-1.25 3.269-1.006.91-2.325.99-2.743.99" fill="#41345B"/><path d="M25.2 181.883H46.07a.75.75 0 0 0 .763-.775l-.034-.664H24.69c-.065.25-.113.499-.14.743a.639.639 0 0 0 .65.696M79.59 181.883a.639.639 0 0 0 .649-.696 4.996 4.996 0 0 0-.14-.743H57.945l-.016.806a.631.631 0 0 0 .643.633H79.59z" fill="#929497"/><path d="M46.533 173.017l-11.433.702c-.6.037-1.116-.403-1.154-.983-.039-.58.417-1.08 1.017-1.116l11.432-.703c.6-.037 1.117.404 1.155.983.038.58-.417 1.08-1.017 1.117M69.503 173.303l-11.455.134c-.6.007-1.094-.458-1.101-1.04-.007-.58.474-1.056 1.075-1.064l11.455-.133c.6-.007 1.094.458 1.1 1.039.008.58-.473 1.057-1.074 1.064" fill="#5D5976"/><path d="M99.057 43.199h-4.682c-.173 3.77-2.267 6.14-6.13 6.173-3.345.028-5.183-2.092-5.119-5.649-.3-.023-.599-.06-.892-.116-.133-.027 1.013-.022-2.462-.805-3.476-.783-6.424 5.638-6.43 5.637 0 0 1.098 1.413 3.003 2.122 1.829 1.349 3.934 1.572 3.934 1.572l-.345.833c-.946 2.097-2.018 4.09-2.018 5.636 0 2.165 1.474 3.997 3.505 4.61 1.519 6.093 3.123 14.393 2.242 19.66-.047.283-.106.683-.178 1.136-.088 1.114-.59 4.065-.82 5.156l25.037-2.624c-.448-1.045-.47-1.038-.902-2.089-.42-.676-.777-1.257-.91-1.516-3.18-6.324-5.557-12.864-5.045-26.586.008-.206.016-.414.026-.623l6.122-7.287c.03-.036-3.415-5.213-7.936-5.24z" fill="#FAAF40"/></g><g transform="translate(96.235 73.098)"><mask id="X" fill="#fff"><use xlink:href="#W"/></mask><path d="M3.011.032c-.301.062-.86.178-1.404.432L1.535.5C.81.857.134 1.472.174 2.55c.023.624.55 1.108 1.178 1.085.158-.007.308-.044.442-.108l.016-.008c.355-.174.604-.527.632-.936.114-.07.4-.209 1.032-.34a1.13 1.13 0 0 0 .88-1.335A1.135 1.135 0 0 0 3.012.032" mask="url(#X)"/></g><g><path d="M106.577 74.164c.824 1.664.11 3.665-1.595 4.47-1.705.804-3.755.106-4.578-1.558-.824-1.664-.11-3.666 1.595-4.47 1.704-.804 3.754-.107 4.578 1.558" fill="#E2C0B3"/><path d="M112.225 71.103l-7.55 2.043c-2.41.713-3.917 2.997-3.37 5.102.547 2.105 2.264 2.548 5.114 2.024l2.232-.71c.755-2.984 2.103-5.753 3.574-8.459" fill="#F4D4C4"/><path d="M105.431 75.322a1.027 1.027 0 0 1-.255.082l-6.856 1.244c-.11.02-.224.022-.336.006-.623-.092-1.334-.541-1.514-1.337a.986.986 0 0 1 .768-1.175c.452-.098.9.116 1.108.495l6.565-1.487c.548-.1.97.568 1.073 1.104a.98.98 0 0 1-.553 1.068" fill="#F4D4C4"/><path d="M103.615 77.135c-.057.027-.118.049-.182.066l-4.486 1.16a1.013 1.013 0 0 1-1.235-.7.985.985 0 0 1 .717-1.207l4.487-1.16c.539-.14 1.092.174 1.235.7a.979.979 0 0 1-.536 1.14" fill="#F4D4C4"/><path d="M104.565 78.92c-.064.029-.13.053-.201.07L99.9 80.054a1.012 1.012 0 0 1-1.22-.725.986.986 0 0 1 .741-1.192l4.464-1.064a1.011 1.011 0 0 1 1.22.725.98.98 0 0 1-.54 1.121" fill="#F4D4C4"/><path d="M106.42 80.272a1.031 1.031 0 0 1-.219.074l-4.918 1.228a1.01 1.01 0 0 1-1.207-.745.986.986 0 0 1 .763-1.179l4.352-.958a1.011 1.011 0 0 1 1.208.745c.105.456.434.64.02.835" fill="#F4D4C4"/><path d="M118.228 69.059l-8.017-15.29-3.759-5.701-6.057 7.279c-.01.21 10.043 15.988 10.043 15.988l-5.066 1.427.775 7.837s9.893-1.727 12.271-4.45c2.379-2.722-.19-7.09-.19-7.09" fill="#F7921E"/><path d="M99.429 75.23c-6.908-13.076-5.484-28.136-4.833-32.727.111-.782.81-1.353 1.617-1.324l.954.035c.659.023 1.151.6 1.057 1.237l-.035.23c-.587 4.537-1.809 19.042 4.468 30.924l-3.228 1.625zM80.893 75.892c-5.263-13.82-2.014-28.594-.808-33.072.205-.762.969-1.243 1.766-1.116l.943.15c.65.103 1.07.736.898 1.357l-.062.224c-.92 3.591-3.053 13.63-1.283 23.992.415 2.424.949 4.166 1.37 6.83 0 0 .007 2.83.075 4.442-1.203-.408-2.899-2.807-2.899-2.807z" fill="#EC1C24"/><path d="M105.261 73.191a.61.61 0 0 0-.35-.041l-6.565 1.487a1.019 1.019 0 0 0-1.108-.496.986.986 0 0 0-.768 1.176c.18.796.89 1.245 1.514 1.337.112.016.225.014.336-.006l6.856-1.244a1.03 1.03 0 0 0 .518-.263c-.146-.65-.291-1.3-.433-1.95" fill="#F4D4C4"/><path d="M84.334 43.35s.426 11.01 5.466 10.19c5.184-.845 2.702-12.087 2.702-12.087" stroke="#F1F1F2" stroke-width="2.89" stroke-linecap="round" stroke-dasharray="0.2887999839305877,3.467599662089356"/></g></g></g></g></svg>