<svg width="422" height="337" viewBox="0 0 422 337" xmlns="http://www.w3.org/2000/svg" xmlns:xlink="http://www.w3.org/1999/xlink"><title>8EF61599-7F27-44D0-A127-1B41C5EFF8A1</title><defs><path d="M.41 8.947C4.889 5.209 10.014 2.001 16.872.981c4.11-.61 8.453-.84 12.648-.84 9.646 0 18.499 1.206 21.86 1.724v35.167H.41V8.947z" id="a"/><path d="M.41 8.947C4.889 5.209 10.014 2.001 16.872.981c4.11-.61 8.453-.84 12.648-.84 9.646 0 18.499 1.206 21.86 1.724v35.167H.41V8.947" id="c"/><path d="M43.567.981C27.422 3.383 20.88 17.903 9.76 22.949-1.357 27.993.663 38.755.663 38.755S4.034 60.616 3.36 61.96l1.684 30.605 133.759 3.027-30.66-50.11s2.022-26.232-5.053-32.96C96.015 5.798 79.505 2.097 79.505 2.097S68.504.142 56.215.142c-4.195 0-8.54.228-12.648.839" id="e"/><path d="M43.567.981C27.422 3.383 20.88 17.903 9.76 22.949-1.357 27.993.663 38.755.663 38.755S4.034 60.616 3.36 61.96l1.684 30.605 133.759 3.027-30.66-50.11s2.022-26.232-5.053-32.96C96.015 5.798 79.505 2.097 79.505 2.097S68.504.142 56.215.142c-4.195 0-8.54.228-12.648.839" id="g"/><path d="M43.296.306a43.42 43.42 0 0 0-7.025.574C12.856 4.725-3.005 26.79.847 50.162l6.879 41.746c3.852 23.373 25.955 39.204 49.372 35.36 23.416-3.844 39.276-25.91 35.424-49.283l-1.694-10.28 1.576-10.066-6.76-21.398C82.18 15.225 63.962.307 43.301.306" id="i"/><path d="M43.296.306a43.42 43.42 0 0 0-7.025.574C12.856 4.725-3.005 26.79.847 50.162l6.879 41.746c3.852 23.373 25.955 39.204 49.372 35.36 23.416-3.844 39.276-25.91 35.424-49.283l-1.694-10.28 1.576-10.066-6.76-21.398C82.18 15.225 63.962.307 43.301.306" id="k"/><path d="M43.296.306a43.42 43.42 0 0 0-7.025.574C12.856 4.725-3.005 26.79.847 50.162l6.879 41.746c3.852 23.373 25.955 39.204 49.372 35.36 23.416-3.844 39.276-25.91 35.424-49.283l-1.694-10.28 1.576-10.066-6.76-21.398C82.18 15.225 63.962.307 43.301.306" id="m"/><path d="M43.296.306a43.42 43.42 0 0 0-7.025.574C12.856 4.725-3.005 26.79.847 50.162l6.879 41.746c3.852 23.373 25.955 39.204 49.372 35.36 23.416-3.844 39.276-25.91 35.424-49.283l-1.694-10.28 1.576-10.066-6.76-21.398C82.18 15.225 63.962.307 43.301.306" id="o"/><path d="M43.296.306a43.42 43.42 0 0 0-7.025.574C12.856 4.725-3.005 26.79.847 50.162l6.879 41.746c3.852 23.373 25.955 39.204 49.372 35.36 23.416-3.844 39.276-25.91 35.424-49.283l-1.694-10.28 1.576-10.066-6.76-21.398C82.18 15.225 63.962.307 43.301.306" id="q"/><path d="M43.296.306a43.42 43.42 0 0 0-7.025.574C12.856 4.725-3.005 26.79.847 50.162l6.879 41.746c3.852 23.373 25.955 39.204 49.372 35.36 23.416-3.844 39.276-25.91 35.424-49.283l-1.694-10.28 1.576-10.066-6.76-21.398C82.18 15.225 63.962.307 43.301.306" id="s"/><path d="M15.47 24.467L.775 153.464c-.78 5.336 3.02 10.259 8.389 10.865 0 0 24.398 9.316 43.437 11.75 19.037 2.434 47.476-3.013 47.476-3.013 5.414.612 10.245-3.41 10.614-8.836l12.483-126.062c.984-14.433-11.626-26.161-27.047-33.207l-29.258 41.53S51.306 14.562 43.147.61C29.57 4.43 17.33 11.755 15.47 24.467" id="u"/><path d="M15.47 24.467L.775 153.464c-.78 5.336 3.02 10.259 8.389 10.865 0 0 24.398 9.316 43.437 11.75 19.037 2.434 47.476-3.013 47.476-3.013 5.414.612 10.245-3.41 10.614-8.836l12.483-126.062c.984-14.433-11.626-26.161-27.047-33.207l-29.258 41.53S51.306 14.562 43.147.61C29.57 4.43 17.33 11.755 15.47 24.467" id="w"/><path d="M57.022 4.748a75.792 75.792 0 0 0-5.153-2.592l-20.973 29.77h26.126V4.748M16.797 31.926C11.98 22.281 5.15 8.843.227.136v31.79h16.57" id="y"/><path d="M28.469 19.238c-13 2.468-28.295 1.404-28.295 1.404v8.64H106.98V19.56S101.164 2.05 79.195.523A38.268 38.268 0 0 0 76.52.431c-20.583 0-35.586 16.44-48.052 18.807" id="A"/><path d="M28.469 19.238c-13 2.468-28.295 1.404-28.295 1.404v8.64H106.98V19.56S101.164 2.05 79.195.523A38.268 38.268 0 0 0 76.52.431c-20.583 0-35.586 16.44-48.052 18.807" id="C"/><path d="M28.469 19.238c-13 2.468-28.295 1.404-28.295 1.404v8.64H106.98V19.56S101.164 2.05 79.195.523A38.268 38.268 0 0 0 76.52.431c-20.583 0-35.586 16.44-48.052 18.807" id="E"/><path d="M28.469 19.238c-13 2.468-28.295 1.404-28.295 1.404v8.64H106.98V19.56S101.164 2.05 79.195.523A38.268 38.268 0 0 0 76.52.431c-20.583 0-35.586 16.44-48.052 18.807" id="G"/><path d="M23.923.522C5.168 1.826.203 16.774.203 16.774v8.3h91.185v-7.377s-13.059.91-24.156-1.198C56.588 14.479 43.782.443 26.208.443c-.753 0-1.513.025-2.285.079" id="I"/><path d="M23.923.522C5.168 1.826.203 16.774.203 16.774v8.3h91.185v-7.377s-13.059.91-24.156-1.198C56.588 14.479 43.782.443 26.208.443c-.753 0-1.513.025-2.285.079" id="K"/><path d="M23.923.522C5.168 1.826.203 16.774.203 16.774v8.3h91.185v-7.377s-13.059.91-24.156-1.198C56.588 14.479 43.782.443 26.208.443c-.753 0-1.513.025-2.285.079" id="M"/><path d="M23.923.522C5.168 1.826.203 16.774.203 16.774v8.3h91.185v-7.377s-13.059.91-24.156-1.198C56.588 14.479 43.782.443 26.208.443c-.753 0-1.513.025-2.285.079" id="O"/><path id="Q" d="M.145 13.266h8.262V.591H.145v12.675"/></defs><g fill="none" fill-rule="evenodd"><path d="M380.854 324.298c.016-.883.034-1.765.034-2.652 0-83.017-67.421-150.316-150.59-150.316-83.168 0-150.589 67.299-150.589 150.316 0 .887.018 1.769.034 2.652h301.111z" fill="#98B9C6"/><path d="M366.72 322.572s-1.584-8.943-1.89-9.535c-11.706-22.753-47.323-43.353-60.392-49.507-8.07-3.8-22.735-18.978-18.928-27.034 3.807-8.056 13.437-11.506 21.506-7.706.595.28 25.98 12.563 42.21 23.734 22.785 15.683 38.222 32.145 45.877 48.925 3.092 6.774.642 16.369-4.837 20.901-1.078.892-23.546.222-23.546.222M217.544 264.482s-8.694 46.437-4.7 45.734l12.377 6.736 14.786-.051-13.453-67.62c-8 5.671-9.01 15.2-9.01 15.2" fill="#F05A28"/><path d="M305.78 228.166c-3.535-1.106-20.54-6.563-43.372.624-18.132 5.708-34.84 19.773-35.853 20.491l13.452 67.62 98.195-.34-32.422-88.395z" fill="#F7921E"/><path d="M332.832 299.612c0-7.552-9.946-13.673-22.216-13.673-12.27 0-22.216 6.121-22.216 13.673s9.947 13.674 22.216 13.674c12.27 0 22.216-6.122 22.216-13.674" fill="#F4D4C4"/><path d="M317.74 286.39c.936 0 61.58 6.778 61.58 6.778l7.025 27.813-55.727-2.571-12.878-32.02z" fill="#F05A28"/><g transform="translate(246.87 224.387)"><mask id="b" fill="#fff"><use xlink:href="#a"/></mask><path d="M.41 14.12l5.74 20.805c.552 2 2.98 2.774 4.591 1.463l12.81-10.418s-8.716-1.2-11.12-4.35c-2.405-3.15-8.265-8.85-8.265-8.85L.41 14.12z" fill="#F05A28" mask="url(#b)"/></g><g transform="translate(246.87 224.387)"><mask id="d" fill="#fff"><use xlink:href="#c"/></mask><path d="M35.83 20.463l12.15 5.558c1.697.776 3.593-.593 3.386-2.445L48.61-1.04l-5.402.266s2.62 7.38.192 13.056c-2.429 5.675-7.57 8.18-7.57 8.18" fill="#F05A28" mask="url(#d)"/></g><g transform="translate(220.176 224.387)"><mask id="f" fill="#fff"><use xlink:href="#e"/></mask><path d="M68.369 4.876c0 12.114-9.838 21.934-21.973 21.934-12.136 0-21.974-9.82-21.974-21.934 0-12.113 9.838-21.933 21.974-21.933 12.135 0 21.973 9.82 21.973 21.933" fill="#E6E7E8" mask="url(#f)"/></g><g transform="translate(220.176 224.387)"><mask id="h" fill="#fff"><use xlink:href="#g"/></mask><path d="M66.25 3.68c0 11.139-9.047 20.17-20.206 20.17-11.16 0-20.208-9.031-20.208-20.17 0-11.14 9.048-20.17 20.208-20.17 11.16 0 20.207 9.03 20.207 20.17" fill="#F4D4C4" mask="url(#h)"/></g><path d="M234.412 114.013s-6.762-2.25-9.316-2.25c-2.555 0 10.518-4.95 18.032-2.1-1.653-2.85-6.161-3.3-6.161-3.3s13.824-1.05 21.338 3.3c7.513 4.35-2.705 6.75-2.705 6.75l-15.778.6-5.41-3z" fill="#A87C4F"/><path d="M241.926 238.508l5.741 20.804c.551 2 2.98 2.774 4.59 1.464l12.81-10.418s-8.715-1.2-11.12-4.35c-2.404-3.15-8.264-8.85-8.264-8.85l-3.757 1.35zM278.015 245.647l11.862 6.148c1.657.859 3.619-.416 3.502-2.276l-1.539-24.721h-5.41s2.255 7.5-.45 13.05c-2.706 5.549-7.965 7.8-7.965 7.8" fill="#E6E7E8"/><path d="M303.475 156.3c-4.457-26.01-22.668-47.78-50.63-47.78-27.962 0-50.629 21.392-50.629 47.78 0 26.39 6.904 42.728 6.904 42.728l98.728-11.256s-1.381-14.012-4.373-31.471" fill="#A87C4F"/><path d="M220.805 213.417l-1.666.601c-4.47 1.615-9.405-.693-9.224-5.686l-2.93-8.078c-3.415-3.931-1.103-8.857 3.366-10.472l1.667-.601c4.47-1.615 9.405.693 11.023 5.154l2.929 8.08c1.617 4.462-.696 9.388-5.165 11.002" fill="#E8C4B3"/><path d="M264.63 240.864c-23.417 3.845-45.521-11.987-49.373-35.36l-6.878-41.745c-3.853-23.373 12.008-45.437 35.424-49.282 23.416-3.845 45.52 11.987 49.372 35.36l6.879 41.744c3.852 23.374-12.01 45.438-35.425 49.283" fill="#F4D4C4"/><path d="M301.849 200.755l-1.994-.096c-5.345-.257-9.47-4.792-9.212-10.128l.466-9.662c.258-5.336 4.8-9.454 10.146-9.197l1.993.097c5.346.256 9.471 4.79 9.213 10.127l-.467 9.662c-.257 5.337-4.8 9.454-10.145 9.197" fill="#F4D4C4"/><path d="M270.837 194.786a4.146 4.146 0 0 1-4.15 4.142 4.145 4.145 0 0 1-4.148-4.142 4.146 4.146 0 0 1 4.149-4.142 4.146 4.146 0 0 1 4.15 4.142M240.045 200.236a4.147 4.147 0 0 1-4.15 4.142 4.146 4.146 0 0 1-4.15-4.142 4.146 4.146 0 0 1 4.15-4.142c2.29 0 4.15 1.855 4.15 4.142" fill="#41345B"/><path d="M263.967 229.847c-3.694.336-8.43-.48-10.39-2.688-1.143-1.284-.347-3.3 1.365-3.485 4.266-.462 10.99-2.192 13.971-8.359 1.55-1.92 4.372-2.429 6.366-.975 2.11 1.538 2.426 5.99.965 8.12-3.607 5.248-8.248 7.022-12.277 7.387" fill="#FFF"/><g><g transform="translate(207.531 113.596)"><mask id="j" fill="#fff"><use xlink:href="#i"/></mask><path d="M117.776 18.27c0-18.97-15.407-34.347-34.41-34.347-19.003 0-34.408 15.378-34.408 34.347 0 18.97 15.405 34.347 34.408 34.347s34.41-15.378 34.41-34.347" fill="#A87C4F" mask="url(#j)"/></g><g transform="translate(207.531 113.596)"><mask id="l" fill="#fff"><use xlink:href="#k"/></mask><path d="M112.953 52.129c0-8.366-6.794-15.148-15.175-15.148-8.38 0-15.175 6.782-15.175 15.148s6.794 15.148 15.175 15.148 15.175-6.782 15.175-15.148" fill="#A87C4F" mask="url(#l)"/></g><g transform="translate(207.531 113.596)"><mask id="n" fill="#fff"><use xlink:href="#m"/></mask><path d="M38.804 24.477c0-24.104-19.577-43.646-43.725-43.646-24.15 0-43.726 19.542-43.726 43.646 0 24.105 19.576 43.647 43.726 43.647 24.148 0 43.725-19.542 43.725-43.647" fill="#A87C4F" mask="url(#n)"/></g><g transform="translate(207.531 113.596)"><mask id="p" fill="#fff"><use xlink:href="#o"/></mask><path d="M64.688 17.779c0-24.105-19.577-43.646-43.726-43.646-24.148 0-43.725 19.541-43.725 43.646s19.577 43.646 43.725 43.646c24.149 0 43.726-19.541 43.726-43.646" fill="#A87C4F" mask="url(#p)"/></g><g transform="translate(207.531 113.596)"><mask id="r" fill="#fff"><use xlink:href="#q"/></mask><path d="M44.364 41.277c0-24.105-19.577-43.646-43.726-43.646-24.15 0-43.725 19.541-43.725 43.646 0 24.106 19.576 43.646 43.725 43.646s43.726-19.54 43.726-43.646" fill="#F4D4C4" mask="url(#r)"/></g><g transform="translate(207.531 113.596)"><mask id="t" fill="#fff"><use xlink:href="#s"/></mask><path d="M48.872 18.477c0-26.756-21.73-48.445-48.534-48.445-26.805 0-48.535 21.69-48.535 48.445 0 26.757 21.73 48.447 48.535 48.447 26.804 0 48.534-21.69 48.534-48.447" fill="#A87C4F" mask="url(#t)"/></g></g><g><path d="M206.619 181.767c-.175-.473-4.275-11.753-3.37-25.595.858-13.116 6.461-31.002 28.286-41.722 16.476-8.095 32.327-7.093 45.838 2.895 10.427 7.71 16.53 18.652 18.535 22.248.196.353.345.623.447.792.593.87 2.312 3.758 6.868 28.61l-9.675 1.767c-1.9-10.367-4.518-22.783-5.501-25.123-.202-.32-.418-.708-.731-1.27-9.263-16.609-25.708-33.753-51.439-21.112-14.137 6.944-21.811 18.234-22.814 33.554-.77 11.784 2.747 21.462 2.783 21.558l-9.227 3.398z" fill="#A87C4F"/><path d="M256.739 176.496s11.671-5.648 18.627 4.001M223.546 192.425c1.297-3.136 6.196-9.574 13.506-10.163" stroke="#A87C4F" stroke-width="4.32"/></g><g fill="#F4D4C4"><path d="M15.204 141.255c-11.492-.472-12.57 14.663-13.197 25.034l.196 18.896 39.41 2.427 1.063-17.613c.63-10.37-5.827-28.236-16.217-28.86l-11.255.116z"/></g><g><path d="M7.925 143.61c-.053.588-.954 15.824-.954 15.824M18.791 139.442c-.052.588-1.389 19.911-1.389 19.911M30.482 137.126c-.052.588-1.39 19.911-1.39 19.911M42.705 110.441c-1.183 7.677-3.23 41.282-3.23 41.282" stroke="#FAE6DD" stroke-width="12.24" stroke-linecap="round" stroke-linejoin="round"/><path d="M53.801 150.754a11.752 11.752 0 0 0-9.711-5.781 6.121 6.121 0 0 0-.59.003l-16.387.807c-3.723.183-6.592 3.344-6.408 7.06a6.736 6.736 0 0 0 7.072 6.397l11.683-.575-.19.23a19.387 19.387 0 0 0-1.768-.085c-10.346 0-18.734 8.372-18.734 18.699 0 1.776.254 3.492.717 5.119H40.79c.567-3.063 4.071-9.89 10.817-17.418.467-.52.949-1.044 1.447-1.571a6.796 6.796 0 0 0 1.126-1.604 11.71 11.71 0 0 0-.379-11.28" fill="#F4D4C4"/><path d="M147.848 177.097l-29.266-9.896-23.147 3.154c-2.366.5-4.642 1.05-6.82 1.664 8.158 13.952 26.319 44.866 26.319 44.866l32.914-39.788z" fill="#FFF"/><path d="M147.848 177.097l-32.914 39.788" fill="#7F3F97"/><path d="M106.386 214.592c.24-1.868 6.77-23.689 6.77-23.689l6.597.378 4.06 25.475-10.61 19.967-6.817-22.131z" fill="#231F1F"/><path d="M125.957 186.307c.642-5.008-2.903-9.588-7.92-10.23-5.018-.64-9.606 2.899-10.25 7.907-.642 5.008 2.905 9.587 7.922 10.229 5.017.642 9.605-2.898 10.248-7.906" fill="#231F1F"/><path d="M171.241 208.561c.982-14.432-11.63-26.16-27.05-33.205l-29.257 41.529s-15.561-31.928-23.72-45.88c-13.576 3.819-25.818 11.143-27.678 23.856L48.933 323.046h110.97l11.338-114.485z" fill="#00A27C"/><path d="M114.31 221.601a2.808 2.808 0 0 1-2.179-1.557l-16.498-33.97a1.871 1.871 0 0 1 .869-2.5 1.877 1.877 0 0 1 2.505.867l15.81 32.556 19.855-28.481a1.875 1.875 0 0 1 2.608-.467c.85.59 1.06 1.756.468 2.604l-20.75 29.765a2.824 2.824 0 0 1-2.549 1.198c-.045-.004-.093-.009-.139-.015" fill="#2DB899"/><path d="M111.28 275.628l-3.88-.336a7.891 7.891 0 0 1-5.358-2.775 7.9 7.9 0 0 1-1.815-5.746l.22-2.557 1.296-14.91.222-2.558c.188-2.162 1.244-4.04 2.78-5.348a7.906 7.906 0 0 1 5.756-1.813l3.88.336a7.93 7.93 0 0 1 5.358 2.775c1.288 1.55 2.004 3.583 1.816 5.745l-.222 2.558-1.295 14.91-.223 2.557a7.902 7.902 0 0 1-2.78 5.349 7.933 7.933 0 0 1-5.755 1.813zm-23.129-9.902c-.477 5.491 1.316 10.648 4.619 14.57a19.974 19.974 0 0 0 13.583 7.048l3.88.336a19.863 19.863 0 0 0 14.373-4.44 19.928 19.928 0 0 0 13.412 6.843l1.046-12.051a7.893 7.893 0 0 1-5.358-2.776c-1.288-1.55-2.005-3.582-1.816-5.745l.222-2.557 1.295-14.91.221-2.558c.188-2.162 1.243-4.041 2.78-5.348a7.904 7.904 0 0 1 5.757-1.813l1.045-12.052a19.943 19.943 0 0 0-14.39 4.438 19.85 19.85 0 0 0-13.393-6.842l-3.88-.336a19.987 19.987 0 0 0-14.595 4.61c-3.93 3.296-6.585 8.068-7.06 13.559l-.223 2.557-1.295 14.91-.223 2.557z" fill="#FFF"/></g><g><g transform="translate(48.067 170.394)"><mask id="v" fill="#fff"><use xlink:href="#u"/></mask><path d="M-8.193 164.52c-30.39-17.597-13.82-61.337-14.32-62.852a14.56 14.56 0 0 1 .567-10.568L1.26 39.86l21.548 5.913-20.366 95.2C-.986 153.976-8.193 164.52-8.193 164.52" fill="#078161" mask="url(#v)"/></g><g transform="translate(48.067 170.394)"><mask id="x" fill="#fff"><use xlink:href="#w"/></mask><path d="M112.718 148.412c-1.49-27.272-6.081-88.724-6.081-88.724l8.338-.73 15.571 52.012a5.23 5.23 0 0 1-.517 4.176s-8.37 25.58-17.311 33.266" fill="#078161" mask="url(#x)"/></g><g transform="translate(92.323 173.199)"><mask id="z" fill="#fff"><use xlink:href="#y"/></mask><path d="M57.022-.624l-6.208 30.54c-.425 2.094-3.112 2.73-4.434 1.05L28.022 7.62 9.116 28.305c-1.42 1.552-4.006.777-4.334-1.299L.223-1.89s10.387-8.613 29.318-6.78C48.472-6.837 57.022-.624 57.022-.624" fill="#078161" mask="url(#z)"/></g></g><g><path d="M170.434 321.755c-5.187-11.766-4.66-25.347-7.072-36.241-4.021-18.154-7.992-40.25-19.48-73.341l11.686-30.218c14.902 11.404 32.04 32.973 46.942 93.217l-9.915 46.426s-15.403-.156-22.161.157" fill="#00A27C"/><path d="M267.293 292.104c-2.866-10.9-11.568-16.19-26.917-21.364-15.348-5.173-31.977 4.407-37.595 8.375-7.086 5.006-5.01 18.646 12.507 18.336 20.255-.357 54.208 3.033 52.005-5.347" fill="#F4D4C4"/><path d="M145.291 173.87l-6.81 28.916c-.466 1.982-3.045 2.509-4.255.87l-16.806-22.778-18.62 19.156c-1.397 1.437-3.839.622-4.09-1.364l-3.496-27.665s10.148-7.903 28.13-5.604c17.983 2.3 25.947 8.469 25.947 8.469" fill="#F1F1F2"/><path d="M26.116 298.72c-5.639-.31-13.264-2.8-20.055-12.026-4.257-5.783-4.96-12.158-4.91-28.381.027-8.347.18-20.363.14-34.109-.071-23.556.403-40.736.418-40.965l40.276 1.15c-.476 7.74-.277 12.571-.682 20.577 2.443-5.491 10.605-14.317 20.39-20.766 9.784-6.45 27.34-12.2 27.34-12.2-6.057 13.437-30.572 90.148-35.068 102.92-1.85 5.256-7.48 21.252-23.18 23.586a23.079 23.079 0 0 1-4.669.215" fill="#00A27C"/><path d="M195.95 108.364a18.627 18.627 0 0 1-.689 3.46c-6.054 27.57-31.334 47.04-59.008 44.192l-28.93-2.977c-27.729-2.853-48.499-27.06-48.735-55.278-.156-1.174-.147-2.332-.022-3.532l3.263-31.61c1.015-9.826 10.286-19.853 24.453-28.05 41.17-24.014 59.284-22.26 94.78 9.752 12.139 10.904 19.167 22.607 18.151 32.434l-3.263 31.61" fill="#41345B"/><path d="M175.359 125.777l-4.048-.416c-4.758-.49-10.135 2.874-11.883 7.494l-4.582 11.722c-1.75 4.62.64 8.783 5.398 9.273l4.101.422c4.76.49 10.082-2.88 11.885-7.495l4.527-11.728c1.804-4.613-.64-8.782-5.398-9.272M75.164 115.468l4.102.423c4.757.488 9.28 4.87 10.102 9.755l2.035 12.403c.822 4.884-2.421 8.468-7.18 7.979l-4.046-.417c-4.76-.49-9.336-4.877-10.158-9.763l-2.036-12.403c-.822-4.883 2.422-8.467 7.18-7.977" fill="#FAE6DD"/><path d="M170.153 116.248c.09-.873.125-1.752.05-2.643.384-51.88-77.306-59.596-87.45-8.999-.254.858-.454 1.72-.545 2.593l-4.048 39.199c-.76 7.37 3.644 16.098 11.322 24.172 22.331 23.54 33.92 24.787 60.652 6.24 9.168-6.34 15.21-13.994 15.97-21.364l4.049-39.198" fill="#FAE6DD"/><path d="M120.633 165.443c4.921.507 9.22-2.03 9.596-5.688.378-3.657-3.305-7.07-8.226-7.577-4.868-.5-9.171 2.09-9.55 5.748-.378 3.658 3.311 7.017 8.18 7.517" fill="#F4D4C4"/><path d="M106.785 96.155c8.425 3.517 13.618 12.105 11.676 19.133-2.002 7.077-10.42 9.908-18.791 6.397-8.424-3.515-13.617-12.104-11.616-19.18 1.943-7.029 10.365-9.914 18.731-6.35M149.06 100.505c-8.91 1.732-15.751 9.083-15.286 16.359.46 7.329 8.12 11.815 17.088 10.088 8.912-1.73 15.805-9.076 15.292-16.41-.465-7.277-8.121-11.817-17.094-10.037M122.409 148.246c6.409-6.401 13.933-5.407 22.525 2.925 2.727 2.488 5.194 6.438 8.953 4.84-11.185 11.427-28.793 10.663-32.363.807-5.454 8.928-22.904 6.085-31.463-7.374 3.353 2.33 6.574-1.035 9.698-2.921 10.167-6.402 17.683-5.849 22.65 1.723" fill="#41345B"/><path d="M99.39 105.657c15.172 1.892 23.04 8.659 19.221 19.413-3.819 10.751-11.189 16.282-22.783 15.09-11.648-1.199-18.502-10.842-18.08-21.337.42-10.494 6.418-15.063 21.643-13.166M153.208 111.194c-15.293-1.243-24.38 3.78-22.839 15.085 1.542 11.304 7.628 18.22 19.276 19.418 11.594 1.193 20.328-6.847 22.007-17.212 1.733-10.359-3.206-16.053-18.444-17.291" fill="#FAE6DD"/><path d="M81.225 111.899c-2.238 4.017-1.81 10.573-.696 14.769 4.108 14.823 24.351 15.748 32.281 4.81 3.874-5.394 6.195-13.431 1.003-18.82-4.592-4.777-27.636-9.63-32.588-.76m-8.907-1.523c.184-8.203-1.229-7.906 8.254-8.2 11.479-.364 23.806.684 34.528 4.988 6.42 2.592 8.73 3.766 11.137 4.013 2.406.248 4.908-.43 11.723-1.66 11.376-2.03 23.658-.547 34.82 2.147 9.278 2.224 7.956 1.647 6.405 9.708-.051.49-.423.894-.836 1.127-.35.186-.645.375-.991.505-2.257.982-2.522 3.548-2.966 5.709-3.101 13.972-12.48 21.833-27.417 18.752-9.688-1.99-16.065-9.819-18.602-21.115-.433-1.7-.716-6.97-2.932-7.473-2.27.042-3.626 5.143-4.342 6.725-4.792 10.541-12.635 16.907-22.581 16.877-15.198-.02-22.773-9.626-22.953-23.935-.049-2.21.272-4.771-1.737-6.192a9.566 9.566 0 0 1-.923-.701 1.734 1.734 0 0 1-.587-1.275m97.835 10.674c-3.033-9.693-26.531-9.628-32.003-5.888-6.238 4.213-5.607 12.556-2.863 18.63 5.471 12.316 25.48 15.533 32.53 1.858 2.003-3.875 3.708-10.211 2.336-14.6" fill="#00A78C"/><path d="M105.094 132.252c2.462.253 4.638-1.564 4.887-3.966.248-2.403-1.512-4.625-3.973-4.877-2.406-.249-4.64 1.563-4.887 3.965-.248 2.402 1.567 4.63 3.973 4.878M153.812 137.59c2.461.254 4.638-1.564 4.886-3.965.248-2.402-1.512-4.624-3.973-4.878-2.406-.247-4.584 1.57-4.832 3.972-.249 2.401 1.511 4.624 3.919 4.872" fill="#41345B"/><path d="M130.433 141.715c0-3.615-2.936-6.544-6.556-6.544-3.621 0-6.557 2.93-6.557 6.544 0 3.615 2.936 6.545 6.557 6.545 3.62 0 6.556-2.93 6.556-6.545M254.32 277.973c.337-7.037-12.168-10.062-24.832-10.669-12.663-.606-27.062 6.365-27.4 13.401-.34 7.037 6.474 14.644 20.562 14.74 15.853.107 31.33-10.436 31.67-17.472" fill="#FAE6DD"/><path d="M192.438 279.082l23.842-10.073s-5.077 8.642-4.332 20.046c.745 11.405 2.023 26.582 2.023 26.582l-31.083-.798-11.673.248 7.7-27.767 13.523-8.238z" fill="#00A27C"/><path d="M41.423 264.62l-.114-59.659s.922-1.974 2.067-3.607c1.07-1.525 2.967-3.805 2.967-3.805l-4.92 67.071z" fill="#078161"/><path d="M228.86 273.603s35.715-2.093 52.067 19.102" stroke="#FAE6DD" stroke-width="12.24" stroke-linecap="round"/><path d="M381.867 322.665H166.285a2.947 2.947 0 0 1-2.95-2.944 2.947 2.947 0 0 1 2.95-2.943h215.582c1.63 0 2.95 1.317 2.95 2.943a2.947 2.947 0 0 1-2.95 2.944" fill="#EC1C24"/><path d="M171.879 308.138s15.277.974 28.294-1.404c16.474-3.01 28.758-20.241 50.726-18.714 21.97 1.526 27.786 19.036 27.786 19.036v9.721H171.879v-8.64z" fill="#D0D2D3"/><path d="M379.629 309.541s-17.079.892-30.08-1.175c-13-2.068-23.658-18.904-45.628-17.625-21.97 1.28-25.236 15.872-25.236 15.872v10.164h100.944v-7.236z" fill="#E6E7E8"/></g><g><g transform="translate(171.704 287.496)"><mask id="B" fill="#fff"><use xlink:href="#A"/></mask><path d="M107.665 27.735S100.106 5.015 80.66 3.677C61.212 2.34 53.887 10.574 44.35 15.803c-7.067 3.874-14.87 7.983-38.892 8.068" stroke="#A6A8AB" stroke-width="1.44" stroke-linecap="round" mask="url(#B)"/></g><g transform="translate(171.704 287.496)"><mask id="D" fill="#fff"><use xlink:href="#C"/></mask><path d="M105.262 30.454S99.179 9.208 80.338 8.092c-18.842-1.116-25.321 8.027-35.024 12.217-4.129 1.783-8.644 3.695-16.732 4.96" stroke="#A6A8AB" stroke-width="1.295" stroke-linecap="round" mask="url(#D)"/></g><g transform="translate(171.704 287.496)"><mask id="F" fill="#fff"><use xlink:href="#E"/></mask><path d="M103.987 33.637S98.64 14.502 81.57 13.357C64.5 12.212 58.38 18.576 50.967 23.43" stroke="#A6A8AB" stroke-width="1.248" stroke-linecap="round" mask="url(#F)"/></g><g transform="translate(171.704 287.496)"><mask id="H" fill="#fff"><use xlink:href="#G"/></mask><path d="M105.145 41.01s-4.876-22.038-23.718-23.318c-13.956-.949-18.241 3.122-24.932 7.216" stroke="#A6A8AB" stroke-width="1.387" stroke-linecap="round" mask="url(#H)"/></g></g><g><g transform="translate(278.482 291.704)"><mask id="J" fill="#fff"><use xlink:href="#I"/></mask><path d="M-.381 23.754S6.07 4.356 22.674 3.214c16.604-1.14 22.857 5.89 31 10.354 6.032 3.306 12.695 6.814 33.204 6.887" stroke="#A6A8AB" stroke-width="1.229" stroke-linecap="round" mask="url(#J)"/></g><g transform="translate(278.482 291.704)"><mask id="L" fill="#fff"><use xlink:href="#K"/></mask><path d="M1.67 26.075S6.864 7.937 22.949 6.984c16.086-.953 21.618 6.852 29.902 10.43 3.523 1.523 7.378 3.154 14.284 4.236" stroke="#A6A8AB" stroke-width="1.106" stroke-linecap="round" mask="url(#L)"/></g><g transform="translate(278.482 291.704)"><mask id="N" fill="#fff"><use xlink:href="#M"/></mask><path d="M2.758 28.793s4.565-16.337 19.138-17.315c14.573-.977 19.799 4.456 26.127 8.6" stroke="#A6A8AB" stroke-width="1.066" stroke-linecap="round" mask="url(#N)"/></g><g transform="translate(278.482 291.704)"><mask id="P" fill="#fff"><use xlink:href="#O"/></mask><path d="M1.77 35.087s4.164-18.814 20.248-19.908c11.916-.81 15.575 2.666 21.286 6.161" stroke="#A6A8AB" stroke-width="1.184" stroke-linecap="round" mask="url(#P)"/></g></g><g><path d="M288.33 322.665c-5.778-.096-13.778-.317-19.29 0 0-5.317 4.317-9.627 9.645-9.627 5.327 0 9.646 4.31 9.646 9.627" fill="#EC1C24"/><g transform="translate(246.168 300.82)"><mask id="R" fill="#fff"><use xlink:href="#Q"/></mask><path d="M.145 13.266c1.647 0 3.987-3.434 3.987-3.434s2.354 3.434 3.61 3.434C6.606 5.762 8.407.861 8.407.861S6.001.6 3.942.59C3.774.866.145 6.455.145 13.266" fill="#404041" mask="url(#R)"/></g><path d="M243.182 314.086c1.648 0 3.987-3.435 3.987-3.435s2.355 3.435 3.61 3.435c0-7.578 3.798-12.406 3.798-12.406s-2.63-.27-3.86-.27h-3.737s-3.798 5.864-3.798 12.676" fill="#F7921E"/><path d="M223.815 283.934s19.526-3.41 34.414 9.989" stroke="#FAE6DD" stroke-width="12.24" stroke-linecap="round"/><path d="M14.567 324.592h404.644M76.755 334.258h245.73" stroke="#BABCBE" stroke-width="4.32" stroke-linecap="round"/><path d="M326.607.409c-28.97 0-52.456 23.442-52.456 52.359 0 18.842 9.976 35.353 24.937 44.575l-6.073 21.711 20.242-15.643a52.625 52.625 0 0 0 13.35 1.716c28.969 0 52.455-23.442 52.455-52.359S355.576.408 326.607.408" fill="#B8E3F2"/><path d="M310.653 32.967a207.901 207.901 0 0 1 12.657 37.019c-.95-4.004-1.908-8.09-1.554-12.188.144-1.665.538-3.383 1.611-4.668 1.071-1.285 2.967-1.999 4.488-1.298 1.651.76 2.26 2.75 2.689 4.515.79 3.243 1.955 7.48 2.746 10.724M346.283 55.565c.639 3.802-.815 7.213-3.248 7.62-2.433.408-4.923-2.343-5.562-6.144-.639-3.801.815-7.213 3.249-7.62 2.432-.408 4.923 2.343 5.561 6.144z" stroke="#FFF" stroke-width="5.04"/><path d="M345.22 46.308c.067 3.481.726 9.813 3.126 12.964.693.91 1.834 1.426 2.957 1.2 1.583-.32 2.416-1.697 2.826-2.849M304.719 75.457c-3.377-12.715-6.771-25.944-5.12-38.885.162-1.269 1.873-1.588 2.475-.459 5.882 11.015 10.927 24.33 14.013 36.274M295.39 61.34l15.874-4.881M359.076 54.798c.328 1.403.698 2.76 1.114 4.045M356.614 24.362s-.561 15.762 2.073 28.655" stroke="#FFF" stroke-width="5.04"/></g></g></svg>